<svg id="BeBold" xmlns="http://www.w3.org/2000/svg" viewBox="0 0 14 14"><defs><style>.cls-1{fill:#444a58;fill-rule:evenodd;}</style></defs><path id="Dashboard-2" class="cls-1" d="M12.25,14a1.75,1.75,0,1,0-1.75-1.75A1.749,1.749,0,0,0,12.25,14Zm0-5.25A1.75,1.75,0,1,0,10.5,7a1.749,1.749,0,0,0,1.75,1.75Zm0-5.25A1.75,1.75,0,1,0,10.5,1.75,1.749,1.749,0,0,0,12.25,3.5ZM7,14a1.75,1.75,0,1,0-1.75-1.75A1.749,1.749,0,0,0,7,14ZM7,8.75A1.75,1.75,0,1,0,5.25,7,1.749,1.749,0,0,0,7,8.75ZM7,3.5A1.75,1.75,0,1,0,5.25,1.75,1.749,1.749,0,0,0,7,3.5ZM1.75,14A1.75,1.75,0,1,0,0,12.25,1.749,1.749,0,0,0,1.75,14Zm0-5.25A1.75,1.75,0,1,0,0,7,1.749,1.749,0,0,0,1.75,8.75Zm0-5.25A1.75,1.75,0,1,0,0,1.75,1.749,1.749,0,0,0,1.75,3.5Z"/></svg>