<svg id="BeBold" xmlns="http://www.w3.org/2000/svg" viewBox="0 0 14 14"><defs><style>.cls-1,.cls-2{fill:#444a58;}.cls-2{fill-rule:evenodd;}</style></defs><g id="Layout-UI-9"><path class="cls-1" d="M.5.011H13.505a.5.5,0,0,1,.5.5V5.1a.5.5,0,0,1-.5.5H.5A.5.5,0,0,1,0,5.1V.506a.5.5,0,0,1,.5-.5Z"/><path class="cls-1" d="M.5,8.406H5.1a.5.5,0,0,1,.5.5v4.59a.5.5,0,0,1-.5.5H.5a.5.5,0,0,1-.5-.5V8.9A.5.5,0,0,1,.5,8.406Z"/><path class="cls-2" d="M13,8.286H8A1,1,0,1,0,8,10.28h5a1,1,0,1,0,0-1.994Z"/><path class="cls-2" d="M13,11.974H8a1,1,0,1,0,0,1.994h5a1,1,0,1,0,0-1.994Z"/></g></svg>