<svg id="BeBold" xmlns="http://www.w3.org/2000/svg" viewBox="0 0 14 14"><defs><style>.cls-1{fill:#444a58;fill-rule:evenodd;}</style></defs><path id="Layout-UI-8" class="cls-1" d="M12.251,13.416H1.751A1.784,1.784,0,0,1,0,11.6V9.727A1.785,1.785,0,0,1,1.751,7.909h10.5A1.785,1.785,0,0,1,14,9.727V11.6a1.784,1.784,0,0,1-1.749,1.818Zm0-7.324H1.751A1.786,1.786,0,0,1,0,4.274V2.4A1.785,1.785,0,0,1,1.751.584h10.5A1.785,1.785,0,0,1,14,2.4V4.274a1.785,1.785,0,0,1-1.749,1.818Zm0-3.69H1.751V4.274h10.5V2.4Z"/></svg>