<svg id="BeBold" xmlns="http://www.w3.org/2000/svg" viewBox="0 0 14 14"><defs><style>.cls-1,.cls-2{fill:#444a58;}.cls-2{fill-rule:evenodd;}</style></defs><g id="Layout-UI-7"><rect class="cls-1" y="0.003" width="5.6" height="5.6" rx="0.497"/><rect class="cls-1" y="8.304" width="5.6" height="5.6" rx="0.497"/><path class="cls-2" d="M13,8.3H8a1,1,0,0,0,0,2h5a1,1,0,0,0,0-2Z"/><path class="cls-2" d="M13,3.5H8a1,1,0,0,0,0,2h5a1,1,0,1,0,0-2Z"/><path class="cls-2" d="M8,2h5a1,1,0,0,0,0-2H8A1,1,0,0,0,8,2Z"/><path class="cls-2" d="M13,12H8a1,1,0,0,0,0,2h5a1,1,0,0,0,0-2Z"/></g></svg>