<svg id="BeBold" xmlns="http://www.w3.org/2000/svg" viewBox="0 0 14 14"><defs><style>.cls-1{fill:#444a58;}</style></defs><g id="Menu-hor."><path class="cls-1" d="M12.99.77H1.01a1.015,1.015,0,0,0-1.01,1V2.18A1.011,1.011,0,0,0,1.01,3.189H12.99A1.011,1.011,0,0,0,14,2.18V1.772A1.015,1.015,0,0,0,12.99.77Z"/><path class="cls-1" d="M12.99,5.7H1.01a1.015,1.015,0,0,0-1.01,1v.407a1.011,1.011,0,0,0,1.01,1.01H12.99A1.011,1.011,0,0,0,14,7.113V6.705A1.014,1.014,0,0,0,12.99,5.7Z"/><path class="cls-1" d="M12.987,10.637H1.01a1.015,1.015,0,0,0-1.01,1v.406a1.011,1.011,0,0,0,1.01,1.01H12.987A1.011,1.011,0,0,0,14,12.046v-.407A1.014,1.014,0,0,0,12.987,10.637Z"/></g></svg>