<svg id="BeBold" xmlns="http://www.w3.org/2000/svg" viewBox="0 0 14 14"><defs><style>.cls-1{fill:#444a58;}</style></defs><g id="Menu-ver."><path class="cls-1" d="M13.227,12.99V1.01a1.015,1.015,0,0,0-1-1.01h-.407a1.011,1.011,0,0,0-1.009,1.01V12.99A1.011,1.011,0,0,0,11.817,14h.408A1.015,1.015,0,0,0,13.227,12.99Z"/><path class="cls-1" d="M8.294,12.99V1.01a1.015,1.015,0,0,0-1-1.01H6.884A1.011,1.011,0,0,0,5.875,1.01V12.99A1.011,1.011,0,0,0,6.884,14h.408A1.015,1.015,0,0,0,8.294,12.99Z"/><path class="cls-1" d="M3.36,12.987V1.01a1.015,1.015,0,0,0-1-1.01H1.951A1.011,1.011,0,0,0,.941,1.01V12.987A1.011,1.011,0,0,0,1.951,14h.408A1.014,1.014,0,0,0,3.36,12.987Z"/></g></svg>