<svg id="BeBold" xmlns="http://www.w3.org/2000/svg" viewBox="0 0 14 14"><defs><style>.cls-1{fill:#444a58;fill-rule:evenodd;}</style></defs><g id="Date"><path class="cls-1" d="M3.5,3.469a.882.882,0,0,0,.882-.883V.994a.882.882,0,1,0-1.764,0V2.586A.882.882,0,0,0,3.5,3.469Z"/><path class="cls-1" d="M10.5,3.469a.882.882,0,0,0,.882-.883V.994a.882.882,0,1,0-1.764,0V2.586A.882.882,0,0,0,10.5,3.469Z"/><path class="cls-1" d="M12.668,1.292V2.747a2.254,2.254,0,0,1-1.944,2.281A2.168,2.168,0,0,1,8.333,2.871V1.644a.36.36,0,0,0-.36-.359H6.027a.359.359,0,0,0-.359.359v1.1A2.254,2.254,0,0,1,3.724,5.028,2.168,2.168,0,0,1,1.333,2.871V1.292A1.4,1.4,0,0,0,0,2.685v9.8a1.4,1.4,0,0,0,1.4,1.4H12.6a1.4,1.4,0,0,0,1.4-1.4v-9.8A1.4,1.4,0,0,0,12.668,1.292ZM11.5,10.775a.855.855,0,0,1-.852.852h-7.5a.855.855,0,0,1-.852-.852V7.455A.855.855,0,0,1,3.151,6.6h7.5a.855.855,0,0,1,.852.852Z"/></g></svg>