<svg id="BeBold" xmlns="http://www.w3.org/2000/svg" viewBox="0 0 14 14"><defs><style>.cls-1{fill:#444a58;}</style></defs><g id="Delete"><path class="cls-1" d="M13.06.832H9.485V.66C9.485.1,9.023,0,8.459,0H5.522C4.958,0,4.5.1,4.5.66V.832H.939a.608.608,0,0,0-.609.609V2.617a.609.609,0,0,0,.609.609H13.06a.609.609,0,0,0,.609-.609V1.441A.609.609,0,0,0,13.06.832Z"/><path class="cls-1" d="M11.782,4.844H2.217a.61.61,0,0,0-.6.685l.981,7.422A1.2,1.2,0,0,0,3.781,14h6.437a1.2,1.2,0,0,0,1.188-1.049l.98-7.422A.609.609,0,0,0,11.782,4.844Z"/></g></svg>