<svg id="BeBold" xmlns="http://www.w3.org/2000/svg" viewBox="0 0 14 14"><defs><style>.cls-1{fill:#444a58;}</style></defs><g id="Globe"><g id="globe-2" data-name="globe"><path id="Combined-Shape" class="cls-1" d="M12.235,9.244,11.964,9.1a.5.5,0,0,1-.267-.385l-.092-.782a.75.75,0,0,0-.482-.615L9.92,6.87a.5.5,0,0,1-.289-.285L9.1,5.231a.618.618,0,0,1-.039-.146A.637.637,0,0,1,9.6,4.367l.928-.128a.755.755,0,0,0,.509-.308l.428-.6A5.72,5.72,0,0,0,7,1.19H6.908l.2,1.088a.5.5,0,0,1-.4.584.526.526,0,0,1-.168,0,.67.67,0,0,0-.76.408l-.256.711a.5.5,0,0,1-.613.31l-.464-.138a.537.537,0,0,0-.4.028.763.763,0,0,0-.318,1.082l.511.84a.754.754,0,0,0,.641.36h.94a.492.492,0,0,1,.226.054L7,7a.5.5,0,0,1,.27.383l.028.219a.69.69,0,0,0,.3.487l.534.357a.636.636,0,0,1,.176.882.618.618,0,0,1-.072.09l-.765.79a.742.742,0,0,0-.185.327l-.567,2.1h0A5.728,5.728,0,0,0,12.235,9.244ZM4.359,12.083l.062-.506a.958.958,0,0,0-.164-.661L3.325,9.574a.579.579,0,0,1,.069-.743.371.371,0,0,0,0-.525.382.382,0,0,0-.078-.061L1.273,7.063A5.727,5.727,0,0,0,4.359,12.083ZM7,14a7,7,0,1,1,7-7A7,7,0,0,1,7,14Z"/></g></g></svg>