<svg id="BeBold" xmlns="http://www.w3.org/2000/svg" viewBox="0 0 14 14"><defs><style>.cls-1{fill:#444a58;}</style></defs><g id="Info"><circle class="cls-1" cx="6.834" cy="2.188" r="2.188"/><path class="cls-1" d="M9.35,12.25a.657.657,0,0,1-.657-.656v-5a.656.656,0,0,0-.656-.656H4.649a.656.656,0,0,0-.656.656v.438a.656.656,0,0,0,.656.656.656.656,0,0,1,.656.656v3.255a.656.656,0,0,1-.656.656.656.656,0,0,0-.656.656v.438A.656.656,0,0,0,4.649,14h4.7a.656.656,0,0,0,.656-.656v-.438A.656.656,0,0,0,9.35,12.25Z"/></g></svg>