<svg id="BeBold" xmlns="http://www.w3.org/2000/svg" viewBox="0 0 14 14"><defs><style>.cls-1{fill:#444a58;}</style></defs><g id="Info-triangle"><g id="error-2"><path id="Combined-Shape" class="cls-1" d="M8.271,1.664,13.8,10.911a1.4,1.4,0,0,1-.535,1.943,1.512,1.512,0,0,1-.736.191H1.469A1.446,1.446,0,0,1,0,11.624a1.386,1.386,0,0,1,.2-.713L5.729,1.664a1.5,1.5,0,0,1,2.007-.518A1.453,1.453,0,0,1,8.271,1.664ZM7,11.755a1.093,1.093,0,1,0-1.093-1.093A1.093,1.093,0,0,0,7,11.755ZM7,3.9a1.432,1.432,0,0,0-.16.01A1.287,1.287,0,0,0,5.723,5.345L6.181,7.86a.825.825,0,0,0,1.638,0l.458-2.515a1.432,1.432,0,0,0,.01-.16A1.287,1.287,0,0,0,7,3.9Z"/></g></g></svg>