<svg id="BeBold" xmlns="http://www.w3.org/2000/svg" viewBox="0 0 14 14"><defs><style>.cls-1{fill:#444a58;}</style></defs><path id="Rate-half" class="cls-1" d="M13.177,4.772,9.585,4.391,7.831.688a.92.92,0,0,0-1.662,0l-1.754,3.7L.823,4.772A.919.919,0,0,0,.336,6.4L3.2,8.754l-.886,3.96a.92.92,0,0,0,1.375.987L7,11.686,10.316,13.7a.919.919,0,0,0,1.374-.987L10.8,8.754,13.664,6.4A.919.919,0,0,0,13.177,4.772ZM9.377,7.9a.507.507,0,0,0-.172.5l.489,2.63L7.589,9.684a.875.875,0,0,0-.325-.057V3.466L8.48,5.778a.51.51,0,0,0,.406.288l2.243.238Z"/></svg>