<svg id="BeBold" xmlns="http://www.w3.org/2000/svg" viewBox="0 0 14 14"><defs><style>.cls-1{fill:#444a58;}</style></defs><path id="Rate" class="cls-1" d="M13.177,4.772,9.585,4.391,7.831.688a.92.92,0,0,0-1.662,0l-1.754,3.7L.823,4.772A.919.919,0,0,0,.336,6.4L3.2,8.755,2.31,12.714a.92.92,0,0,0,1.375.987L7,11.686,10.315,13.7a.92.92,0,0,0,1.375-.987L10.8,8.755,13.664,6.4A.919.919,0,0,0,13.177,4.772ZM9.08,7.714a.516.516,0,0,0-.175.51l.562,2.507-2.2-1.2A.514.514,0,0,0,7,9.452a.526.526,0,0,0-.268.074l-2.2,1.205L5.1,8.224a.516.516,0,0,0-.175-.51L3.11,6.221l2.308-.36a.522.522,0,0,0,.412-.292L6.94,3.225,8.171,5.569a.519.519,0,0,0,.411.292l2.274.241Z"/></svg>