<svg width="128" height="128" viewBox="0 0 128 128" fill="none" xmlns="http://www.w3.org/2000/svg">
<rect width="128" height="128" rx="15" fill="black"/>
<path d="M52.0588 56.3679C50.6748 56.3591 49.339 56.127 48.0514 55.6715C46.7725 55.216 45.625 54.4759 44.6089 53.451C43.5928 52.4261 42.7869 51.0684 42.1913 49.3778C41.6044 47.6873 41.3109 45.6113 41.3109 43.1499C41.3197 40.8899 41.5781 38.8709 42.0862 37.0927C42.603 35.3058 43.3388 33.7904 44.2935 32.5465C45.2571 31.3027 46.409 30.3567 47.7492 29.7084C49.0894 29.0515 50.5916 28.723 52.2559 28.723C54.0516 28.723 55.6371 29.0734 57.0123 29.7741C58.3875 30.4661 59.4912 31.4078 60.3234 32.5991C61.1643 33.7904 61.6723 35.1262 61.8475 36.6065H56.2371C56.0181 35.6693 55.5582 34.9335 54.8575 34.3991C54.1567 33.8648 53.2895 33.5977 52.2559 33.5977C50.504 33.5977 49.1726 34.3597 48.2616 35.8839C47.3594 37.408 46.8995 39.4796 46.882 42.0987H47.0659C47.4689 41.3016 48.0119 40.6228 48.6952 40.0621C49.3872 39.4928 50.1711 39.0592 51.0471 38.7614C51.9318 38.4548 52.8647 38.3015 53.8457 38.3015C55.44 38.3015 56.859 38.6781 58.1029 39.4315C59.3467 40.176 60.3278 41.2009 61.046 42.506C61.7643 43.8112 62.1234 45.3047 62.1234 46.9865C62.1234 48.8085 61.6986 50.429 60.8489 51.848C60.008 53.267 58.8299 54.3795 57.3145 55.1854C55.8079 55.9825 54.056 56.3767 52.0588 56.3679ZM52.0325 51.9006C52.9085 51.9006 53.6925 51.6903 54.3845 51.2699C55.0765 50.8494 55.6195 50.2801 56.0137 49.5618C56.4079 48.8435 56.605 48.0376 56.605 47.1442C56.605 46.2507 56.4079 45.4492 56.0137 44.7397C55.6283 44.0302 55.094 43.4652 54.4107 43.0447C53.7275 42.6243 52.9479 42.4141 52.072 42.4141C51.415 42.4141 50.8062 42.5367 50.2456 42.782C49.6938 43.0272 49.2076 43.3688 48.7872 43.8068C48.3755 44.2448 48.0514 44.7528 47.8149 45.331C47.5783 45.9003 47.4601 46.5091 47.4601 47.1573C47.4601 48.0245 47.6572 48.8172 48.0514 49.5355C48.4543 50.2538 48.9974 50.8275 49.6806 51.2567C50.3726 51.686 51.1566 51.9006 52.0325 51.9006ZM76.708 56.5913C74.448 56.5825 72.5034 56.0263 70.8742 54.9226C69.2537 53.8189 68.0054 52.2203 67.1295 50.1268C66.2623 48.0333 65.8331 45.5149 65.8418 42.5717C65.8418 39.6373 66.2754 37.1365 67.1426 35.0692C68.0186 33.002 69.2668 31.4297 70.8873 30.3523C72.5166 29.2661 74.4568 28.723 76.708 28.723C78.9591 28.723 80.895 29.2661 82.5155 30.3523C84.1448 31.4384 85.3974 33.0152 86.2733 35.0824C87.1493 37.1409 87.5828 39.6373 87.5741 42.5717C87.5741 45.5237 87.1361 48.0464 86.2602 50.1399C85.393 52.2334 84.1491 53.832 82.5286 54.9357C80.9081 56.0394 78.9679 56.5913 76.708 56.5913ZM76.708 51.8743C78.2496 51.8743 79.4803 51.0991 80.4001 49.5487C81.3198 47.9982 81.7753 45.6726 81.7666 42.5717C81.7666 40.5308 81.5563 38.8314 81.1359 37.4737C80.7242 36.116 80.1373 35.0955 79.3752 34.4123C78.6219 33.729 77.7328 33.3874 76.708 33.3874C75.1751 33.3874 73.9487 34.1539 73.029 35.6868C72.1092 37.2197 71.645 39.5147 71.6362 42.5717C71.6362 44.639 71.8421 46.3646 72.2538 47.7486C72.6742 49.1238 73.2655 50.1574 74.0276 50.8494C74.7896 51.5327 75.6831 51.8743 76.708 51.8743ZM52.2575 101.368C50.8736 101.359 49.5377 101.127 48.2501 100.672C46.9712 100.216 45.8237 99.4759 44.8076 98.451C43.7915 97.4261 42.9856 96.0684 42.39 94.3778C41.8031 92.6873 41.5097 90.6113 41.5097 88.1499C41.5184 85.8899 41.7768 83.8709 42.2849 82.0927C42.8017 80.3058 43.5375 78.7904 44.4923 77.5465C45.4558 76.3027 46.6077 75.3567 47.9479 74.7084C49.2881 74.0515 50.7903 73.723 52.4546 73.723C54.2503 73.723 55.8358 74.0734 57.211 74.7741C58.5863 75.4661 59.69 76.4078 60.5221 77.5991C61.363 78.7904 61.8711 80.1262 62.0463 81.6065H56.4358C56.2168 80.6693 55.757 79.9335 55.0562 79.3991C54.3554 78.8648 53.4883 78.5977 52.4546 78.5977C50.7027 78.5977 49.3713 79.3597 48.4603 80.8839C47.5581 82.408 47.0982 84.4796 47.0807 87.0987H47.2646C47.6676 86.3016 48.2107 85.6228 48.8939 85.0621C49.5859 84.4928 50.3699 84.0592 51.2458 83.7614C52.1305 83.4548 53.0634 83.3015 54.0445 83.3015C55.6387 83.3015 57.0577 83.6781 58.3016 84.4315C59.5454 85.176 60.5265 86.2009 61.2448 87.506C61.963 88.8112 62.3222 90.3047 62.3222 91.9865C62.3222 93.8085 61.8973 95.429 61.0477 96.848C60.2068 98.267 59.0286 99.3795 57.5132 100.185C56.0066 100.982 54.2547 101.377 52.2575 101.368ZM52.2313 96.9006C53.1072 96.9006 53.8912 96.6903 54.5832 96.2699C55.2752 95.8494 55.8183 95.2801 56.2124 94.5618C56.6066 93.8435 56.8037 93.0376 56.8037 92.1442C56.8037 91.2507 56.6066 90.4492 56.2124 89.7397C55.827 89.0302 55.2927 88.4652 54.6095 88.0447C53.9262 87.6243 53.1466 87.4141 52.2707 87.4141C51.6137 87.4141 51.0049 87.5367 50.4443 87.782C49.8925 88.0272 49.4063 88.3688 48.9859 88.8068C48.5742 89.2448 48.2501 89.7528 48.0136 90.331C47.7771 90.9003 47.6588 91.5091 47.6588 92.1573C47.6588 93.0245 47.8559 93.8172 48.2501 94.5355C48.653 95.2538 49.1961 95.8275 49.8794 96.2567C50.5713 96.686 51.3553 96.9006 52.2313 96.9006ZM65.9486 96.2699V91.7894L77.1826 74.0909H81.0455V80.2926H78.7593L71.6773 91.5004V91.7106H87.6414V96.2699H65.9486ZM78.8644 101V94.9034L78.9695 92.9194V74.0909H84.3041V101H78.8644Z" fill="white"/>
</svg>
