<svg width="128" height="128" viewBox="0 0 128 128" fill="none" xmlns="http://www.w3.org/2000/svg">
<rect width="128" height="128" rx="15" fill="black"/>
<path d="M40.9989 51.2699V46.7894L52.2329 29.0909H56.0958V35.2926H53.8096L46.7276 46.5004V46.7106H62.6917V51.2699H40.9989ZM53.9147 56V49.9034L54.0198 47.9194V29.0909H59.3544V56H53.9147ZM77.0332 56.5913C74.7732 56.5825 72.8286 56.0263 71.1994 54.9226C69.5789 53.8189 68.3306 52.2203 67.4547 50.1268C66.5875 48.0333 66.1583 45.5149 66.167 42.5717C66.167 39.6373 66.6006 37.1365 67.4678 35.0692C68.3438 33.002 69.592 31.4297 71.2125 30.3523C72.8418 29.2661 74.782 28.723 77.0332 28.723C79.2843 28.723 81.2202 29.2661 82.8407 30.3523C84.4699 31.4384 85.7226 33.0152 86.5985 35.0824C87.4744 37.1409 87.908 39.6373 87.8993 42.5717C87.8993 45.5237 87.4613 48.0464 86.5854 50.1399C85.7182 52.2334 84.4743 53.832 82.8538 54.9357C81.2333 56.0394 79.2931 56.5913 77.0332 56.5913ZM77.0332 51.8743C78.5748 51.8743 79.8055 51.0991 80.7253 49.5487C81.645 47.9982 82.1005 45.6726 82.0918 42.5717C82.0918 40.5308 81.8815 38.8314 81.4611 37.4737C81.0494 36.116 80.4625 35.0955 79.7004 34.4123C78.9471 33.729 78.058 33.3874 77.0332 33.3874C75.5003 33.3874 74.2739 34.1539 73.3542 35.6868C72.4344 37.2197 71.9702 39.5147 71.9614 42.5717C71.9614 44.639 72.1673 46.3646 72.579 47.7486C72.9994 49.1238 73.5907 50.1574 74.3528 50.8494C75.1148 51.5327 76.0083 51.8743 77.0332 51.8743ZM41.1976 96.2699V91.7894L52.4316 74.0909H56.2946V80.2926H54.0083L46.9263 91.5004V91.7106H62.8904V96.2699H41.1976ZM54.1135 101V94.9034L54.2186 92.9194V74.0909H59.5531V101H54.1135ZM66.2738 96.2699V91.7894L77.5078 74.0909H81.3707V80.2926H79.0845L72.0025 91.5004V91.7106H87.9666V96.2699H66.2738ZM79.1896 101V94.9034L79.2947 92.9194V74.0909H84.6293V101H79.1896Z" fill="white"/>
</svg>
