<svg width="128" height="128" viewBox="0 0 128 128" fill="none" xmlns="http://www.w3.org/2000/svg">
<rect width="128" height="128" rx="15" fill="black"/>
<path d="M40.8119 55.2699V50.7894L52.0459 33.0909H55.9088V39.2926H53.6226L46.5406 50.5004V50.7106H62.5047V55.2699H40.8119ZM53.7277 60V53.9034L53.8328 51.9194V33.0909H59.1673V60H53.7277ZM76.1235 60.3679C74.2665 60.3679 72.6109 60.0263 71.1569 59.343C69.7116 58.6598 68.5641 57.7182 67.7144 56.5181C66.8647 55.3181 66.4224 53.9428 66.3873 52.3924H71.9058C71.9671 53.4348 72.4051 54.2801 73.2197 54.9283C74.0344 55.5765 75.0023 55.9006 76.1235 55.9006C77.017 55.9006 77.8053 55.7035 78.4885 55.3093C79.1805 54.9064 79.7193 54.3501 80.1047 53.6406C80.4988 52.9223 80.6959 52.099 80.6959 51.1705C80.6959 50.2244 80.4945 49.3923 80.0915 48.674C79.6974 47.9557 79.1499 47.3951 78.4491 46.9922C77.7484 46.5893 76.9469 46.3834 76.0447 46.3746C75.2563 46.3746 74.4899 46.5367 73.7453 46.8608C73.0095 47.1849 72.4358 47.6272 72.0241 48.1879L66.9655 47.2812L68.24 33.0909H84.6903V37.7422H72.9307L72.2343 44.4826H72.392C72.865 43.8169 73.5789 43.265 74.5336 42.8271C75.4884 42.3891 76.5571 42.1701 77.7396 42.1701C79.3601 42.1701 80.8054 42.5511 82.0756 43.3132C83.3457 44.0753 84.3486 45.122 85.0844 46.4535C85.8202 47.7762 86.1837 49.3003 86.175 51.0259C86.1837 52.8391 85.7633 54.4509 84.9136 55.8612C84.0727 57.2627 82.8946 58.3664 81.3792 59.1722C79.8725 59.9693 78.1207 60.3679 76.1235 60.3679ZM40.5228 100.27V95.7894L51.7568 78.0909H55.6198V84.2926H53.3335L46.2515 95.5004V95.7106H62.2156V100.27H40.5228ZM53.4387 105V98.9034L53.5438 96.9194V78.0909H58.8783V105H53.4387ZM75.7425 77.723C77.1265 77.723 78.4579 77.9551 79.7368 78.4194C81.0244 78.8836 82.1719 79.6238 83.1792 80.6399C84.1953 81.656 84.9968 83.005 85.5837 84.6868C86.1794 86.3598 86.4816 88.4139 86.4903 90.8491C86.4903 93.1353 86.2319 95.1763 85.7151 96.9719C85.2071 98.7589 84.4756 100.279 83.5209 101.531C82.5661 102.784 81.4142 103.739 80.0653 104.396C78.7163 105.044 77.2097 105.368 75.5454 105.368C73.7497 105.368 72.1642 105.022 70.789 104.33C69.4137 103.629 68.3057 102.679 67.4648 101.479C66.6326 100.27 66.1289 98.9122 65.9537 97.4055H71.5642C71.7832 98.3866 72.243 99.1487 72.9438 99.6918C73.6446 100.226 74.5117 100.493 75.5454 100.493C77.2973 100.493 78.6287 99.7312 79.5397 98.207C80.4507 96.6741 80.9105 94.5762 80.9193 91.9134H80.7354C80.3324 92.7017 79.7893 93.3806 79.1061 93.9499C78.4229 94.5105 77.6389 94.9441 76.7542 95.2507C75.8782 95.5573 74.9453 95.7106 73.9555 95.7106C72.3701 95.7106 70.9554 95.3383 69.7116 94.5938C68.4677 93.8492 67.4867 92.8243 66.7684 91.5192C66.0501 90.214 65.691 88.7249 65.691 87.0518C65.6822 85.2474 66.0983 83.64 66.9392 82.2298C67.7801 80.8195 68.9539 79.7158 70.4605 78.9187C71.9759 78.1128 73.7365 77.7143 75.7425 77.723ZM75.7819 82.1903C74.8972 82.1903 74.1088 82.4006 73.4168 82.821C72.7336 83.2415 72.1905 83.8065 71.7876 84.516C71.3934 85.2255 71.2007 86.0182 71.2094 86.8942C71.2094 87.7789 71.4021 88.576 71.7876 89.2855C72.1817 89.9863 72.7161 90.5469 73.3905 90.9673C74.0738 91.379 74.8534 91.5849 75.7293 91.5849C76.3863 91.5849 76.9951 91.4622 77.5557 91.217C78.1163 90.9717 78.6024 90.6345 79.0141 90.2053C79.4346 89.7673 79.7631 89.2636 79.9996 88.6942C80.2361 88.1249 80.3543 87.5205 80.3543 86.881C80.3456 86.0314 80.1441 85.2518 79.7499 84.5423C79.3557 83.8327 78.8126 83.2634 78.1207 82.8342C77.4287 82.4049 76.6491 82.1903 75.7819 82.1903Z" fill="white"/>
</svg>
