<svg width="128" height="128" viewBox="0 0 128 128" fill="none" xmlns="http://www.w3.org/2000/svg">
<rect width="128" height="128" rx="15" fill="black"/>
<path d="M51.1616 60.3679C49.3046 60.3679 47.649 60.0263 46.195 59.343C44.7496 58.6598 43.6022 57.7182 42.7525 56.5181C41.9028 55.3181 41.4605 53.9428 41.4254 52.3924H46.9439C47.0052 53.4348 47.4432 54.2801 48.2578 54.9283C49.0724 55.5765 50.0404 55.9006 51.1616 55.9006C52.055 55.9006 52.8434 55.7035 53.5266 55.3093C54.2186 54.9064 54.7573 54.3501 55.1428 53.6406C55.5369 52.9223 55.734 52.099 55.734 51.1705C55.734 50.2244 55.5326 49.3923 55.1296 48.674C54.7354 47.9557 54.188 47.3951 53.4872 46.9922C52.7865 46.5893 51.985 46.3834 51.0827 46.3746C50.2944 46.3746 49.5279 46.5367 48.7834 46.8608C48.0476 47.1849 47.4738 47.6272 47.0621 48.1879L42.0036 47.2812L43.2781 33.0909H59.7283V37.7422H47.9688L47.2724 44.4826H47.43C47.9031 43.8169 48.617 43.265 49.5717 42.8271C50.5265 42.3891 51.5952 42.1701 52.7777 42.1701C54.3982 42.1701 55.8435 42.5511 57.1136 43.3132C58.3838 44.0753 59.3867 45.122 60.1225 46.4535C60.8583 47.7762 61.2218 49.3003 61.2131 51.0259C61.2218 52.8391 60.8014 54.4509 59.9517 55.8612C59.1108 57.2627 57.9326 58.3664 56.4173 59.1722C54.9106 59.9693 53.1587 60.3679 51.1616 60.3679ZM75.0092 60.3679C73.1522 60.3679 71.4967 60.0263 70.0426 59.343C68.5973 58.6598 67.4498 57.7182 66.6001 56.5181C65.7505 55.3181 65.3081 53.9428 65.2731 52.3924H70.7915C70.8529 53.4348 71.2908 54.2801 72.1055 54.9283C72.9201 55.5765 73.888 55.9006 75.0092 55.9006C75.9027 55.9006 76.6911 55.7035 77.3743 55.3093C78.0663 54.9064 78.605 54.3501 78.9904 53.6406C79.3846 52.9223 79.5817 52.099 79.5817 51.1705C79.5817 50.2244 79.3802 49.3923 78.9773 48.674C78.5831 47.9557 78.0356 47.3951 77.3349 46.9922C76.6341 46.5893 75.8326 46.3834 74.9304 46.3746C74.142 46.3746 73.3756 46.5367 72.631 46.8608C71.8952 47.1849 71.3215 47.6272 70.9098 48.1879L65.8512 47.2812L67.1257 33.0909H83.576V37.7422H71.8164L71.12 44.4826H71.2777C71.7507 43.8169 72.4646 43.265 73.4194 42.8271C74.3742 42.3891 75.4428 42.1701 76.6254 42.1701C78.2459 42.1701 79.6912 42.5511 80.9613 43.3132C82.2314 44.0753 83.2344 45.122 83.9702 46.4535C84.706 47.7762 85.0695 49.3003 85.0607 51.0259C85.0695 52.8391 84.649 54.4509 83.7994 55.8612C82.9585 57.2627 81.7803 58.3664 80.2649 59.1722C78.7583 59.9693 77.0064 60.3679 75.0092 60.3679ZM50.8725 105.368C49.0155 105.368 47.36 105.026 45.9059 104.343C44.4606 103.66 43.3131 102.718 42.4634 101.518C41.6138 100.318 41.1714 98.9428 41.1364 97.3924H46.6548C46.7161 98.4348 47.1541 99.2801 47.9688 99.9283C48.7834 100.576 49.7513 100.901 50.8725 100.901C51.766 100.901 52.5543 100.703 53.2376 100.309C53.9296 99.9064 54.4683 99.3501 54.8537 98.6406C55.2479 97.9223 55.445 97.099 55.445 96.1705C55.445 95.2244 55.2435 94.3923 54.8406 93.674C54.4464 92.9557 53.8989 92.3951 53.1982 91.9922C52.4974 91.5893 51.6959 91.3834 50.7937 91.3746C50.0053 91.3746 49.2389 91.5367 48.4943 91.8608C47.7585 92.1849 47.1848 92.6272 46.7731 93.1879L41.7145 92.2812L42.989 78.0909H59.4393V82.7422H47.6797L46.9833 89.4826H47.141C47.614 88.8169 48.3279 88.265 49.2827 87.8271C50.2375 87.3891 51.3061 87.1701 52.4886 87.1701C54.1091 87.1701 55.5545 87.5511 56.8246 88.3132C58.0947 89.0753 59.0977 90.122 59.8335 91.4535C60.5692 92.7762 60.9328 94.3003 60.924 96.0259C60.9328 97.8391 60.5123 99.4509 59.6626 100.861C58.8217 102.263 57.6436 103.366 56.1282 104.172C54.6216 104.969 52.8697 105.368 50.8725 105.368ZM74.6282 77.723C76.0122 77.723 77.3436 77.9551 78.6225 78.4194C79.9102 78.8836 81.0576 79.6238 82.065 80.6399C83.0811 81.656 83.8826 83.005 84.4695 84.6868C85.0651 86.3598 85.3673 88.4139 85.3761 90.8491C85.3761 93.1353 85.1177 95.1763 84.6009 96.9719C84.0928 98.7589 83.3614 100.279 82.4066 101.531C81.4518 102.784 80.3 103.739 78.951 104.396C77.602 105.044 76.0954 105.368 74.4311 105.368C72.6354 105.368 71.05 105.022 69.6747 104.33C68.2995 103.629 67.1914 102.679 66.3505 101.479C65.5183 100.27 65.0147 98.9122 64.8395 97.4055H70.4499C70.6689 98.3866 71.1288 99.1487 71.8295 99.6918C72.5303 100.226 73.3975 100.493 74.4311 100.493C76.183 100.493 77.5144 99.7312 78.4254 98.207C79.3364 96.6741 79.7963 94.5762 79.805 91.9134H79.6211C79.2182 92.7017 78.6751 93.3806 77.9918 93.9499C77.3086 94.5105 76.5246 94.9441 75.6399 95.2507C74.764 95.5573 73.8311 95.7106 72.8413 95.7106C71.2558 95.7106 69.8411 95.3383 68.5973 94.5938C67.3535 93.8492 66.3724 92.8243 65.6541 91.5192C64.9358 90.214 64.5767 88.7249 64.5767 87.0518C64.5679 85.2474 64.984 83.64 65.8249 82.2298C66.6658 80.8195 67.8396 79.7158 69.3462 78.9187C70.8616 78.1128 72.6223 77.7143 74.6282 77.723ZM74.6676 82.1903C73.7829 82.1903 72.9946 82.4006 72.3026 82.821C71.6193 83.2415 71.0762 83.8065 70.6733 84.516C70.2791 85.2255 70.0864 86.0182 70.0952 86.8942C70.0952 87.7789 70.2879 88.576 70.6733 89.2855C71.0675 89.9863 71.6018 90.5469 72.2763 90.9673C72.9595 91.379 73.7391 91.5849 74.6151 91.5849C75.272 91.5849 75.8808 91.4622 76.4414 91.217C77.002 90.9717 77.4882 90.6345 77.8999 90.2053C78.3203 89.7673 78.6488 89.2636 78.8853 88.6942C79.1218 88.1249 79.2401 87.5205 79.2401 86.881C79.2313 86.0314 79.0298 85.2518 78.6357 84.5423C78.2415 83.8327 77.6984 83.2634 77.0064 82.8342C76.3144 82.4049 75.5348 82.1903 74.6676 82.1903Z" fill="white"/>
</svg>
