<svg width="128" height="128" viewBox="0 0 128 128" fill="none" xmlns="http://www.w3.org/2000/svg">
<rect width="128" height="128" rx="15" fill="black"/>
<path d="M51.6958 56.3679C49.7337 56.3679 47.9862 56.0307 46.4533 55.3562C44.9292 54.6729 43.7247 53.7357 42.84 52.5444C41.9641 51.3443 41.513 49.9603 41.4867 48.3924H47.2154C47.2504 49.0494 47.465 49.6275 47.8592 50.1268C48.2621 50.6173 48.7965 50.9983 49.4622 51.2699C50.1279 51.5414 50.8768 51.6772 51.709 51.6772C52.5762 51.6772 53.3426 51.5239 54.0083 51.2173C54.6741 50.9107 55.1953 50.4859 55.5719 49.9428C55.9486 49.3997 56.1369 48.7734 56.1369 48.0639C56.1369 47.3456 55.9354 46.7106 55.5325 46.1587C55.1383 45.5981 54.569 45.1602 53.8244 44.8448C53.0886 44.5295 52.2127 44.3718 51.1966 44.3718H48.687V40.1935H51.1966C52.055 40.1935 52.8127 40.0446 53.4696 39.7468C54.1354 39.449 54.6522 39.0373 55.0201 38.5117C55.388 37.9774 55.5719 37.3555 55.5719 36.646C55.5719 35.9715 55.4099 35.3802 55.0858 34.8722C54.7704 34.3553 54.3237 33.9524 53.7456 33.6634C53.1762 33.3743 52.5105 33.2298 51.7484 33.2298C50.9776 33.2298 50.2724 33.3699 49.633 33.6502C48.9935 33.9218 48.4811 34.3116 48.0957 34.8196C47.7103 35.3277 47.5044 35.9233 47.4782 36.6065H42.0254C42.0517 35.0561 42.494 33.6896 43.3525 32.5071C44.2109 31.3246 45.3671 30.4004 46.8212 29.7347C48.284 29.0602 49.9352 28.723 51.7747 28.723C53.6317 28.723 55.2566 29.0602 56.6493 29.7347C58.0421 30.4092 59.1239 31.3202 59.8947 32.4677C60.6743 33.6064 61.0597 34.8853 61.051 36.3043C61.0597 37.811 60.5911 39.0679 59.6451 40.0753C58.7078 41.0826 57.4859 41.7221 55.9792 41.9936V42.2038C57.9589 42.4579 59.4655 43.1455 60.4991 44.2667C61.5415 45.3791 62.0583 46.7719 62.0495 48.445C62.0583 49.9779 61.6159 51.34 60.7225 52.5312C59.8378 53.7225 58.6158 54.6598 57.0566 55.343C55.4975 56.0263 53.7105 56.3679 51.6958 56.3679ZM76.6899 56.5913C74.43 56.5825 72.4854 56.0263 70.8561 54.9226C69.2356 53.8189 67.9874 52.2203 67.1114 50.1268C66.2442 48.0333 65.815 45.5149 65.8238 42.5717C65.8238 39.6373 66.2574 37.1365 67.1246 35.0692C68.0005 33.002 69.2487 31.4297 70.8692 30.3523C72.4985 29.2661 74.4387 28.723 76.6899 28.723C78.9411 28.723 80.8769 29.2661 82.4974 30.3523C84.1267 31.4384 85.3793 33.0152 86.2552 35.0824C87.1312 37.1409 87.5648 39.6373 87.556 42.5717C87.556 45.5237 87.118 48.0464 86.2421 50.1399C85.3749 52.2334 84.1311 53.832 82.5106 54.9357C80.8901 56.0394 78.9498 56.5913 76.6899 56.5913ZM76.6899 51.8743C78.2316 51.8743 79.4623 51.0991 80.382 49.5487C81.3018 47.9982 81.7573 45.6726 81.7485 42.5717C81.7485 40.5308 81.5383 38.8314 81.1178 37.4737C80.7061 36.116 80.1192 35.0955 79.3572 34.4123C78.6038 33.729 77.7148 33.3874 76.6899 33.3874C75.157 33.3874 73.9307 34.1539 73.0109 35.6868C72.0912 37.2197 71.6269 39.5147 71.6182 42.5717C71.6182 44.639 71.824 46.3646 72.2357 47.7486C72.6562 49.1238 73.2474 50.1574 74.0095 50.8494C74.7716 51.5327 75.665 51.8743 76.6899 51.8743ZM51.8946 101.368C49.9325 101.368 48.1849 101.031 46.652 100.356C45.1279 99.6729 43.9235 98.7357 43.0388 97.5444C42.1628 96.3443 41.7117 94.9603 41.6854 93.3924H47.4141C47.4491 94.0494 47.6638 94.6275 48.0579 95.1268C48.4609 95.6173 48.9952 95.9983 49.6609 96.2699C50.3266 96.5414 51.0756 96.6772 51.9077 96.6772C52.7749 96.6772 53.5414 96.5239 54.2071 96.2173C54.8728 95.9107 55.394 95.4859 55.7706 94.9428C56.1473 94.3997 56.3356 93.7734 56.3356 93.0639C56.3356 92.3456 56.1342 91.7106 55.7312 91.1587C55.337 90.5981 54.7677 90.1602 54.0231 89.8448C53.2873 89.5295 52.4114 89.3718 51.3953 89.3718H48.8857V85.1935H51.3953C52.2537 85.1935 53.0114 85.0446 53.6684 84.7468C54.3341 84.449 54.8509 84.0373 55.2188 83.5117C55.5867 82.9774 55.7706 82.3555 55.7706 81.646C55.7706 80.9715 55.6086 80.3802 55.2845 79.8722C54.9691 79.3553 54.5224 78.9524 53.9443 78.6634C53.3749 78.3743 52.7092 78.2298 51.9471 78.2298C51.1763 78.2298 50.4712 78.3699 49.8317 78.6502C49.1923 78.9218 48.6799 79.3116 48.2944 79.8196C47.909 80.3277 47.7032 80.9233 47.6769 81.6065H42.2241C42.2504 80.0561 42.6928 78.6896 43.5512 77.5071C44.4096 76.3246 45.5659 75.4004 47.0199 74.7347C48.4828 74.0602 50.1339 73.723 51.9734 73.723C53.8304 73.723 55.4553 74.0602 56.8481 74.7347C58.2408 75.4092 59.3226 76.3202 60.0934 77.4677C60.873 78.6064 61.2584 79.8853 61.2497 81.3043C61.2584 82.811 60.7898 84.0679 59.8438 85.0753C58.9065 86.0826 57.6846 86.7221 56.178 86.9936V87.2038C58.1576 87.4579 59.6642 88.1455 60.6978 89.2667C61.7402 90.3791 62.257 91.7719 62.2483 93.445C62.257 94.9779 61.8147 96.34 60.9212 97.5312C60.0365 98.7225 58.8146 99.6598 57.2554 100.343C55.6962 101.026 53.9093 101.368 51.8946 101.368ZM65.9305 96.2699V91.7894L77.1646 74.0909H81.0275V80.2926H78.7413L71.6592 91.5004V91.7106H87.6234V96.2699H65.9305ZM78.8464 101V94.9034L78.9515 92.9194V74.0909H84.286V101H78.8464Z" fill="white"/>
</svg>
