<svg width="128" height="128" viewBox="0 0 128 128" fill="none" xmlns="http://www.w3.org/2000/svg">
<rect width="128" height="128" rx="15" fill="black"/>
<path d="M56.413 33.0909V60H50.7238V38.4911H50.5661L44.4038 42.354V37.3086L51.0654 33.0909H56.413ZM72.6367 60.3679C70.7797 60.3679 69.1241 60.0263 67.6701 59.343C66.2247 58.6598 65.0773 57.7182 64.2276 56.5181C63.3779 55.3181 62.9356 53.9428 62.9005 52.3924H68.419C68.4803 53.4348 68.9183 54.2801 69.7329 54.9283C70.5475 55.5765 71.5155 55.9006 72.6367 55.9006C73.5301 55.9006 74.3185 55.7035 75.0017 55.3093C75.6937 54.9064 76.2324 54.3501 76.6179 53.6406C77.012 52.9223 77.2091 52.099 77.2091 51.1705C77.2091 50.2244 77.0077 49.3923 76.6047 48.674C76.2105 47.9557 75.6631 47.3951 74.9623 46.9922C74.2616 46.5893 73.4601 46.3834 72.5578 46.3746C71.7695 46.3746 71.003 46.5367 70.2585 46.8608C69.5227 47.1849 68.9489 47.6272 68.5372 48.1879L63.4786 47.2812L64.7532 33.0909H81.2034V37.7422H69.4438L68.7475 44.4826H68.9051C69.3782 43.8169 70.092 43.265 71.0468 42.8271C72.0016 42.3891 73.0703 42.1701 74.2528 42.1701C75.8733 42.1701 77.3186 42.5511 78.5887 43.3132C79.8589 44.0753 80.8618 45.122 81.5976 46.4535C82.3334 47.7762 82.6969 49.3003 82.6882 51.0259C82.6969 52.8391 82.2765 54.4509 81.4268 55.8612C80.5859 57.2627 79.4077 58.3664 77.8924 59.1722C76.3857 59.9693 74.6338 60.3679 72.6367 60.3679ZM56.124 78.0909V105H50.4347V83.4911H50.277L44.1147 87.354V82.3086L50.7763 78.0909H56.124ZM72.2556 77.723C73.6396 77.723 74.9711 77.9551 76.25 78.4194C77.5376 78.8836 78.6851 79.6238 79.6924 80.6399C80.7085 81.656 81.51 83.005 82.0969 84.6868C82.6925 86.3598 82.9947 88.4139 83.0035 90.8491C83.0035 93.1353 82.7451 95.1763 82.2283 96.9719C81.7202 98.7589 80.9888 100.279 80.034 101.531C79.0793 102.784 77.9274 103.739 76.5784 104.396C75.2295 105.044 73.7228 105.368 72.0585 105.368C70.2629 105.368 68.6774 105.022 67.3022 104.33C65.9269 103.629 64.8188 102.679 63.9779 101.479C63.1458 100.27 62.6421 98.9122 62.4669 97.4055H68.0774C68.2964 98.3866 68.7562 99.1487 69.457 99.6918C70.1577 100.226 71.0249 100.493 72.0585 100.493C73.8104 100.493 75.1419 99.7312 76.0529 98.207C76.9639 96.6741 77.4237 94.5762 77.4325 91.9134H77.2485C76.8456 92.7017 76.3025 93.3806 75.6193 93.9499C74.936 94.5105 74.1521 94.9441 73.2674 95.2507C72.3914 95.5573 71.4585 95.7106 70.4687 95.7106C68.8832 95.7106 67.4686 95.3383 66.2247 94.5938C64.9809 93.8492 63.9998 92.8243 63.2816 91.5192C62.5633 90.214 62.2041 88.7249 62.2041 87.0518C62.1954 85.2474 62.6115 83.64 63.4524 82.2298C64.2933 80.8195 65.467 79.7158 66.9737 78.9187C68.4891 78.1128 70.2497 77.7143 72.2556 77.723ZM72.2951 82.1903C71.4103 82.1903 70.622 82.4006 69.93 82.821C69.2468 83.2415 68.7037 83.8065 68.3007 84.516C67.9066 85.2255 67.7139 86.0182 67.7226 86.8942C67.7226 87.7789 67.9153 88.576 68.3007 89.2855C68.6949 89.9863 69.2292 90.5469 69.9037 90.9673C70.587 91.379 71.3666 91.5849 72.2425 91.5849C72.8995 91.5849 73.5082 91.4622 74.0688 91.217C74.6295 90.9717 75.1156 90.6345 75.5273 90.2053C75.9478 89.7673 76.2762 89.2636 76.5127 88.6942C76.7492 88.1249 76.8675 87.5205 76.8675 86.881C76.8587 86.0314 76.6573 85.2518 76.2631 84.5423C75.8689 83.8327 75.3258 83.2634 74.6338 82.8342C73.9418 82.4049 73.1622 82.1903 72.2951 82.1903Z" fill="white"/>
</svg>
