<svg width="128" height="128" viewBox="0 0 128 128" fill="none" xmlns="http://www.w3.org/2000/svg">
<rect width="128" height="128" rx="15" fill="black"/>
<path d="M55.6001 29.0909V56H49.9108V34.4911H49.7531L43.5908 38.354V33.3086L50.2524 29.0909H55.6001ZM72.5463 56.5913C70.2864 56.5825 68.3418 56.0263 66.7125 54.9226C65.092 53.8189 63.8438 52.2203 62.9679 50.1268C62.1007 48.0333 61.6715 45.5149 61.6802 42.5717C61.6802 39.6373 62.1138 37.1365 62.981 35.0692C63.8569 33.002 65.1052 31.4297 66.7257 30.3523C68.3549 29.2661 70.2952 28.723 72.5463 28.723C74.7975 28.723 76.7334 29.2661 78.3539 30.3523C79.9831 31.4384 81.2357 33.0152 82.1117 35.0824C82.9876 37.1409 83.4212 39.6373 83.4125 42.5717C83.4125 45.5237 82.9745 48.0464 82.0985 50.1399C81.2314 52.2334 79.9875 53.832 78.367 54.9357C76.7465 56.0394 74.8063 56.5913 72.5463 56.5913ZM72.5463 51.8743C74.088 51.8743 75.3187 51.0991 76.2385 49.5487C77.1582 47.9982 77.6137 45.6726 77.6049 42.5717C77.6049 40.5308 77.3947 38.8314 76.9743 37.4737C76.5626 36.116 75.9757 35.0955 75.2136 34.4123C74.4603 33.729 73.5712 33.3874 72.5463 33.3874C71.0134 33.3874 69.7871 34.1539 68.8674 35.6868C67.9476 37.2197 67.4834 39.5147 67.4746 42.5717C67.4746 44.639 67.6805 46.3646 68.0922 47.7486C68.5126 49.1238 69.1039 50.1574 69.8659 50.8494C70.628 51.5327 71.5215 51.8743 72.5463 51.8743ZM55.7988 74.0909V101H50.1095V79.4911H49.9518L43.7896 83.354V78.3086L50.4511 74.0909H55.7988ZM61.787 96.2699V91.7894L73.021 74.0909H76.8839V80.2926H74.5977L67.5157 91.5004V91.7106H83.4798V96.2699H61.787ZM74.7028 101V94.9034L74.8079 92.9194V74.0909H80.1424V101H74.7028Z" fill="white"/>
</svg>
