<svg width="128" height="128" viewBox="0 0 128 128" fill="none" xmlns="http://www.w3.org/2000/svg">
<rect width="128" height="128" rx="15" fill="black"/>
<path d="M43.7952 56L54.9504 33.9261V33.7422H41.9557V29.0909H60.8367V33.8079L49.6684 56H43.7952ZM74.7085 56.5913C72.4485 56.5825 70.5039 56.0263 68.8746 54.9226C67.2541 53.8189 66.0059 52.2203 65.13 50.1268C64.2628 48.0333 63.8336 45.5149 63.8423 42.5717C63.8423 39.6373 64.2759 37.1365 65.1431 35.0692C66.0191 33.002 67.2673 31.4297 68.8878 30.3523C70.517 29.2661 72.4573 28.723 74.7085 28.723C76.9596 28.723 78.8955 29.2661 80.516 30.3523C82.1452 31.4384 83.3978 33.0152 84.2738 35.0824C85.1497 37.1409 85.5833 39.6373 85.5746 42.5717C85.5746 45.5237 85.1366 48.0464 84.2607 50.1399C83.3935 52.2334 82.1496 53.832 80.5291 54.9357C78.9086 56.0394 76.9684 56.5913 74.7085 56.5913ZM74.7085 51.8743C76.2501 51.8743 77.4808 51.0991 78.4006 49.5487C79.3203 47.9982 79.7758 45.6726 79.767 42.5717C79.767 40.5308 79.5568 38.8314 79.1364 37.4737C78.7247 36.116 78.1378 35.0955 77.3757 34.4123C76.6224 33.729 75.7333 33.3874 74.7085 33.3874C73.1755 33.3874 71.9492 34.1539 71.0295 35.6868C70.1097 37.2197 69.6455 39.5147 69.6367 42.5717C69.6367 44.639 69.8426 46.3646 70.2543 47.7486C70.6747 49.1238 71.266 50.1574 72.0281 50.8494C72.7901 51.5327 73.6836 51.8743 74.7085 51.8743ZM44.7888 101L55.944 78.9261V78.7422H42.9494V74.0909H61.8304V78.8079L50.6621 101H44.7888ZM63.1542 96.2699V91.7894L74.3882 74.0909H78.2511V80.2926H75.9649L68.8829 91.5004V91.7106H84.847V96.2699H63.1542ZM76.07 101V94.9034L76.1751 92.9194V74.0909H81.5096V101H76.07Z" fill="white"/>
</svg>
