<svg width="128" height="128" viewBox="0 0 128 128" fill="none" xmlns="http://www.w3.org/2000/svg">
<rect width="128" height="128" rx="15" fill="black"/>
<path d="M51.7583 60.5913C49.4983 60.5825 47.5537 60.0263 45.9245 58.9226C44.3039 57.8189 43.0557 56.2203 42.1798 54.1268C41.3126 52.0333 40.8834 49.5149 40.8921 46.5717C40.8921 43.6373 41.3257 41.1365 42.1929 39.0692C43.0689 37.002 44.3171 35.4297 45.9376 34.3523C47.5669 33.2661 49.5071 32.723 51.7583 32.723C54.0094 32.723 55.9453 33.2661 57.5658 34.3523C59.195 35.4384 60.4477 37.0152 61.3236 39.0824C62.1995 41.1409 62.6331 43.6373 62.6244 46.5717C62.6244 49.5237 62.1864 52.0464 61.3105 54.1399C60.4433 56.2334 59.1994 57.832 57.5789 58.9357C55.9584 60.0394 54.0182 60.5913 51.7583 60.5913ZM51.7583 55.8743C53.2999 55.8743 54.5306 55.0991 55.4504 53.5487C56.3701 51.9982 56.8256 49.6726 56.8169 46.5717C56.8169 44.5308 56.6066 42.8314 56.1862 41.4737C55.7745 40.116 55.1876 39.0955 54.4255 38.4123C53.6722 37.729 52.7831 37.3874 51.7583 37.3874C50.2253 37.3874 48.999 38.1539 48.0793 39.6868C47.1595 41.2197 46.6953 43.5147 46.6865 46.5717C46.6865 48.639 46.8924 50.3646 47.3041 51.7486C47.7245 53.1238 48.3158 54.1574 49.0779 54.8494C49.8399 55.5327 50.7334 55.8743 51.7583 55.8743ZM77.2319 60.5913C74.9719 60.5825 73.0273 60.0263 71.3981 58.9226C69.7776 57.8189 68.5294 56.2203 67.6534 54.1268C66.7862 52.0333 66.357 49.5149 66.3658 46.5717C66.3658 43.6373 66.7994 41.1365 67.6665 39.0692C68.5425 37.002 69.7907 35.4297 71.4112 34.3523C73.0405 33.2661 74.9807 32.723 77.2319 32.723C79.4831 32.723 81.4189 33.2661 83.0394 34.3523C84.6687 35.4384 85.9213 37.0152 86.7972 39.0824C87.6732 41.1409 88.1068 43.6373 88.098 46.5717C88.098 49.5237 87.66 52.0464 86.7841 54.1399C85.9169 56.2334 84.6731 57.832 83.0526 58.9357C81.4321 60.0394 79.4918 60.5913 77.2319 60.5913ZM77.2319 55.8743C78.7736 55.8743 80.0043 55.0991 80.924 53.5487C81.8438 51.9982 82.2992 49.6726 82.2905 46.5717C82.2905 44.5308 82.0803 42.8314 81.6598 41.4737C81.2481 40.116 80.6612 39.0955 79.8991 38.4123C79.1458 37.729 78.2567 37.3874 77.2319 37.3874C75.699 37.3874 74.4727 38.1539 73.5529 39.6868C72.6332 41.2197 72.1689 43.5147 72.1602 46.5717C72.1602 48.639 72.366 50.3646 72.7777 51.7486C73.1982 53.1238 73.7894 54.1574 74.5515 54.8494C75.3136 55.5327 76.207 55.8743 77.2319 55.8743ZM51.957 105.591C49.697 105.583 47.7524 105.026 46.1232 103.923C44.5027 102.819 43.2545 101.22 42.3785 99.1268C41.5113 97.0333 41.0821 94.5149 41.0909 91.5717C41.0909 88.6373 41.5245 86.1365 42.3916 84.0692C43.2676 82.002 44.5158 80.4297 46.1363 79.3523C47.7656 78.2661 49.7058 77.723 51.957 77.723C54.2082 77.723 56.144 78.2661 57.7645 79.3523C59.3938 80.4384 60.6464 82.0152 61.5223 84.0824C62.3983 86.1409 62.8319 88.6373 62.8231 91.5717C62.8231 94.5237 62.3851 97.0464 61.5092 99.1399C60.642 101.233 59.3982 102.832 57.7777 103.936C56.1572 105.039 54.2169 105.591 51.957 105.591ZM51.957 100.874C53.4987 100.874 54.7294 100.099 55.6491 98.5487C56.5688 96.9982 57.0243 94.6726 57.0156 91.5717C57.0156 89.5308 56.8054 87.8314 56.3849 86.4737C55.9732 85.116 55.3863 84.0955 54.6242 83.4123C53.8709 82.729 52.9818 82.3874 51.957 82.3874C50.4241 82.3874 49.1978 83.1539 48.278 84.6868C47.3583 86.2197 46.894 88.5147 46.8853 91.5717C46.8853 93.639 47.0911 95.3646 47.5028 96.7486C47.9233 98.1238 48.5145 99.1574 49.2766 99.8494C50.0387 100.533 50.9321 100.874 51.957 100.874ZM66.4725 100.27V95.7894L77.7065 78.0909H81.5695V84.2926H79.2832L72.2012 95.5004V95.7106H88.1654V100.27H66.4725ZM79.3884 105V98.9034L79.4935 96.9194V78.0909H84.828V105H79.3884Z" fill="white"/>
</svg>
