<svg width="128" height="128" viewBox="0 0 128 128" fill="none" xmlns="http://www.w3.org/2000/svg">
<rect width="128" height="128" rx="15" fill="black"/>
<path d="M42.1044 60V55.9006L51.6829 47.0316C52.4976 46.2433 53.1808 45.5337 53.7326 44.9031C54.2933 44.2724 54.7181 43.6548 55.0071 43.0504C55.2962 42.4373 55.4407 41.7759 55.4407 41.0664C55.4407 40.2781 55.2612 39.5992 54.902 39.0298C54.5429 38.4517 54.0524 38.0094 53.4304 37.7028C52.8085 37.3874 52.1034 37.2298 51.315 37.2298C50.4916 37.2298 49.7734 37.3962 49.1602 37.729C48.547 38.0619 48.074 38.5393 47.7412 39.1612C47.4083 39.7831 47.2419 40.5233 47.2419 41.3817H41.8417C41.8417 39.6211 42.2402 38.0926 43.0373 36.7962C43.8344 35.4998 44.9513 34.4968 46.3878 33.7873C47.8244 33.0778 49.4799 32.723 51.3544 32.723C53.2815 32.723 54.959 33.0646 56.3868 33.7479C57.8233 34.4223 58.9401 35.3596 59.7373 36.5597C60.5344 37.7597 60.9329 39.1349 60.9329 40.6854C60.9329 41.7015 60.7315 42.7044 60.3285 43.6942C59.9343 44.6841 59.2292 45.7834 58.2131 46.9922C57.197 48.1922 55.7648 49.6332 53.9166 51.315L49.988 55.1648V55.3487H61.2877V60H42.1044ZM75.2382 60.3679C73.3812 60.3679 71.7257 60.0263 70.2716 59.343C68.8263 58.6598 67.6788 57.7182 66.8291 56.5181C65.9795 55.3181 65.5371 53.9428 65.5021 52.3924H71.0206C71.0819 53.4348 71.5198 54.2801 72.3345 54.9283C73.1491 55.5765 74.117 55.9006 75.2382 55.9006C76.1317 55.9006 76.9201 55.7035 77.6033 55.3093C78.2953 54.9064 78.834 54.3501 79.2194 53.6406C79.6136 52.9223 79.8107 52.099 79.8107 51.1705C79.8107 50.2244 79.6092 49.3923 79.2063 48.674C78.8121 47.9557 78.2646 47.3951 77.5639 46.9922C76.8631 46.5893 76.0616 46.3834 75.1594 46.3746C74.371 46.3746 73.6046 46.5367 72.86 46.8608C72.1242 47.1849 71.5505 47.6272 71.1388 48.1879L66.0802 47.2812L67.3547 33.0909H83.805V37.7422H72.0454L71.349 44.4826H71.5067C71.9797 43.8169 72.6936 43.265 73.6484 42.8271C74.6032 42.3891 75.6718 42.1701 76.8544 42.1701C78.4749 42.1701 79.9202 42.5511 81.1903 43.3132C82.4604 44.0753 83.4634 45.122 84.1992 46.4535C84.935 47.7762 85.2985 49.3003 85.2897 51.0259C85.2985 52.8391 84.878 54.4509 84.0284 55.8612C83.1875 57.2627 82.0093 58.3664 80.4939 59.1722C78.9873 59.9693 77.2354 60.3679 75.2382 60.3679ZM41.8154 105V100.901L51.3939 92.0316C52.2085 91.2433 52.8917 90.5337 53.4436 89.9031C54.0042 89.2724 54.429 88.6548 54.7181 88.0504C55.0071 87.4373 55.1517 86.7759 55.1517 86.0664C55.1517 85.2781 54.9721 84.5992 54.613 84.0298C54.2538 83.4517 53.7633 83.0094 53.1414 82.7028C52.5195 82.3874 51.8143 82.2298 51.026 82.2298C50.2026 82.2298 49.4843 82.3962 48.8711 82.729C48.258 83.0619 47.785 83.5393 47.4521 84.1612C47.1192 84.7831 46.9528 85.5233 46.9528 86.3817H41.5526C41.5526 84.6211 41.9512 83.0926 42.7483 81.7962C43.5454 80.4998 44.6622 79.4968 46.0988 78.7873C47.5353 78.0778 49.1909 77.723 51.0654 77.723C52.9925 77.723 54.6699 78.0646 56.0977 78.7479C57.5343 79.4223 58.6511 80.3596 59.4482 81.5597C60.2453 82.7597 60.6439 84.1349 60.6439 85.6854C60.6439 86.7015 60.4424 87.7044 60.0395 88.6942C59.6453 89.6841 58.9401 90.7834 57.9241 91.9922C56.908 93.1922 55.4758 94.6332 53.6275 96.315L49.6989 100.165V100.349H60.9986V105H41.8154ZM74.8572 77.723C76.2412 77.723 77.5726 77.9551 78.8515 78.4194C80.1392 78.8836 81.2867 79.6238 82.294 80.6399C83.3101 81.656 84.1116 83.005 84.6985 84.6868C85.2941 86.3598 85.5963 88.4139 85.6051 90.8491C85.6051 93.1353 85.3467 95.1763 84.8299 96.9719C84.3218 98.7589 83.5904 100.279 82.6356 101.531C81.6808 102.784 80.529 103.739 79.18 104.396C77.831 105.044 76.3244 105.368 74.6601 105.368C72.8644 105.368 71.279 105.022 69.9037 104.33C68.5285 103.629 67.4204 102.679 66.5795 101.479C65.7474 100.27 65.2437 98.9122 65.0685 97.4055H70.6789C70.8979 98.3866 71.3578 99.1487 72.0585 99.6918C72.7593 100.226 73.6265 100.493 74.6601 100.493C76.412 100.493 77.7434 99.7312 78.6544 98.207C79.5654 96.6741 80.0253 94.5762 80.034 91.9134H79.8501C79.4472 92.7017 78.9041 93.3806 78.2208 93.9499C77.5376 94.5105 76.7536 94.9441 75.8689 95.2507C74.993 95.5573 74.0601 95.7106 73.0703 95.7106C71.4848 95.7106 70.0701 95.3383 68.8263 94.5938C67.5825 93.8492 66.6014 92.8243 65.8831 91.5192C65.1648 90.214 64.8057 88.7249 64.8057 87.0518C64.7969 85.2474 65.213 83.64 66.0539 82.2298C66.8948 80.8195 68.0686 79.7158 69.5752 78.9187C71.0906 78.1128 72.8513 77.7143 74.8572 77.723ZM74.8966 82.1903C74.0119 82.1903 73.2236 82.4006 72.5316 82.821C71.8483 83.2415 71.3052 83.8065 70.9023 84.516C70.5081 85.2255 70.3154 86.0182 70.3242 86.8942C70.3242 87.7789 70.5169 88.576 70.9023 89.2855C71.2965 89.9863 71.8308 90.5469 72.5053 90.9673C73.1885 91.379 73.9681 91.5849 74.8441 91.5849C75.501 91.5849 76.1098 91.4622 76.6704 91.217C77.231 90.9717 77.7172 90.6345 78.1289 90.2053C78.5493 89.7673 78.8778 89.2636 79.1143 88.6942C79.3508 88.1249 79.4691 87.5205 79.4691 86.881C79.4603 86.0314 79.2588 85.2518 78.8647 84.5423C78.4705 83.8327 77.9274 83.2634 77.2354 82.8342C76.5434 82.4049 75.7638 82.1903 74.8966 82.1903Z" fill="white"/>
</svg>
