<svg width="128" height="128" viewBox="0 0 128 128" fill="none" xmlns="http://www.w3.org/2000/svg">
<rect width="128" height="128" rx="15" fill="black"/>
<path d="M51.3486 56.3679C49.4916 56.3679 47.836 56.0263 46.382 55.343C44.9367 54.6598 43.7892 53.7182 42.9395 52.5181C42.0898 51.3181 41.6475 49.9428 41.6124 48.3924H47.1309C47.1922 49.4348 47.6302 50.2801 48.4448 50.9283C49.2595 51.5765 50.2274 51.9006 51.3486 51.9006C52.2421 51.9006 53.0304 51.7035 53.7136 51.3093C54.4056 50.9064 54.9444 50.3501 55.3298 49.6406C55.7239 48.9223 55.921 48.099 55.921 47.1705C55.921 46.2244 55.7196 45.3923 55.3166 44.674C54.9225 43.9557 54.375 43.3951 53.6742 42.9922C52.9735 42.5893 52.172 42.3834 51.2698 42.3746C50.4814 42.3746 49.7149 42.5367 48.9704 42.8608C48.2346 43.1849 47.6609 43.6272 47.2492 44.1879L42.1906 43.2812L43.4651 29.0909H59.9154V33.7422H48.1558L47.4594 40.4826H47.6171C48.0901 39.8169 48.804 39.265 49.7587 38.8271C50.7135 38.3891 51.7822 38.1701 52.9647 38.1701C54.5852 38.1701 56.0305 38.5511 57.3006 39.3132C58.5708 40.0753 59.5737 41.122 60.3095 42.4535C61.0453 43.7762 61.4088 45.3003 61.4001 47.0259C61.4088 48.8391 60.9884 50.4509 60.1387 51.8612C59.2978 53.2627 58.1197 54.3664 56.6043 55.1722C55.0976 55.9693 53.3457 56.3679 51.3486 56.3679ZM75.9189 56.5913C73.659 56.5825 71.7144 56.0263 70.0851 54.9226C68.4646 53.8189 67.2164 52.2203 66.3404 50.1268C65.4732 48.0333 65.044 45.5149 65.0528 42.5717C65.0528 39.6373 65.4864 37.1365 66.3536 35.0692C67.2295 33.002 68.4777 31.4297 70.0982 30.3523C71.7275 29.2661 73.6677 28.723 75.9189 28.723C78.1701 28.723 80.1059 29.2661 81.7264 30.3523C83.3557 31.4384 84.6083 33.0152 85.4842 35.0824C86.3602 37.1409 86.7938 39.6373 86.785 42.5717C86.785 45.5237 86.3471 48.0464 85.4711 50.1399C84.6039 52.2334 83.3601 53.832 81.7396 54.9357C80.1191 56.0394 78.1788 56.5913 75.9189 56.5913ZM75.9189 51.8743C77.4606 51.8743 78.6913 51.0991 79.611 49.5487C80.5308 47.9982 80.9863 45.6726 80.9775 42.5717C80.9775 40.5308 80.7673 38.8314 80.3468 37.4737C79.9351 36.116 79.3482 35.0955 78.5862 34.4123C77.8328 33.729 76.9438 33.3874 75.9189 33.3874C74.386 33.3874 73.1597 34.1539 72.2399 35.6868C71.3202 37.2197 70.8559 39.5147 70.8472 42.5717C70.8472 44.639 71.053 46.3646 71.4647 47.7486C71.8852 49.1238 72.4764 50.1574 73.2385 50.8494C74.0006 51.5327 74.894 51.8743 75.9189 51.8743ZM51.5473 101.368C49.6903 101.368 48.0348 101.026 46.5807 100.343C45.1354 99.6598 43.9879 98.7182 43.1382 97.5181C42.2886 96.3181 41.8462 94.9428 41.8112 93.3924H47.3296C47.391 94.4348 47.8289 95.2801 48.6436 95.9283C49.4582 96.5765 50.4261 96.9006 51.5473 96.9006C52.4408 96.9006 53.2291 96.7035 53.9124 96.3093C54.6044 95.9064 55.1431 95.3501 55.5285 94.6406C55.9227 93.9223 56.1198 93.099 56.1198 92.1705C56.1198 91.2244 55.9183 90.3923 55.5154 89.674C55.1212 88.9557 54.5737 88.3951 53.873 87.9922C53.1722 87.5893 52.3707 87.3834 51.4685 87.3746C50.6801 87.3746 49.9137 87.5367 49.1691 87.8608C48.4333 88.1849 47.8596 88.6272 47.4479 89.1879L42.3893 88.2812L43.6638 74.0909H60.1141V78.7422H48.3545L47.6581 85.4826H47.8158C48.2888 84.8169 49.0027 84.265 49.9575 83.8271C50.9123 83.3891 51.9809 83.1701 53.1634 83.1701C54.7839 83.1701 56.2293 83.5511 57.4994 84.3132C58.7695 85.0753 59.7725 86.122 60.5083 87.4535C61.2441 88.7762 61.6076 90.3003 61.5988 92.0259C61.6076 93.8391 61.1871 95.4509 60.3374 96.8612C59.4965 98.2627 58.3184 99.3664 56.803 100.172C55.2964 100.969 53.5445 101.368 51.5473 101.368ZM65.1595 96.2699V91.7894L76.3936 74.0909H80.2565V80.2926H77.9703L70.8882 91.5004V91.7106H86.8524V96.2699H65.1595ZM78.0754 101V94.9034L78.1805 92.9194V74.0909H83.515V101H78.0754Z" fill="white"/>
</svg>
