<svg width="128" height="128" viewBox="0 0 128 128" fill="none" xmlns="http://www.w3.org/2000/svg">
<rect width="128" height="128" rx="15" fill="black"/>
<path d="M51.5088 60.3679C49.5467 60.3679 47.7992 60.0307 46.2663 59.3562C44.7421 58.6729 43.5377 57.7357 42.653 56.5444C41.7771 55.3443 41.326 53.9603 41.2997 52.3924H47.0284C47.0634 53.0494 47.278 53.6275 47.6722 54.1268C48.0751 54.6173 48.6094 54.9983 49.2752 55.2699C49.9409 55.5414 50.6898 55.6772 51.522 55.6772C52.3892 55.6772 53.1556 55.5239 53.8213 55.2173C54.4871 54.9107 55.0082 54.4859 55.3849 53.9428C55.7616 53.3997 55.9499 52.7734 55.9499 52.0639C55.9499 51.3456 55.7484 50.7106 55.3455 50.1587C54.9513 49.5981 54.3819 49.1602 53.6374 48.8448C52.9016 48.5295 52.0256 48.3718 51.0095 48.3718H48.5V44.1935H51.0095C51.868 44.1935 52.6257 44.0446 53.2826 43.7468C53.9483 43.449 54.4652 43.0373 54.8331 42.5117C55.201 41.9774 55.3849 41.3555 55.3849 40.646C55.3849 39.9715 55.2228 39.3802 54.8987 38.8722C54.5834 38.3553 54.1367 37.9524 53.5585 37.6634C52.9892 37.3743 52.3235 37.2298 51.5614 37.2298C50.7906 37.2298 50.0854 37.3699 49.446 37.6502C48.8065 37.9218 48.2941 38.3116 47.9087 38.8196C47.5233 39.3277 47.3174 39.9233 47.2911 40.6065H41.8384C41.8647 39.0561 42.307 37.6896 43.1654 36.5071C44.0239 35.3246 45.1801 34.4004 46.6342 33.7347C48.097 33.0602 49.7482 32.723 51.5877 32.723C53.4447 32.723 55.0696 33.0602 56.4623 33.7347C57.8551 34.4092 58.9369 35.3202 59.7077 36.4677C60.4873 37.6064 60.8727 38.8853 60.8639 40.3043C60.8727 41.811 60.4041 43.0679 59.4581 44.0753C58.5208 45.0826 57.2988 45.7221 55.7922 45.9936V46.2038C57.7719 46.4579 59.2785 47.1455 60.3121 48.2667C61.3545 49.3791 61.8713 50.7719 61.8625 52.445C61.8713 53.9779 61.4289 55.34 60.5355 56.5312C59.6508 57.7225 58.4288 58.6598 56.8696 59.343C55.3104 60.0263 53.5235 60.3679 51.5088 60.3679ZM75.7802 60.3679C73.9232 60.3679 72.2677 60.0263 70.8136 59.343C69.3683 58.6598 68.2208 57.7182 67.3711 56.5181C66.5215 55.3181 66.0791 53.9428 66.0441 52.3924H71.5625C71.6239 53.4348 72.0618 54.2801 72.8765 54.9283C73.6911 55.5765 74.659 55.9006 75.7802 55.9006C76.6737 55.9006 77.462 55.7035 78.1453 55.3093C78.8373 54.9064 79.376 54.3501 79.7614 53.6406C80.1556 52.9223 80.3527 52.099 80.3527 51.1705C80.3527 50.2244 80.1512 49.3923 79.7483 48.674C79.3541 47.9557 78.8066 47.3951 78.1059 46.9922C77.4051 46.5893 76.6036 46.3834 75.7014 46.3746C74.913 46.3746 74.1466 46.5367 73.402 46.8608C72.6662 47.1849 72.0925 47.6272 71.6808 48.1879L66.6222 47.2812L67.8967 33.0909H84.347V37.7422H72.5874L71.891 44.4826H72.0487C72.5217 43.8169 73.2356 43.265 74.1904 42.8271C75.1452 42.3891 76.2138 42.1701 77.3964 42.1701C79.0169 42.1701 80.4622 42.5511 81.7323 43.3132C83.0024 44.0753 84.0054 45.122 84.7412 46.4535C85.477 47.7762 85.8405 49.3003 85.8317 51.0259C85.8405 52.8391 85.42 54.4509 84.5704 55.8612C83.7294 57.2627 82.5513 58.3664 81.0359 59.1722C79.5293 59.9693 77.7774 60.3679 75.7802 60.3679ZM51.2198 105.368C49.2577 105.368 47.5101 105.031 45.9772 104.356C44.4531 103.673 43.2487 102.736 42.3639 101.544C41.488 100.344 41.0369 98.9603 41.0106 97.3924H46.7393C46.7743 98.0494 46.9889 98.6275 47.3831 99.1268C47.7861 99.6173 48.3204 99.9983 48.9861 100.27C49.6518 100.541 50.4008 100.677 51.2329 100.677C52.1001 100.677 52.8666 100.524 53.5323 100.217C54.198 99.9107 54.7192 99.4859 55.0958 98.9428C55.4725 98.3997 55.6608 97.7734 55.6608 97.0639C55.6608 96.3456 55.4594 95.7106 55.0564 95.1587C54.6622 94.5981 54.0929 94.1602 53.3483 93.8448C52.6125 93.5295 51.7366 93.3718 50.7205 93.3718H48.2109V89.1935H50.7205C51.5789 89.1935 52.3366 89.0446 52.9936 88.7468C53.6593 88.449 54.1761 88.0373 54.544 87.5117C54.9119 86.9774 55.0958 86.3555 55.0958 85.646C55.0958 84.9715 54.9338 84.3802 54.6097 83.8722C54.2943 83.3553 53.8476 82.9524 53.2695 82.6634C52.7001 82.3743 52.0344 82.2298 51.2723 82.2298C50.5015 82.2298 49.7964 82.3699 49.1569 82.6502C48.5175 82.9218 48.005 83.3116 47.6196 83.8196C47.2342 84.3277 47.0284 84.9233 47.0021 85.6065H41.5493C41.5756 84.0561 42.0179 82.6896 42.8764 81.5071C43.7348 80.3246 44.8911 79.4004 46.3451 78.7347C47.808 78.0602 49.4591 77.723 51.2986 77.723C53.1556 77.723 54.7805 78.0602 56.1733 78.7347C57.566 79.4092 58.6478 80.3202 59.4186 81.4677C60.1982 82.6064 60.5836 83.8853 60.5749 85.3043C60.5836 86.811 60.115 88.0679 59.169 89.0753C58.2317 90.0826 57.0098 90.7221 55.5032 90.9936V91.2038C57.4828 91.4579 58.9894 92.1455 60.023 93.2667C61.0654 94.3791 61.5822 95.7719 61.5735 97.445C61.5822 98.9779 61.1399 100.34 60.2464 101.531C59.3617 102.723 58.1398 103.66 56.5806 104.343C55.0214 105.026 53.2344 105.368 51.2198 105.368ZM75.3992 77.723C76.7832 77.723 78.1146 77.9551 79.3935 78.4194C80.6812 78.8836 81.8286 79.6238 82.836 80.6399C83.8521 81.656 84.6536 83.005 85.2405 84.6868C85.8361 86.3598 86.1383 88.4139 86.1471 90.8491C86.1471 93.1353 85.8887 95.1763 85.3718 96.9719C84.8638 98.7589 84.1324 100.279 83.1776 101.531C82.2228 102.784 81.0709 103.739 79.722 104.396C78.373 105.044 76.8664 105.368 75.2021 105.368C73.4064 105.368 71.8209 105.022 70.4457 104.33C69.0705 103.629 67.9624 102.679 67.1215 101.479C66.2893 100.27 65.7857 98.9122 65.6105 97.4055H71.2209C71.4399 98.3866 71.8998 99.1487 72.6005 99.6918C73.3013 100.226 74.1685 100.493 75.2021 100.493C76.954 100.493 78.2854 99.7312 79.1964 98.207C80.1074 96.6741 80.5673 94.5762 80.576 91.9134H80.3921C79.9892 92.7017 79.4461 93.3806 78.7628 93.9499C78.0796 94.5105 77.2956 94.9441 76.4109 95.2507C75.535 95.5573 74.6021 95.7106 73.6123 95.7106C72.0268 95.7106 70.6121 95.3383 69.3683 94.5938C68.1245 93.8492 67.1434 92.8243 66.4251 91.5192C65.7068 90.214 65.3477 88.7249 65.3477 87.0518C65.3389 85.2474 65.755 83.64 66.5959 82.2298C67.4368 80.8195 68.6106 79.7158 70.1172 78.9187C71.6326 78.1128 73.3933 77.7143 75.3992 77.723ZM75.4386 82.1903C74.5539 82.1903 73.7656 82.4006 73.0736 82.821C72.3903 83.2415 71.8472 83.8065 71.4443 84.516C71.0501 85.2255 70.8574 86.0182 70.8662 86.8942C70.8662 87.7789 71.0589 88.576 71.4443 89.2855C71.8385 89.9863 72.3728 90.5469 73.0473 90.9673C73.7305 91.379 74.5101 91.5849 75.3861 91.5849C76.043 91.5849 76.6518 91.4622 77.2124 91.217C77.773 90.9717 78.2592 90.6345 78.6709 90.2053C79.0913 89.7673 79.4198 89.2636 79.6563 88.6942C79.8928 88.1249 80.0111 87.5205 80.0111 86.881C80.0023 86.0314 79.8008 85.2518 79.4067 84.5423C79.0125 83.8327 78.4694 83.2634 77.7774 82.8342C77.0854 82.4049 76.3058 82.1903 75.4386 82.1903Z" fill="white"/>
</svg>
