<svg width="128" height="128" viewBox="0 0 128 128" fill="none" xmlns="http://www.w3.org/2000/svg">
<rect width="128" height="128" rx="15" fill="black"/>
<path d="M51.8718 60.3679C50.4878 60.3591 49.152 60.127 47.8643 59.6715C46.5855 59.216 45.438 58.4759 44.4219 57.451C43.4058 56.4261 42.5999 55.0684 42.0043 53.3778C41.4174 51.6873 41.1239 49.6113 41.1239 47.1499C41.1327 44.8899 41.3911 42.8709 41.8991 41.0927C42.416 39.3058 43.1518 37.7904 44.1065 36.5465C45.0701 35.3027 46.2219 34.3567 47.5621 33.7084C48.9023 33.0515 50.4046 32.723 52.0689 32.723C53.8646 32.723 55.45 33.0734 56.8253 33.7741C58.2005 34.4661 59.3042 35.4078 60.1364 36.5991C60.9773 37.7904 61.4853 39.1262 61.6605 40.6065H56.0501C55.8311 39.6693 55.3712 38.9335 54.6705 38.3991C53.9697 37.8648 53.1025 37.5977 52.0689 37.5977C50.317 37.5977 48.9856 38.3597 48.0746 39.8839C47.1723 41.408 46.7125 43.4796 46.695 46.0987H46.8789C47.2818 45.3016 47.8249 44.6228 48.5082 44.0621C49.2002 43.4928 49.9841 43.0592 50.8601 42.7614C51.7448 42.4548 52.6777 42.3015 53.6587 42.3015C55.253 42.3015 56.672 42.6781 57.9158 43.4315C59.1597 44.176 60.1407 45.2009 60.859 46.506C61.5773 47.8112 61.9364 49.3047 61.9364 50.9865C61.9364 52.8085 61.5116 54.429 60.6619 55.848C59.821 57.267 58.6429 58.3795 57.1275 59.1854C55.6209 59.9825 53.869 60.3767 51.8718 60.3679ZM51.8455 55.9006C52.7215 55.9006 53.5054 55.6903 54.1974 55.2699C54.8894 54.8494 55.4325 54.2801 55.8267 53.5618C56.2209 52.8435 56.418 52.0376 56.418 51.1442C56.418 50.2507 56.2209 49.4492 55.8267 48.7397C55.4413 48.0302 54.907 47.4652 54.2237 47.0447C53.5405 46.6243 52.7609 46.4141 51.8849 46.4141C51.228 46.4141 50.6192 46.5367 50.0586 46.782C49.5067 47.0272 49.0206 47.3688 48.6001 47.8068C48.1884 48.2448 47.8643 48.7528 47.6278 49.331C47.3913 49.9003 47.2731 50.5091 47.2731 51.1573C47.2731 52.0245 47.4702 52.8172 47.8643 53.5355C48.2673 54.2538 48.8104 54.8275 49.4936 55.2567C50.1856 55.686 50.9696 55.9006 51.8455 55.9006ZM75.7983 60.3679C73.9413 60.3679 72.2857 60.0263 70.8317 59.343C69.3864 58.6598 68.2389 57.7182 67.3892 56.5181C66.5395 55.3181 66.0972 53.9428 66.0621 52.3924H71.5806C71.6419 53.4348 72.0799 54.2801 72.8945 54.9283C73.7092 55.5765 74.6771 55.9006 75.7983 55.9006C76.6918 55.9006 77.4801 55.7035 78.1634 55.3093C78.8554 54.9064 79.3941 54.3501 79.7795 53.6406C80.1737 52.9223 80.3707 52.099 80.3707 51.1705C80.3707 50.2244 80.1693 49.3923 79.7663 48.674C79.3722 47.9557 78.8247 47.3951 78.1239 46.9922C77.4232 46.5893 76.6217 46.3834 75.7195 46.3746C74.9311 46.3746 74.1647 46.5367 73.4201 46.8608C72.6843 47.1849 72.1106 47.6272 71.6989 48.1879L66.6403 47.2812L67.9148 33.0909H84.3651V37.7422H72.6055L71.9091 44.4826H72.0668C72.5398 43.8169 73.2537 43.265 74.2085 42.8271C75.1632 42.3891 76.2319 42.1701 77.4144 42.1701C79.0349 42.1701 80.4802 42.5511 81.7504 43.3132C83.0205 44.0753 84.0234 45.122 84.7592 46.4535C85.495 47.7762 85.8585 49.3003 85.8498 51.0259C85.8585 52.8391 85.4381 54.4509 84.5884 55.8612C83.7475 57.2627 82.5694 58.3664 81.054 59.1722C79.5473 59.9693 77.7955 60.3679 75.7983 60.3679ZM51.5827 105.368C50.1987 105.359 48.8629 105.127 47.5753 104.672C46.2964 104.216 45.1489 103.476 44.1328 102.451C43.1167 101.426 42.3108 100.068 41.7152 98.3778C41.1283 96.6873 40.8349 94.6113 40.8349 92.1499C40.8436 89.8899 41.102 87.8709 41.6101 86.0927C42.1269 84.3058 42.8627 82.7904 43.8175 81.5465C44.781 80.3027 45.9329 79.3567 47.2731 78.7084C48.6133 78.0515 50.1155 77.723 51.7798 77.723C53.5755 77.723 55.161 78.0734 56.5362 78.7741C57.9115 79.4661 59.0152 80.4078 59.8473 81.5991C60.6882 82.7904 61.1963 84.1262 61.3715 85.6065H55.761C55.542 84.6693 55.0822 83.9335 54.3814 83.3991C53.6806 82.8648 52.8134 82.5977 51.7798 82.5977C50.0279 82.5977 48.6965 83.3597 47.7855 84.8839C46.8833 86.408 46.4234 88.4796 46.4059 91.0987H46.5898C46.9928 90.3016 47.5359 89.6228 48.2191 89.0621C48.9111 88.4928 49.6951 88.0592 50.571 87.7614C51.4557 87.4548 52.3886 87.3015 53.3697 87.3015C54.9639 87.3015 56.3829 87.6781 57.6268 88.4315C58.8706 89.176 59.8517 90.2009 60.57 91.506C61.2882 92.8112 61.6474 94.3047 61.6474 95.9865C61.6474 97.8085 61.2225 99.429 60.3729 100.848C59.532 102.267 58.3538 103.379 56.8384 104.185C55.3318 104.982 53.5799 105.377 51.5827 105.368ZM51.5565 100.901C52.4324 100.901 53.2164 100.69 53.9084 100.27C54.6004 99.8494 55.1435 99.2801 55.5376 98.5618C55.9318 97.8435 56.1289 97.0376 56.1289 96.1442C56.1289 95.2507 55.9318 94.4492 55.5376 93.7397C55.1522 93.0302 54.6179 92.4652 53.9347 92.0447C53.2514 91.6243 52.4718 91.4141 51.5959 91.4141C50.9389 91.4141 50.3301 91.5367 49.7695 91.782C49.2177 92.0272 48.7315 92.3688 48.3111 92.8068C47.8994 93.2448 47.5753 93.7528 47.3388 94.331C47.1023 94.9003 46.984 95.5091 46.984 96.1573C46.984 97.0245 47.1811 97.8172 47.5753 98.5355C47.9782 99.2538 48.5213 99.8275 49.2045 100.257C49.8965 100.686 50.6805 100.901 51.5565 100.901ZM75.4173 77.723C76.8013 77.723 78.1327 77.9551 79.4116 78.4194C80.6992 78.8836 81.8467 79.6238 82.854 80.6399C83.8701 81.656 84.6716 83.005 85.2585 84.6868C85.8542 86.3598 86.1564 88.4139 86.1651 90.8491C86.1651 93.1353 85.9067 95.1763 85.3899 96.9719C84.8819 98.7589 84.1505 100.279 83.1957 101.531C82.2409 102.784 81.089 103.739 79.7401 104.396C78.3911 105.044 76.8845 105.368 75.2202 105.368C73.4245 105.368 71.839 105.022 70.4638 104.33C69.0885 103.629 67.9805 102.679 67.1396 101.479C66.3074 100.27 65.8037 98.9122 65.6286 97.4055H71.239C71.458 98.3866 71.9179 99.1487 72.6186 99.6918C73.3194 100.226 74.1866 100.493 75.2202 100.493C76.9721 100.493 78.3035 99.7312 79.2145 98.207C80.1255 96.6741 80.5853 94.5762 80.5941 91.9134H80.4102C80.0072 92.7017 79.4641 93.3806 78.7809 93.9499C78.0977 94.5105 77.3137 94.9441 76.429 95.2507C75.553 95.5573 74.6201 95.7106 73.6303 95.7106C72.0449 95.7106 70.6302 95.3383 69.3864 94.5938C68.1425 93.8492 67.1615 92.8243 66.4432 91.5192C65.7249 90.214 65.3658 88.7249 65.3658 87.0518C65.357 85.2474 65.7731 83.64 66.614 82.2298C67.4549 80.8195 68.6287 79.7158 70.1353 78.9187C71.6507 78.1128 73.4113 77.7143 75.4173 77.723ZM75.4567 82.1903C74.572 82.1903 73.7836 82.4006 73.0916 82.821C72.4084 83.2415 71.8653 83.8065 71.4624 84.516C71.0682 85.2255 70.8755 86.0182 70.8842 86.8942C70.8842 87.7789 71.0769 88.576 71.4624 89.2855C71.8565 89.9863 72.3909 90.5469 73.0653 90.9673C73.7486 91.379 74.5282 91.5849 75.4041 91.5849C76.0611 91.5849 76.6699 91.4622 77.2305 91.217C77.7911 90.9717 78.2772 90.6345 78.6889 90.2053C79.1094 89.7673 79.4379 89.2636 79.6744 88.6942C79.9109 88.1249 80.0291 87.5205 80.0291 86.881C80.0204 86.0314 79.8189 85.2518 79.4247 84.5423C79.0305 83.8327 78.4875 83.2634 77.7955 82.8342C77.1035 82.4049 76.3239 82.1903 75.4567 82.1903Z" fill="white"/>
</svg>
