<svg width="128" height="128" viewBox="0 0 128 128" fill="none" xmlns="http://www.w3.org/2000/svg">
<rect width="128" height="128" rx="15" fill="black"/>
<path d="M51.5712 60.5913C49.3113 60.5825 47.3667 60.0263 45.7374 58.9226C44.1169 57.8189 42.8687 56.2203 41.9928 54.1268C41.1256 52.0333 40.6964 49.5149 40.7051 46.5717C40.7051 43.6373 41.1387 41.1365 42.0059 39.0692C42.8819 37.002 44.1301 35.4297 45.7506 34.3523C47.3798 33.2661 49.3201 32.723 51.5712 32.723C53.8224 32.723 55.7583 33.2661 57.3788 34.3523C59.008 35.4384 60.2606 37.0152 61.1366 39.0824C62.0125 41.1409 62.4461 43.6373 62.4374 46.5717C62.4374 49.5237 61.9994 52.0464 61.1234 54.1399C60.2563 56.2334 59.0124 57.832 57.3919 58.9357C55.7714 60.0394 53.8312 60.5913 51.5712 60.5913ZM51.5712 55.8743C53.1129 55.8743 54.3436 55.0991 55.2634 53.5487C56.1831 51.9982 56.6386 49.6726 56.6298 46.5717C56.6298 44.5308 56.4196 42.8314 55.9992 41.4737C55.5875 40.116 55.0006 39.0955 54.2385 38.4123C53.4852 37.729 52.5961 37.3874 51.5712 37.3874C50.0383 37.3874 48.812 38.1539 47.8923 39.6868C46.9725 41.2197 46.5083 43.5147 46.4995 46.5717C46.4995 48.639 46.7054 50.3646 47.1171 51.7486C47.5375 53.1238 48.1288 54.1574 48.8908 54.8494C49.6529 55.5327 50.5464 55.8743 51.5712 55.8743ZM76.3222 60.3679C74.4652 60.3679 72.8097 60.0263 71.3556 59.343C69.9103 58.6598 68.7628 57.7182 67.9131 56.5181C67.0635 55.3181 66.6211 53.9428 66.5861 52.3924H72.1045C72.1659 53.4348 72.6038 54.2801 73.4185 54.9283C74.2331 55.5765 75.201 55.9006 76.3222 55.9006C77.2157 55.9006 78.004 55.7035 78.6873 55.3093C79.3793 54.9064 79.918 54.3501 80.3034 53.6406C80.6976 52.9223 80.8947 52.099 80.8947 51.1705C80.8947 50.2244 80.6932 49.3923 80.2903 48.674C79.8961 47.9557 79.3486 47.3951 78.6479 46.9922C77.9471 46.5893 77.1456 46.3834 76.2434 46.3746C75.455 46.3746 74.6886 46.5367 73.944 46.8608C73.2082 47.1849 72.6345 47.6272 72.2228 48.1879L67.1642 47.2812L68.4387 33.0909H84.889V37.7422H73.1294L72.433 44.4826H72.5907C73.0637 43.8169 73.7776 43.265 74.7324 42.8271C75.6872 42.3891 76.7558 42.1701 77.9383 42.1701C79.5588 42.1701 81.0042 42.5511 82.2743 43.3132C83.5444 44.0753 84.5474 45.122 85.2832 46.4535C86.019 47.7762 86.3825 49.3003 86.3737 51.0259C86.3825 52.8391 85.962 54.4509 85.1123 55.8612C84.2714 57.2627 83.0933 58.3664 81.5779 59.1722C80.0713 59.9693 78.3194 60.3679 76.3222 60.3679ZM51.2822 105.591C49.0222 105.583 47.0776 105.026 45.4484 103.923C43.8279 102.819 42.5796 101.22 41.7037 99.1268C40.8365 97.0333 40.4073 94.5149 40.4161 91.5717C40.4161 88.6373 40.8497 86.1365 41.7168 84.0692C42.5928 82.002 43.841 80.4297 45.4615 79.3523C47.0908 78.2661 49.031 77.723 51.2822 77.723C53.5334 77.723 55.4692 78.2661 57.0897 79.3523C58.719 80.4384 59.9716 82.0152 60.8475 84.0824C61.7235 86.1409 62.1571 88.6373 62.1483 91.5717C62.1483 94.5237 61.7103 97.0464 60.8344 99.1399C59.9672 101.233 58.7234 102.832 57.1029 103.936C55.4823 105.039 53.5421 105.591 51.2822 105.591ZM51.2822 100.874C52.8238 100.874 54.0546 100.099 54.9743 98.5487C55.894 96.9982 56.3495 94.6726 56.3408 91.5717C56.3408 89.5308 56.1305 87.8314 55.7101 86.4737C55.2984 85.116 54.7115 84.0955 53.9494 83.4123C53.1961 82.729 52.307 82.3874 51.2822 82.3874C49.7493 82.3874 48.5229 83.1539 47.6032 84.6868C46.6835 86.2197 46.2192 88.5147 46.2104 91.5717C46.2104 93.639 46.4163 95.3646 46.828 96.7486C47.2484 98.1238 47.8397 99.1574 48.6018 99.8494C49.3639 100.533 50.2573 100.874 51.2822 100.874ZM75.9412 77.723C77.3252 77.723 78.6566 77.9551 79.9355 78.4194C81.2231 78.8836 82.3706 79.6238 83.378 80.6399C84.3941 81.656 85.1956 83.005 85.7824 84.6868C86.3781 86.3598 86.6803 88.4139 86.6891 90.8491C86.6891 93.1353 86.4307 95.1763 85.9138 96.9719C85.4058 98.7589 84.6744 100.279 83.7196 101.531C82.7648 102.784 81.6129 103.739 80.264 104.396C78.915 105.044 77.4084 105.368 75.7441 105.368C73.9484 105.368 72.3629 105.022 70.9877 104.33C69.6125 103.629 68.5044 102.679 67.6635 101.479C66.8313 100.27 66.3277 98.9122 66.1525 97.4055H71.7629C71.9819 98.3866 72.4418 99.1487 73.1425 99.6918C73.8433 100.226 74.7105 100.493 75.7441 100.493C77.496 100.493 78.8274 99.7312 79.7384 98.207C80.6494 96.6741 81.1093 94.5762 81.118 91.9134H80.9341C80.5311 92.7017 79.9881 93.3806 79.3048 93.9499C78.6216 94.5105 77.8376 94.9441 76.9529 95.2507C76.077 95.5573 75.1441 95.7106 74.1543 95.7106C72.5688 95.7106 71.1541 95.3383 69.9103 94.5938C68.6664 93.8492 67.6854 92.8243 66.9671 91.5192C66.2488 90.214 65.8897 88.7249 65.8897 87.0518C65.8809 85.2474 66.297 83.64 67.1379 82.2298C67.9788 80.8195 69.1526 79.7158 70.6592 78.9187C72.1746 78.1128 73.9353 77.7143 75.9412 77.723ZM75.9806 82.1903C75.0959 82.1903 74.3075 82.4006 73.6155 82.821C72.9323 83.2415 72.3892 83.8065 71.9863 84.516C71.5921 85.2255 71.3994 86.0182 71.4082 86.8942C71.4082 87.7789 71.6009 88.576 71.9863 89.2855C72.3805 89.9863 72.9148 90.5469 73.5893 90.9673C74.2725 91.379 75.0521 91.5849 75.928 91.5849C76.585 91.5849 77.1938 91.4622 77.7544 91.217C78.315 90.9717 78.8012 90.6345 79.2128 90.2053C79.6333 89.7673 79.9618 89.2636 80.1983 88.6942C80.4348 88.1249 80.553 87.5205 80.553 86.881C80.5443 86.0314 80.3428 85.2518 79.9486 84.5423C79.5545 83.8327 79.0114 83.2634 78.3194 82.8342C77.6274 82.4049 76.8478 82.1903 75.9806 82.1903Z" fill="white"/>
</svg>
