<svg width="128" height="128" viewBox="0 0 128 128" fill="none" xmlns="http://www.w3.org/2000/svg">
<rect width="128" height="128" rx="15" fill="black"/>
<path d="M41.7915 56V51.9006L51.3699 43.0316C52.1846 42.2433 52.8678 41.5337 53.4197 40.9031C53.9803 40.2724 54.4051 39.6548 54.6942 39.0504C54.9832 38.4373 55.1278 37.7759 55.1278 37.0664C55.1278 36.2781 54.9482 35.5992 54.589 35.0298C54.2299 34.4517 53.7394 34.0094 53.1175 33.7028C52.4955 33.3874 51.7904 33.2298 51.002 33.2298C50.1787 33.2298 49.4604 33.3962 48.8472 33.729C48.234 34.0619 47.761 34.5393 47.4282 35.1612C47.0953 35.7831 46.9289 36.5233 46.9289 37.3817H41.5287C41.5287 35.6211 41.9272 34.0926 42.7243 32.7962C43.5215 31.4998 44.6383 30.4968 46.0748 29.7873C47.5114 29.0778 49.1669 28.723 51.0415 28.723C52.9685 28.723 54.646 29.0646 56.0738 29.7479C57.5103 30.4223 58.6272 31.3596 59.4243 32.5597C60.2214 33.7597 60.6199 35.1349 60.6199 36.6854C60.6199 37.7015 60.4185 38.7044 60.0155 39.6942C59.6214 40.6841 58.9162 41.7834 57.9001 42.9922C56.884 44.1922 55.4519 45.6332 53.6036 47.315L49.675 51.1648V51.3487H60.9747V56H41.7915ZM75.6479 56.5913C73.388 56.5825 71.4434 56.0263 69.8141 54.9226C68.1936 53.8189 66.9454 52.2203 66.0694 50.1268C65.2022 48.0333 64.773 45.5149 64.7818 42.5717C64.7818 39.6373 65.2154 37.1365 66.0826 35.0692C66.9585 33.002 68.2067 31.4297 69.8272 30.3523C71.4565 29.2661 73.3967 28.723 75.6479 28.723C77.8991 28.723 79.8349 29.2661 81.4554 30.3523C83.0847 31.4384 84.3373 33.0152 85.2132 35.0824C86.0892 37.1409 86.5228 39.6373 86.514 42.5717C86.514 45.5237 86.0761 48.0464 85.2001 50.1399C84.3329 52.2334 83.0891 53.832 81.4686 54.9357C79.8481 56.0394 77.9078 56.5913 75.6479 56.5913ZM75.6479 51.8743C77.1896 51.8743 78.4203 51.0991 79.34 49.5487C80.2598 47.9982 80.7153 45.6726 80.7065 42.5717C80.7065 40.5308 80.4963 38.8314 80.0758 37.4737C79.6641 36.116 79.0772 35.0955 78.3152 34.4123C77.5618 33.729 76.6728 33.3874 75.6479 33.3874C74.115 33.3874 72.8887 34.1539 71.9689 35.6868C71.0492 37.2197 70.5849 39.5147 70.5762 42.5717C70.5762 44.639 70.782 46.3646 71.1937 47.7486C71.6142 49.1238 72.2054 50.1574 72.9675 50.8494C73.7296 51.5327 74.623 51.8743 75.6479 51.8743ZM42.2793 101V96.9006L51.8577 88.0316C52.6724 87.2433 53.3556 86.5337 53.9074 85.9031C54.4681 85.2724 54.8929 84.6548 55.182 84.0504C55.471 83.4373 55.6155 82.7759 55.6155 82.0664C55.6155 81.2781 55.436 80.5992 55.0768 80.0298C54.7177 79.4517 54.2272 79.0094 53.6052 78.7028C52.9833 78.3874 52.2782 78.2298 51.4898 78.2298C50.6664 78.2298 49.9482 78.3962 49.335 78.729C48.7218 79.0619 48.2488 79.5393 47.916 80.1612C47.5831 80.7831 47.4167 81.5233 47.4167 82.3817H42.0165C42.0165 80.6211 42.415 79.0926 43.2121 77.7962C44.0092 76.4998 45.1261 75.4968 46.5626 74.7873C47.9992 74.0778 49.6547 73.723 51.5293 73.723C53.4563 73.723 55.1338 74.0646 56.5616 74.7479C57.9981 75.4223 59.115 76.3596 59.9121 77.5597C60.7092 78.7597 61.1077 80.1349 61.1077 81.6854C61.1077 82.7015 60.9063 83.7044 60.5033 84.6942C60.1092 85.6841 59.404 86.7834 58.3879 87.9922C57.3718 89.1922 55.9396 90.6332 54.0914 92.315L50.1628 96.1648V96.3487H61.4625V101H42.2793ZM64.5995 96.2699V91.7894L75.8335 74.0909H79.6964V80.2926H77.4102L70.3282 91.5004V91.7106H86.2923V96.2699H64.5995ZM77.5153 101V94.9034L77.6204 92.9194V74.0909H82.9549V101H77.5153Z" fill="white"/>
</svg>
