<svg id="BeBold" xmlns="http://www.w3.org/2000/svg" viewBox="0 0 14 14"><defs><style>.cls-1{fill:#444a58;}</style></defs><g id="Analytics"><path class="cls-1" d="M0,1.492V12.509a1.227,1.227,0,0,0,1.212,1.222H1.7a1.222,1.222,0,0,0,1.22-1.222V1.492A1.222,1.222,0,0,0,1.7.27H1.211A1.227,1.227,0,0,0,0,1.492Z"/><path class="cls-1" d="M5.538,7.917v4.592A1.227,1.227,0,0,0,6.75,13.731h.492a1.222,1.222,0,0,0,1.22-1.222V7.917A1.222,1.222,0,0,0,7.242,6.7H6.749A1.227,1.227,0,0,0,5.538,7.917Z"/><path class="cls-1" d="M11.076,4.428v8.081a1.227,1.227,0,0,0,1.212,1.222h.492A1.222,1.222,0,0,0,14,12.509V4.428a1.222,1.222,0,0,0-1.22-1.221h-.493A1.226,1.226,0,0,0,11.076,4.428Z"/></g></svg>