<svg id="BeBold" xmlns="http://www.w3.org/2000/svg" viewBox="0 0 14 14"><defs><style>.cls-1{fill:#444a58;}</style></defs><g id="Bank"><path class="cls-1" d="M13.737,3.309,8.1.277a2.328,2.328,0,0,0-2.2,0L.263,3.309A.5.5,0,0,0,0,3.749v.6a.5.5,0,0,0,.5.5h13a.5.5,0,0,0,.5-.5v-.6A.5.5,0,0,0,13.737,3.309Z"/><path class="cls-1" d="M7,6.076H7a1,1,0,0,1,1,1v2.5a1,1,0,0,1-1,1H7a1,1,0,0,1-1-1v-2.5A1,1,0,0,1,7,6.076Z"/><path class="cls-1" d="M11.564,6.076h0a1,1,0,0,1,1,1v2.5a1,1,0,0,1-1,1h0a1,1,0,0,1-1-1v-2.5A1,1,0,0,1,11.564,6.076Z"/><path class="cls-1" d="M2.434,6.076h0a1,1,0,0,1,1,1v2.5a1,1,0,0,1-1,1h0a1,1,0,0,1-1-1v-2.5a1,1,0,0,1,1-1Z"/><rect class="cls-1" y="11.908" width="14" height="2.092" rx="1.046"/></g></svg>