<svg id="BeBold" xmlns="http://www.w3.org/2000/svg" viewBox="0 0 14 14"><defs><style>.cls-1{fill:#444a58;}</style></defs><path id="Bug" class="cls-1" d="M13.37,6.286H11.748a5.649,5.649,0,0,0-.525-1.794A4.522,4.522,0,0,0,12.936.94V.714a.715.715,0,0,0-1.429,0V.94A3.113,3.113,0,0,1,10.432,3.3,4.875,4.875,0,0,0,9.5,2.473a.3.3,0,0,0,0-.044,2.429,2.429,0,0,0-4.858,0,.315.315,0,0,0,0,.044,4.878,4.878,0,0,0-.928.823A3.11,3.11,0,0,1,2.647.94V.714a.714.714,0,0,0-1.428,0V.94A4.521,4.521,0,0,0,2.931,4.492a5.675,5.675,0,0,0-.525,1.794H.8a.714.714,0,1,0,0,1.428H2.406a5.661,5.661,0,0,0,.525,1.793A4.518,4.518,0,0,0,1.219,13.06v.226a.714.714,0,0,0,1.428,0V13.06A3.112,3.112,0,0,1,3.723,10.7a4.486,4.486,0,0,0,3.354,1.583A4.49,4.49,0,0,0,10.432,10.7a3.115,3.115,0,0,1,1.075,2.357v.226a.715.715,0,0,0,1.429,0V13.06a4.519,4.519,0,0,0-1.713-3.553,5.636,5.636,0,0,0,.525-1.793H13.37a.714.714,0,1,0,0-1.428Z"/></svg>