<svg id="BeBold" xmlns="http://www.w3.org/2000/svg" viewBox="0 0 14 14"><defs><style>.cls-1{fill:#444a58;}</style></defs><g id="Coin-sack"><path class="cls-1" d="M7,0C3.486,0,.835,1.262.835,2.936S3.486,5.871,7,5.871s6.165-1.262,6.165-2.935S10.514,0,7,0Z"/><path class="cls-1" d="M7,7.734A11.235,11.235,0,0,1,.835,6.194V7C.835,8.674,3.486,9.936,7,9.936S13.165,8.674,13.165,7V6.194A11.235,11.235,0,0,1,7,7.734Z"/><path class="cls-1" d="M7,11.8a11.235,11.235,0,0,1-6.165-1.54v.806C.835,12.738,3.486,14,7,14s6.165-1.262,6.165-2.936v-.806A11.235,11.235,0,0,1,7,11.8Z"/></g></svg>