<svg id="BeBold" xmlns="http://www.w3.org/2000/svg" viewBox="0 0 14 14"><defs><style>.cls-1{fill:#444a58;}</style></defs><path id="Dollar-1" class="cls-1" d="M9.56,5.914H8.046V3.862h2.977a1.068,1.068,0,0,0,1.046-1.086A1.068,1.068,0,0,0,11.023,1.69H8.046v-.6a1.047,1.047,0,1,0-2.093,0v.6H4.475a3.28,3.28,0,0,0-3.348,3.2,3.28,3.28,0,0,0,3.348,3.2H5.953v2.052H2.978a1.087,1.087,0,0,0,0,2.172H5.953v.6a1.047,1.047,0,1,0,2.093,0v-.6H9.56a3.261,3.261,0,0,0,3.313-3.2A3.261,3.261,0,0,0,9.56,5.914Zm1.222,3.2A1.152,1.152,0,0,1,9.56,10.138H8.046V8.086H9.56A1.152,1.152,0,0,1,10.782,9.112ZM4.475,3.862H5.953V5.914H4.475A1.175,1.175,0,0,1,3.218,4.888,1.175,1.175,0,0,1,4.475,3.862Z"/></svg>