<svg id="BeBold" xmlns="http://www.w3.org/2000/svg" viewBox="0 0 14 14"><defs><style>.cls-1{fill:#444a58;}</style></defs><path id="Dollar-2" class="cls-1" d="M3.676,9.668c.394.154.77.324,1.161.45a4.708,4.708,0,0,0,2.233.221,2.012,2.012,0,0,0,.615-.211.92.92,0,0,0,.227-1.5,2.242,2.242,0,0,0-.825-.524c-.516-.206-1.041-.39-1.555-.6a4.542,4.542,0,0,1-1.438-.888,2.6,2.6,0,0,1-.756-2.591A2.945,2.945,0,0,1,5.3,1.874c.275-.109.565-.179.867-.273V0h1.68V1.5a6.312,6.312,0,0,1,2.511.57L9.846,3.992c-.279-.111-.542-.229-.813-.32A4.55,4.55,0,0,0,6.86,3.455a1.58,1.58,0,0,0-.591.227A.772.772,0,0,0,6.192,4.97a4.439,4.439,0,0,0,.922.536c.6.268,1.219.482,1.815.753a3.318,3.318,0,0,1,1.45,1.179,3.1,3.1,0,0,1-.581,3.91,3.979,3.979,0,0,1-1.887.866c-.109.02-.135.061-.134.164,0,.483,0,.965,0,1.447V14H6.083V12.421c-.555-.1-1.089-.165-1.607-.295-.415-.1-.811-.288-1.216-.435a.1.1,0,0,1-.077-.146c.161-.615.317-1.231.476-1.846A.122.122,0,0,1,3.676,9.668Z"/></svg>