<svg id="BeBold" xmlns="http://www.w3.org/2000/svg" viewBox="0 0 14 14"><defs><style>.cls-1{fill:#444a58;}</style></defs><path id="Euro" class="cls-1" d="M11.358,1.077h0a1.072,1.072,0,0,1-1.082,1.048A5.066,5.066,0,0,0,8.431,2.5,4.9,4.9,0,0,0,6.15,4.362h3.2A.836.836,0,0,1,10.129,5.5l-.009.024c-.18.458-.458.505-1.289.526,0,0-3.361,0-3.344-.015l-.017.015A4.6,4.6,0,0,0,5.5,7.872H9.329a.86.86,0,0,1,.814.582h0a.86.86,0,0,1-.814,1.138H6.25a5.027,5.027,0,0,0,1.826,1.638,5.2,5.2,0,0,0,3.479.509,1.078,1.078,0,0,1,1.219.683h0a1.083,1.083,0,0,1-.783,1.447,7.5,7.5,0,0,1-.764.1l-.32.029h-.659c-.147-.014-.294-.026-.441-.041a7.393,7.393,0,0,1-2.331-.617A7.283,7.283,0,0,1,3.748,9.66a.111.111,0,0,0-.1-.068c-.3,0-1.238,0-1.654-.007a.833.833,0,0,1-.778-1.1l.006-.016A.83.83,0,0,1,1.977,7.9c.344-.013,1.215-.028,1.226-.028-.02-.309-.052-.609-.055-.909s.021-.6.034-.91H2a.846.846,0,0,1-.8-1.107h0a.844.844,0,0,1,.806-.586H3.557a.108.108,0,0,0,.1-.067A6.932,6.932,0,0,1,7.276.62a7.14,7.14,0,0,1,2.3-.615c.065-.006.386-.006.741,0A1.064,1.064,0,0,1,11.358,1.077Z"/></svg>