<svg id="BeBold" xmlns="http://www.w3.org/2000/svg" viewBox="0 0 14 14"><defs><style>.cls-1{fill:#444a58;}</style></defs><g id="Face-id"><path class="cls-1" d="M9.936,10.449a6.611,6.611,0,0,1-1.419.739,4.785,4.785,0,0,1-4.5-.756A1.276,1.276,0,1,0,2.55,12.517,7.787,7.787,0,0,0,7,14,7.739,7.739,0,0,0,11.4,12.553a1.278,1.278,0,0,0,.418-1.823A1.311,1.311,0,0,0,9.936,10.449Z"/><path class="cls-1" d="M2.911,3.872c.028-.886.03-1.773,0-2.659A1.246,1.246,0,0,0,1.6,0,1.244,1.244,0,0,0,.366,1.246c-.015.424,0,.849,0,1.274s-.011.874,0,1.311a1.262,1.262,0,0,0,1.25,1.275A1.264,1.264,0,0,0,2.911,3.872Z"/><path class="cls-1" d="M13.636,1.279a1.275,1.275,0,0,0-2.55-.024q-.033,1.292,0,2.584a1.275,1.275,0,0,0,2.549-.013c.013-.424,0-.849,0-1.273S13.648,1.7,13.636,1.279Z"/><path class="cls-1" d="M4.91,8.918a6.542,6.542,0,0,0,.907,0c.038,0,.072.012.111.008A2.829,2.829,0,0,0,8.272,6.417c.014-1.71.009-3.42,0-5.13a1.274,1.274,0,1,0-2.547.031c0,1.671,0,3.343,0,5.043l-.023,0c-.294-.008-.4-.007-.766,0A1.275,1.275,0,0,0,4.91,8.918Z"/></g></svg>