<svg id="BeBold" xmlns="http://www.w3.org/2000/svg" viewBox="0 0 14 14"><defs><style>.cls-1{fill:#444a58;fill-rule:evenodd;}</style></defs><path id="id-card" class="cls-1" d="M12.25,12.688H1.75A1.751,1.751,0,0,1,0,10.938V3.062a1.751,1.751,0,0,1,1.75-1.75h10.5A1.751,1.751,0,0,1,14,3.062v7.876A1.751,1.751,0,0,1,12.25,12.688Zm-9.326-9.4H4.743a.875.875,0,0,1,.875.875V7a.875.875,0,0,1-.875.875H2.924A.875.875,0,0,1,2.049,7V4.167A.875.875,0,0,1,2.924,3.292ZM2.81,9.279h8.15a.744.744,0,1,1,0,1.488H2.81a.744.744,0,1,1,0-1.488Zm8.159-4.523H8.188a.736.736,0,0,1,0-1.471h2.781a.736.736,0,1,1,0,1.471Zm0,2.98H8.188a.736.736,0,0,1,0-1.472h2.781a.736.736,0,1,1,0,1.472Z"/></svg>