<svg id="BeBold" xmlns="http://www.w3.org/2000/svg" viewBox="0 0 14 14"><defs><style>.cls-1{fill:#444a58;}</style></defs><path id="Key" class="cls-1" d="M12.844.556,10.14.015a.765.765,0,0,0-.691.209L4.837,4.843a4.543,4.543,0,0,0-3.5,1.339,4.593,4.593,0,0,0,6.436,6.553l.055-.054A5.159,5.159,0,0,0,9.133,8.892c0-.61,0-1.05,0-1.367l1.274.057a.761.761,0,0,0,.575-.224l.727-.727a.769.769,0,0,0,.223-.542V4.875h1.213a.765.765,0,0,0,.541-.225l.093-.093a.766.766,0,0,0,.209-.692l-.541-2.708A.765.765,0,0,0,12.844.556ZM5.974,10.989a2.06,2.06,0,1,1,0-2.915A2.056,2.056,0,0,1,5.974,10.989Z"/></svg>