<svg id="BeBold" xmlns="http://www.w3.org/2000/svg" viewBox="0 0 14 14"><defs><style>.cls-1{fill:#444a58;}</style></defs><g id="Money-bill"><path class="cls-1" d="M13.2.1H.805A.806.806,0,0,0,0,.9V9.593a.805.805,0,0,0,.8.8H13.2a.806.806,0,0,0,.8-.8V.9A.806.806,0,0,0,13.2.1Zm-.8,6.879a2.761,2.761,0,0,0-1.811,1.81H3.421a2.762,2.762,0,0,0-1.812-1.81V3.518a2.762,2.762,0,0,0,1.812-1.81H10.58a2.759,2.759,0,0,0,1.811,1.81Z"/><path class="cls-1" d="M7,3.1A2,2,0,0,0,5.207,5.248,2,2,0,0,0,7,7.4,2,2,0,0,0,8.793,5.248,2,2,0,0,0,7,3.1Z"/><path class="cls-1" d="M0,12.991a.909.909,0,0,0,.91.91H13.089a.909.909,0,0,0,.91-.91v-.7H0Z"/></g></svg>