<svg id="BeBold" xmlns="http://www.w3.org/2000/svg" viewBox="0 0 14 14"><defs><style>.cls-1{fill:#444a58;}</style></defs><path id="Password" class="cls-1" d="M12.322,8.766,9.273,7l3.309-1.915a1.105,1.105,0,0,0,.494-1.572,1.072,1.072,0,0,0-.74-.57,1.271,1.271,0,0,0-.862.17c-.246.138-3.347,1.927-3.347,1.927L8.122,1.205A1.215,1.215,0,0,0,7.789.3,1.062,1.062,0,0,0,6.993,0,1.109,1.109,0,0,0,5.868,1.207l0,3.838Q4.225,4.1,2.59,3.153A1.293,1.293,0,0,0,1.6,2.965a1.091,1.091,0,0,0-.665.543A1.081,1.081,0,0,0,.8,4.347a1.305,1.305,0,0,0,.667.768L4.732,7,1.446,8.9a1.093,1.093,0,0,0-.535,1.551,1.1,1.1,0,0,0,.666.578,1.259,1.259,0,0,0,.985-.166c.545-.309,1.087-.621,1.631-.934l1.674-.959V12.7a1.331,1.331,0,0,0,.344,1A1.083,1.083,0,0,0,7,14h.03c.33-.005,1.1-.141,1.095-1.283V8.963l3.087,1.778a1.642,1.642,0,0,0,1.249.272,1.033,1.033,0,0,0,.629-.526C13.331,10.043,13.394,9.384,12.322,8.766Z"/></svg>