<svg id="BeBold" xmlns="http://www.w3.org/2000/svg" viewBox="0 0 14 14"><defs><style>.cls-1{fill:#444a58;}</style></defs><g id="Paypal"><path class="cls-1" d="M3.9,14a.572.572,0,0,1-.44-.675c.04-.209.087-.416.135-.638a2.106,2.106,0,0,0,1.358-.172,1.162,1.162,0,0,0,.52-.781c.172-.815.535-2.515.544-2.554.046,0,1.42.032,2.059,0a4.629,4.629,0,0,0,2.474-.831A4.854,4.854,0,0,0,12.6,5c.045-.276.048-.559.071-.848a2.266,2.266,0,0,1,.593.681,2.821,2.821,0,0,1,.326,1.821,4.492,4.492,0,0,1-.724,1.989A4.065,4.065,0,0,1,10.2,10.415a5.883,5.883,0,0,1-1.019.1c-.661.015-1.322.006-1.982,0-.087,0-.123.02-.142.113-.194.929-.4,1.856-.59,2.787A.688.688,0,0,1,6,14Z"/><path class="cls-1" d="M.386,11.348v-.164a.665.665,0,0,0,.023-.076C.6,10.22,2.129,3.206,2.7.589A.646.646,0,0,1,3.44,0H8.565a3.92,3.92,0,0,1,1.466.274,2.9,2.9,0,0,1,1.855,2.632,4.91,4.91,0,0,1-.869,2.95A4.6,4.6,0,0,1,7.292,7.925c-.881.047-1.767.019-2.65.022-.1,0-.141.019-.163.126C4.257,9.138,4.027,10.2,3.8,11.264a.67.67,0,0,1-.769.623c-.633,0-1.266,0-1.9,0a1.231,1.231,0,0,1-.3-.035A.664.664,0,0,1,.386,11.348ZM5,5.67c.064,0,1.763,0,1.874-.024A2.192,2.192,0,0,0,8.609,3.834,1.171,1.171,0,0,0,7.453,2.429c-.542-.022-1.084,0-1.626-.009-.086,0-.1.04-.12.111C5.607,2.984,5.137,5.059,5,5.67Z"/></g></svg>