<svg id="BeBold" xmlns="http://www.w3.org/2000/svg" viewBox="0 0 14 14"><defs><style>.cls-1{fill:#444a58;}</style></defs><g id="Percent"><path class="cls-1" d="M10.528.694a1.1,1.1,0,0,0-.906.479L2.587,11.589A1.1,1.1,0,1,0,4.4,12.827L11.435,2.411A1.1,1.1,0,0,0,10.528.694Z"/><path class="cls-1" d="M11.073,7.17a2.822,2.822,0,0,0-2.926,3.068,2.814,2.814,0,0,0,2.926,3.068A2.814,2.814,0,0,0,14,10.238,2.822,2.822,0,0,0,11.073,7.17Zm0,4.156a1,1,0,0,1-1.037-1.088,1.039,1.039,0,1,1,2.075,0A1,1,0,0,1,11.073,11.326Z"/><path class="cls-1" d="M5.851,3.763A2.822,2.822,0,0,0,2.925.694,2.822,2.822,0,0,0,0,3.763,2.814,2.814,0,0,0,2.925,6.83,2.814,2.814,0,0,0,5.851,3.763Zm-3.964,0A1,1,0,0,1,2.925,2.674,1,1,0,0,1,3.962,3.762,1,1,0,0,1,2.925,4.85,1,1,0,0,1,1.887,3.762Z"/></g></svg>