<svg id="BeBold" xmlns="http://www.w3.org/2000/svg" viewBox="0 0 14 14"><defs><style>.cls-1{fill:#444a58;}</style></defs><g id="Price-tag"><g id="tag"><path id="Combined-Shape" class="cls-1" d="M.482,8.437l5.081,5.081a1.647,1.647,0,0,0,2.329,0l5.385-5.384A2.471,2.471,0,0,0,14,6.387V1.236A1.234,1.234,0,0,0,12.765,0H7.613A2.469,2.469,0,0,0,5.867.724L.482,6.109A1.646,1.646,0,0,0,.482,8.437ZM11.055,3.913a1.1,1.1,0,1,1,1.105-1.1A1.1,1.1,0,0,1,11.055,3.913ZM4.569,6.35,7.514,9.3a.736.736,0,0,1-1.041,1.041L3.528,7.391A.736.736,0,1,1,4.569,6.35Z"/></g></g></svg>