<svg id="BeBold" xmlns="http://www.w3.org/2000/svg" viewBox="0 0 14 14"><defs><style>.cls-1{fill:#444a58;}</style></defs><path id="Receipt" class="cls-1" d="M10.924,0H3.076a1.6,1.6,0,0,0-1.6,1.6V12.121a.753.753,0,0,0,.216.529l1.105,1.13a.727.727,0,0,0,1.042,0l.8-.818a.727.727,0,0,1,1.042,0l.8.818a.729.729,0,0,0,1.043,0l.8-.818a.727.727,0,0,1,1.042,0l.8.818a.727.727,0,0,0,1.042,0l1.1-1.127a.764.764,0,0,0,.218-.535V2.074l0-.012V1.6A1.6,1.6,0,0,0,10.924,0ZM4.3,3.5H8.465a.736.736,0,1,1,0,1.472H4.3A.736.736,0,0,1,4.3,3.5Zm0,2.688H6.429a.736.736,0,1,1,0,1.472H4.3a.736.736,0,0,1,0-1.472Z"/></svg>