<svg id="BeBold" xmlns="http://www.w3.org/2000/svg" viewBox="0 0 14 14"><defs><style>.cls-1{fill:#444a58;fill-rule:evenodd;}</style></defs><path id="Shopping-cart" class="cls-1" d="M13.356,2.1,11.659.409A1.406,1.406,0,0,0,10.669,0H3.331a1.406,1.406,0,0,0-.99.408L.644,2.1A2.193,2.193,0,0,0,0,3.653v8.153A2.2,2.2,0,0,0,2.2,14h9.6a2.2,2.2,0,0,0,2.2-2.2V3.653A2.193,2.193,0,0,0,13.356,2.1ZM7,10.025a3.706,3.706,0,0,1-3.707-3.7.841.841,0,0,1,1.682,0,2.025,2.025,0,0,0,4.049,0,.842.842,0,0,1,1.684,0A3.706,3.706,0,0,1,7,10.025ZM3.832,1.541h6.362a.69.69,0,0,1,.525.243L12.1,3.41H1.738l1.6-1.658A.688.688,0,0,1,3.832,1.541Z"/></svg>