<svg id="BeBold" xmlns="http://www.w3.org/2000/svg" viewBox="0 0 14 14"><defs><style>.cls-1{fill:#444a58;}</style></defs><g id="Touch-id"><path class="cls-1" d="M2.265,9.615A4.609,4.609,0,0,1,3.531,4.8a3.751,3.751,0,0,1,3.993-.72,4.262,4.262,0,0,1,2.828,3.565.617.617,0,0,0,.741.58.627.627,0,0,0,.506-.795A5.489,5.489,0,0,0,7.938,2.9,4.912,4.912,0,0,0,2.7,3.811,5.639,5.639,0,0,0,.8,8.255c.01.176.009.439.044.7a8.478,8.478,0,0,0,2.071,4.77.621.621,0,0,0,.627.269.633.633,0,0,0,.349-1.084A7.22,7.22,0,0,1,2.265,9.615Z"/><path class="cls-1" d="M13.743,11.376a.653.653,0,0,0-.953-.19c-.145.083-.289.167-.437.245a3.455,3.455,0,0,1-4.582-.958A5.189,5.189,0,0,1,6.75,7.919a.629.629,0,1,0-1.243.159,5.871,5.871,0,0,0,.631,2.181A4.752,4.752,0,0,0,10.2,13.154a5.832,5.832,0,0,0,3.241-.875A.652.652,0,0,0,13.743,11.376Z"/><path class="cls-1" d="M12.871,3.68A7.461,7.461,0,0,0,2.619,1.022,8.186,8.186,0,0,0,.7,2.515l-.44.447a.663.663,0,0,0,1.012.853l.16-.174h0c.146-.167.293-.326.466-.5A6.153,6.153,0,0,1,6.224,1.366c.239.018.538.033.835.065A6.337,6.337,0,0,1,12.47,6.175a3.77,3.77,0,0,1-.169,2.51,1.587,1.587,0,0,1-1.551.881,1.179,1.179,0,0,1-1.156-.931C9.351,8,9.138,7.346,8.885,6.712A2.7,2.7,0,0,0,6.091,4.8,2.939,2.939,0,0,0,3.373,6.644,5.171,5.171,0,0,0,3.08,8.3a6.6,6.6,0,0,0,1.3,3.927A6.212,6.212,0,0,0,5.83,13.765l0,0,.138.1a.648.648,0,0,0,.776-1.037,3.85,3.85,0,0,1-1.029-1.062A5.371,5.371,0,0,1,4.418,7.641,1.741,1.741,0,0,1,5.908,6.1,1.5,1.5,0,0,1,7.652,7.134c.082.185.152.377.22.568.2.554.35,1.125.588,1.659A2.343,2.343,0,0,0,10.186,10.8a3.031,3.031,0,0,0,3.668-2.926A6.981,6.981,0,0,0,12.871,3.68Z"/></g></svg>