<svg id="BeBold" xmlns="http://www.w3.org/2000/svg" viewBox="0 0 14 14"><defs><style>.cls-1{fill:#444a58;fill-rule:evenodd;}</style></defs><path id="Camera" class="cls-1" d="M12.245,13.563H1.756A1.748,1.748,0,0,1,0,11.813V3.937a1.751,1.751,0,0,1,1.741-1.75h1.4L4.482.842a1.5,1.5,0,0,1,.994-.4H8.525a1.506,1.506,0,0,1,.994.405l1.344,1.345h1.4A1.751,1.751,0,0,1,14,3.937v7.885a1.751,1.751,0,0,1-1.756,1.741ZM7,3.937a3.5,3.5,0,1,1-3.5,3.5A3.5,3.5,0,0,1,7,3.937ZM7,9.188A1.751,1.751,0,1,0,5.25,7.437,1.751,1.751,0,0,0,7,9.188Z"/></svg>