<svg id="BeBold" xmlns="http://www.w3.org/2000/svg" viewBox="0 0 14 14"><defs><style>.cls-1{fill:#444a58;fill-rule:evenodd;}</style></defs><path id="Clone" class="cls-1" d="M12.238,10.954H4.612a.845.845,0,0,1-.848-.843V.843A.845.845,0,0,1,4.612,0h7.626a.844.844,0,0,1,.847.842v9.268A.845.845,0,0,1,12.238,10.954Zm-3.01,2.2A.845.845,0,0,1,8.381,14H1.6a.85.85,0,0,1-.847-.848V4.732a.848.848,0,0,1,1.7,0v7.185a.4.4,0,0,0,.4.4H8.381A.845.845,0,0,1,9.228,13.158ZM7.154,2.528H9.7a.843.843,0,1,1,0,1.685H7.154a.843.843,0,1,1,0-1.685Zm0,3.158H9.7a.843.843,0,1,1,0,1.685H7.154a.843.843,0,1,1,0-1.685Z"/></svg>