<svg id="BeBold" xmlns="http://www.w3.org/2000/svg" viewBox="0 0 14 14"><defs><style>.cls-1{fill:#444a58;fill-rule:evenodd;}</style></defs><path id="Folder-check" class="cls-1" d="M12.258,2.625l-4.03-.009L6.893,1.28A1.5,1.5,0,0,0,5.9.875H1.743A1.75,1.75,0,0,0,0,2.625v8.75H0a1.757,1.757,0,0,0,1.756,1.75H12.244A1.748,1.748,0,0,0,14,11.375v-7A1.75,1.75,0,0,0,12.258,2.625ZM9.824,6.569,6.811,9.844a.736.736,0,0,1-.537.276l-.041,0A.74.74,0,0,1,5.71,9.9L4.229,8.424A.74.74,0,1,1,5.276,7.377l.9.9,2.5-2.629a.74.74,0,1,1,1.156.925Z"/></svg>