<svg id="BeBold" xmlns="http://www.w3.org/2000/svg" viewBox="0 0 14 14"><defs><style>.cls-1{fill:#444a58;fill-rule:evenodd;}</style></defs><path id="Folder-downlaod" class="cls-1" d="M12.259,2.626,8.228,2.617,6.893,1.281A1.5,1.5,0,0,0,5.9.875H1.743A1.752,1.752,0,0,0,0,2.626v8.75H0a1.757,1.757,0,0,0,1.756,1.75H12.244A1.748,1.748,0,0,0,14,11.376v-7A1.75,1.75,0,0,0,12.259,2.626ZM9.7,8.272,7.328,10.648a.425.425,0,0,1-.6,0L4.351,8.272a.425.425,0,0,1,.3-.726H6.177V5.53a.851.851,0,1,1,1.7,0V7.546H9.4A.425.425,0,0,1,9.7,8.272Z"/></svg>