<svg id="BeBold" xmlns="http://www.w3.org/2000/svg" viewBox="0 0 14 14"><defs><style>.cls-1{fill:#444a58;fill-rule:evenodd;}</style></defs><path id="Folder-add" class="cls-1" d="M12.257,2.493l-4.03-.009L6.892,1.148A1.5,1.5,0,0,0,5.9.743H1.741A1.751,1.751,0,0,0,0,2.493v8.75H0a1.758,1.758,0,0,0,1.756,1.75H12.242A1.746,1.746,0,0,0,14,11.243v-7A1.749,1.749,0,0,0,12.257,2.493ZM9.283,8.374H7.76V9.9a.762.762,0,1,1-1.523,0V8.374H4.713a.762.762,0,0,1,0-1.523H6.237V5.327a.762.762,0,0,1,1.523,0V6.851H9.283a.762.762,0,1,1,0,1.523Z"/></svg>