<svg id="BeBold" xmlns="http://www.w3.org/2000/svg" viewBox="0 0 14 14"><defs><style>.cls-1{fill:#444a58;fill-rule:evenodd;}</style></defs><path id="Folder-cancel" class="cls-1" d="M12.259,2.625l-4.03-.009L6.893,1.28A1.5,1.5,0,0,0,5.9.875H1.743A1.751,1.751,0,0,0,0,2.625v8.75H0a1.757,1.757,0,0,0,1.756,1.75H12.244A1.748,1.748,0,0,0,14,11.375v-7A1.75,1.75,0,0,0,12.259,2.625ZM9.154,6.667,8.077,7.744,9.154,8.821A.762.762,0,1,1,8.077,9.9L7,8.821,5.923,9.9A.762.762,0,0,1,4.846,8.821L5.923,7.744,4.846,6.667A.762.762,0,0,1,5.923,5.59L7,6.667,8.077,5.59A.762.762,0,1,1,9.154,6.667Z"/></svg>