<svg id="BeBold" xmlns="http://www.w3.org/2000/svg" viewBox="0 0 14 14"><defs><style>.cls-1{fill:#444a58;fill-rule:evenodd;}</style></defs><path id="Folder-upload" class="cls-1" d="M12.258,2.625l-4.03-.009L6.893,1.28A1.5,1.5,0,0,0,5.9.875H1.742A1.751,1.751,0,0,0,0,2.625v8.75H0a1.759,1.759,0,0,0,1.757,1.75H12.243A1.746,1.746,0,0,0,14,11.375v-7A1.749,1.749,0,0,0,12.258,2.625ZM4.351,7.179,6.726,4.8a.426.426,0,0,1,.6,0L9.7,7.179a.425.425,0,0,1-.3.726H7.877V9.922a.851.851,0,0,1-1.7,0V7.905H4.651A.425.425,0,0,1,4.351,7.179Z"/></svg>