<svg id="BeBold" xmlns="http://www.w3.org/2000/svg" viewBox="0 0 14 14"><defs><style>.cls-1{fill:#444a58;fill-rule:evenodd;}</style></defs><path id="Folder-open" class="cls-1" d="M12.259,2.625l-4.03-.009L6.893,1.28A1.5,1.5,0,0,0,5.9.875H1.743A1.751,1.751,0,0,0,0,2.625v8.75H0a1.757,1.757,0,0,0,1.756,1.75H12.244A1.748,1.748,0,0,0,14,11.375v-7A1.75,1.75,0,0,0,12.259,2.625Zm-.406,7.453A1.118,1.118,0,0,1,10.736,11.2H3.264a1.118,1.118,0,0,1-1.117-1.117V7.139A1.118,1.118,0,0,1,3.264,6.022h7.472a1.118,1.118,0,0,1,1.117,1.117Z"/></svg>