<svg id="BeBold" xmlns="http://www.w3.org/2000/svg" viewBox="0 0 14 14"><defs><style>.cls-1{fill:#444a58;fill-rule:evenodd;}</style></defs><path id="Music" class="cls-1" d="M13.221.783V8.676a7.369,7.369,0,0,1-.113,1.115,3.262,3.262,0,0,1-.82,1.545,3.113,3.113,0,0,1-2.121.9A2.083,2.083,0,0,1,8.7,11.681a2.424,2.424,0,0,1,.358-3.46,3.478,3.478,0,0,1,1.65-.8.429.429,0,0,0,.34-.394V3.434a.2.2,0,0,0-.259-.209l-4.736.848a.433.433,0,0,0-.344.4c0,6.672-.01,6.681-.01,6.7a2.78,2.78,0,0,1-.92,1.933A3.122,3.122,0,0,1,2.66,14,2.091,2.091,0,0,1,1.2,13.445a2.427,2.427,0,0,1,.353-3.461,3.53,3.53,0,0,1,1.65-.8c.181-.031.4-.219.4-.394V2.341a.786.786,0,0,1,.678-.8L12.345.005a.961.961,0,0,1,.1,0A.84.84,0,0,1,13.221.783Z"/></svg>