<svg id="BeBold" xmlns="http://www.w3.org/2000/svg" viewBox="0 0 14 14"><defs><style>.cls-1{fill:#444a58;fill-rule:evenodd;}</style></defs><g id="Project"><path class="cls-1" d="M11.846,1.286h-.539a.808.808,0,0,0-.807.808s0,.014,0,.021A1.054,1.054,0,0,1,9.448,3.148H4.556A1.054,1.054,0,0,1,3.5,2.094h0a.808.808,0,0,0-.807-.808H2.154a.807.807,0,0,0-.807.808v11.1A.807.807,0,0,0,2.154,14h9.692a.807.807,0,0,0,.807-.808V2.094A.807.807,0,0,0,11.846,1.286ZM8.615,9.962H5.385a.808.808,0,1,1,0-1.615h3.23a.808.808,0,1,1,0,1.615Zm0-3.231H5.385a.808.808,0,1,1,0-1.615h3.23a.808.808,0,1,1,0,1.615Z"/><path class="cls-1" d="M5.385,1.615h3.23A.808.808,0,1,0,8.615,0H5.385a.808.808,0,1,0,0,1.615Z"/></g></svg>