<svg id="BeBold" xmlns="http://www.w3.org/2000/svg" viewBox="0 0 14 14"><defs><style>.cls-1{fill:#444a58;}</style></defs><g id="Video"><g id="video-camera-1"><path id="Combined-Shape" class="cls-1" d="M10.691,8.552a.319.319,0,0,0-.509.255v1.875a1.273,1.273,0,0,1-1.273,1.273H1.273A1.273,1.273,0,0,1,0,10.682V3.318A1.273,1.273,0,0,1,1.273,2.045H8.909a1.273,1.273,0,0,1,1.273,1.273V5.193a.318.318,0,0,0,.509.255l2.291-1.957a.645.645,0,0,1,.8.025.636.636,0,0,1,.217.5V10a.636.636,0,0,1-1.018.509Z"/></g></g></svg>