<svg id="BeBold" xmlns="http://www.w3.org/2000/svg" viewBox="0 0 14 14"><defs><style>.cls-1{fill:#444a58;fill-rule:evenodd;}</style></defs><path id="Cloud-check" class="cls-1" d="M12.4,5.775A5.018,5.018,0,0,0,7.506,1.309,4.93,4.93,0,0,0,3.087,4.167a4.358,4.358,0,0,0,1.1,8.524h6.125A3.749,3.749,0,0,0,14,8.873,3.823,3.823,0,0,0,12.4,5.775Zm-2.649.6L6.738,9.651a.736.736,0,0,1-.536.276l-.041,0a.74.74,0,0,1-.523-.217L4.159,8.232A.74.74,0,0,1,5.205,7.185l.895.9L8.594,5.453a.74.74,0,1,1,1.155.925Z"/></svg>