<svg id="BeBold" xmlns="http://www.w3.org/2000/svg" viewBox="0 0 14 14"><defs><style>.cls-1{fill:#444a58;fill-rule:evenodd;}</style></defs><path id="Cloud-cancel" class="cls-1" d="M12.4,5.775A5.017,5.017,0,0,0,7.508,1.309a4.931,4.931,0,0,0-4.42,2.858,4.359,4.359,0,0,0,1.1,8.524h6.126A3.749,3.749,0,0,0,14,8.873,3.821,3.821,0,0,0,12.4,5.775Zm-3.245.7L8.078,7.552,9.154,8.629A.761.761,0,1,1,8.078,9.706L7,8.629,5.925,9.706A.761.761,0,1,1,4.849,8.629L5.925,7.552,4.849,6.475A.761.761,0,0,1,5.925,5.4L7,6.475,8.078,5.4A.761.761,0,0,1,9.154,6.475Z"/></svg>