<svg id="BeBold" xmlns="http://www.w3.org/2000/svg" viewBox="0 0 14 14"><defs><style>.cls-1{fill:#444a58;}</style></defs><g id="Export"><path class="cls-1" d="M5.831,6.032v3.973l-.723-.717a1.168,1.168,0,1,0-1.65,1.654l2.728,2.717a1.167,1.167,0,0,0,1.661-.012l2.707-2.79A1.168,1.168,0,1,0,8.882,9.225l-.714.749V6.032a1.169,1.169,0,0,0-2.337,0Z"/><path class="cls-1" d="M.377.377A1.282,1.282,0,0,0,0,1.287V4.512a1.287,1.287,0,1,0,2.573,0V2.573h8.853V4.512a1.287,1.287,0,0,0,2.574,0V1.288h0A1.287,1.287,0,0,0,12.713,0H1.287A1.282,1.282,0,0,0,.377.377Z"/></g></svg>