<svg id="BeBold" xmlns="http://www.w3.org/2000/svg" viewBox="0 0 14 14"><defs><style>.cls-1{fill:#444a58;}</style></defs><g id="Lock-off"><path class="cls-1" d="M13.739.261a.9.9,0,0,0-1.267,0L.261,12.472a.9.9,0,0,0,1.267,1.267l.617-.617A1.824,1.824,0,0,0,3.754,14h7.272a1.716,1.716,0,0,0,1.818-1.636V6.637a1.62,1.62,0,0,0-1.091-1.5V4.363a4.186,4.186,0,0,0-.076-.773l2.062-2.062A.9.9,0,0,0,13.739.261Z"/><path class="cls-1" d="M5.209,5V4.363A2.184,2.184,0,0,1,7.39,2.182a2.16,2.16,0,0,1,.578.087L9.61.628A4.311,4.311,0,0,0,7.39,0,4.368,4.368,0,0,0,3.027,4.363v.771a1.622,1.622,0,0,0-1.091,1.5V8.3L5.237,5Z"/></g></svg>