<svg id="BeBold" xmlns="http://www.w3.org/2000/svg" viewBox="0 0 14 14"><defs><style>.cls-1{fill:#444a58;fill-rule:evenodd;}</style></defs><g id="Notification-off"><path class="cls-1" d="M7,13.764a2.455,2.455,0,0,0,2.552-1.983h-5.1A2.454,2.454,0,0,0,7,13.764Z"/><path class="cls-1" d="M9.414.934a4.735,4.735,0,0,0-2.272-.7A4.872,4.872,0,0,0,2.094,4.864V6.582a1.323,1.323,0,0,1-.387.935L.194,9.306a.659.659,0,0,0-.04.89Z"/><path class="cls-1" d="M12.263,7.517a1.323,1.323,0,0,1-.387-.935V5.058a4.351,4.351,0,0,0-.265-1.451l2.138-2.138A.861.861,0,0,0,12.532.251l-1.8,1.8h0L6.707,6.077.255,12.531a.861.861,0,0,0,1.217,1.218l3.313-3.314h8.552a.662.662,0,0,0,.468-1.129Z"/></g></svg>