<svg id="BeBold" xmlns="http://www.w3.org/2000/svg" viewBox="0 0 14 14"><defs><style>.cls-1{fill:#444a58;fill-rule:evenodd;}</style></defs><path id="Settings" class="cls-1" d="M12.519,6l.986-.532a.626.626,0,0,0,.256-.857L12.686,2.669a.643.643,0,0,0-.869-.252l-.989.535a1.14,1.14,0,0,1-1.071-.077c-.135-.087-.273-.167-.411-.241a1.108,1.108,0,0,1-.586-.892V.633A.635.635,0,0,0,8.122,0H5.88a.636.636,0,0,0-.637.633V1.746a1.106,1.106,0,0,1-.585.889c-.11.059-.22.122-.327.189a1.138,1.138,0,0,1-1.074.052L2.5,2.449a.643.643,0,0,0-.873.231L.509,4.6a.625.625,0,0,0,.237.861l.756.431a1.092,1.092,0,0,1,.492.941c0,.081,0,.158,0,.238A1.1,1.1,0,0,1,1.48,8L.5,8.534a.625.625,0,0,0-.255.857L1.314,11.33a.643.643,0,0,0,.869.252l.993-.535a1.124,1.124,0,0,1,1.067.077c.135.087.273.168.415.241a1.113,1.113,0,0,1,.585.892v1.11A.637.637,0,0,0,5.881,14H8.122a.637.637,0,0,0,.639-.633V12.253a1.092,1.092,0,0,1,.585-.888c.11-.06.219-.123.326-.189a1.14,1.14,0,0,1,1.075-.052l.755.426a.642.642,0,0,0,.872-.231L13.491,9.4a.626.626,0,0,0-.238-.861l-.758-.43a1.112,1.112,0,0,1-.49-.942c0-.08,0-.16,0-.241A1.1,1.1,0,0,1,12.519,6ZM7,9.464A2.465,2.465,0,1,1,9.5,7,2.478,2.478,0,0,1,7,9.464Z"/></svg>