<svg id="BeBold" xmlns="http://www.w3.org/2000/svg" viewBox="0 0 14 14"><defs><style>.cls-1{fill:#444a58;}</style></defs><g id="Sign-out"><path class="cls-1" d="M7.968,5.831H4l.717-.723a1.168,1.168,0,1,0-1.654-1.65L.341,6.186A1.167,1.167,0,0,0,.353,7.847l2.79,2.707A1.168,1.168,0,0,0,4.775,8.882l-.749-.714H7.968a1.169,1.169,0,0,0,0-2.337Z"/><path class="cls-1" d="M13.623.377A1.282,1.282,0,0,0,12.713,0H9.488a1.287,1.287,0,1,0,0,2.573h1.939v8.853H9.488a1.287,1.287,0,1,0,0,2.574h3.225A1.287,1.287,0,0,0,14,12.713V1.287A1.282,1.282,0,0,0,13.623.377Z"/></g></svg>