<svg id="BeBold" xmlns="http://www.w3.org/2000/svg" viewBox="0 0 14 14"><defs><style>.cls-1{fill:#444a58;}</style></defs><g id="Sign-in"><path class="cls-1" d="M13.623.377A1.282,1.282,0,0,0,12.713,0H9.488a1.287,1.287,0,1,0,0,2.573h1.939v8.853H9.488a1.287,1.287,0,1,0,0,2.574h3.225A1.287,1.287,0,0,0,14,12.713V1.287A1.282,1.282,0,0,0,13.623.377Z"/><path class="cls-1" d="M9.488,7.159a1.17,1.17,0,0,0-.342-.834L6.43,3.6a1.168,1.168,0,1,0-1.655,1.65l.717.723h-.52A3.49,3.49,0,0,1,2.117,4.48,1.165,1.165,0,0,0,.533,4.158,1.18,1.18,0,0,0,.225,5.841,5.814,5.814,0,0,0,4.972,8.307h.49l-.749.714a1.168,1.168,0,1,0,1.632,1.672l2.79-2.706A1.17,1.17,0,0,0,9.488,7.159Z"/></g></svg>