<svg id="BeBold" xmlns="http://www.w3.org/2000/svg" viewBox="0 0 14 14"><defs><style>.cls-1{fill:#444a58;}</style></defs><g id="Sliders"><path class="cls-1" d="M11.678,3.024V1a1,1,0,0,0-1-1H10.29a1,1,0,0,0-1,1V3.024a3.169,3.169,0,0,0,0,5.877V13a1,1,0,0,0,1,1h.388a1,1,0,0,0,1-1V8.9a3.169,3.169,0,0,0,0-5.877ZM10.484,7.138A1.176,1.176,0,1,1,11.66,5.962,1.177,1.177,0,0,1,10.484,7.138Z"/><path class="cls-1" d="M4.624,5.1V1a1,1,0,0,0-1-1H3.237a1,1,0,0,0-1,1V5.1a3.169,3.169,0,0,0,0,5.877V13a1,1,0,0,0,1,1h.388a1,1,0,0,0,1-1V10.976a3.169,3.169,0,0,0,0-5.877ZM3.43,9.213A1.176,1.176,0,1,1,4.607,8.038,1.177,1.177,0,0,1,3.43,9.213Z"/></g></svg>