<svg id="BeBold" xmlns="http://www.w3.org/2000/svg" viewBox="0 0 14 14"><defs><style>.cls-1{fill:#444a58;fill-rule:evenodd;}</style></defs><path id="Battery" class="cls-1" d="M13.342,4.987c-.361,0-.286.008-.286.008-.2,0-.531-.167-.531-.372V3.17A1.314,1.314,0,0,0,11.21,1.856h-9.9A1.314,1.314,0,0,0,0,3.17v7.66a1.314,1.314,0,0,0,1.314,1.314h9.9a1.314,1.314,0,0,0,1.315-1.314V9.681c0-.209.327-.372.531-.372l.286-.008A.705.705,0,0,0,14,8.558V5.73A.7.7,0,0,0,13.342,4.987ZM9.393,9.907H3.578A1.186,1.186,0,0,1,2.236,8.565V5.434A1.186,1.186,0,0,1,3.578,4.092H4.92a1.726,1.726,0,0,1,1.429.721c1.145,1.411,2.321,2.8,3.491,4.2C10.288,9.46,10.288,9.907,9.393,9.907Z"/></svg>