<svg id="BeBold" xmlns="http://www.w3.org/2000/svg" viewBox="0 0 14 14"><defs><style>.cls-1{fill:#444a58;}</style></defs><path id="Lab-flask" class="cls-1" d="M13.677,11.386,9.8,5.147a1.466,1.466,0,0,1-.2-.582h0V4.55a1.606,1.606,0,0,1-.025-.181V1.208A1.208,1.208,0,0,0,8.37,0H5.624A1.208,1.208,0,0,0,4.415,1.211l.006,3.155a1.469,1.469,0,0,1-.222.781L.323,11.386a1.473,1.473,0,0,0-.323.92v.22A1.474,1.474,0,0,0,1.474,14H12.526A1.474,1.474,0,0,0,14,12.526v-.22A1.473,1.473,0,0,0,13.677,11.386ZM3.867,8.474l1.584-2.55A2.946,2.946,0,0,0,5.9,4.369V2.211a.737.737,0,0,1,.737-.737h.736a.737.737,0,0,1,.737.737V4.369a2.946,2.946,0,0,0,.444,1.555l3.058,4.92Z"/></svg>