<svg id="BeBold" xmlns="http://www.w3.org/2000/svg" viewBox="0 0 14 14"><defs><style>.cls-1{fill:#444a58;fill-rule:evenodd;}</style></defs><path id="Light-mood" class="cls-1" d="M7,4.17A2.83,2.83,0,1,1,4.17,7,2.83,2.83,0,0,1,7,4.17ZM7,0a.875.875,0,0,1,.875.875V1.75a.875.875,0,0,1-1.75,0V.875A.875.875,0,0,1,7,0ZM7,11.375a.875.875,0,0,1,.875.875v.875a.875.875,0,0,1-1.75,0V12.25A.875.875,0,0,1,7,11.375ZM.875,6.125H1.75a.875.875,0,0,1,0,1.75H.875a.875.875,0,0,1,0-1.75Zm11.375,0h.875a.875.875,0,0,1,0,1.75H12.25a.875.875,0,0,1,0-1.75ZM2.05,2.048a.874.874,0,0,1,1.237,0l.619.621A.875.875,0,1,1,2.669,3.9L2.05,3.29a.882.882,0,0,1,0-1.242Zm8.044,8.05a.874.874,0,0,1,1.237,0l.619.612a.877.877,0,0,1-1.237,1.243l-.619-.622a.87.87,0,0,1,0-1.233ZM2.05,10.71l.619-.612a.875.875,0,1,1,1.237,1.233l-.619.622A.877.877,0,1,1,2.05,10.71Zm8.044-8.041.619-.621A.876.876,0,0,1,11.95,3.29l-.619.612a.875.875,0,1,1-1.237-1.233Z"/></svg>