<svg id="BeBold" xmlns="http://www.w3.org/2000/svg" viewBox="0 0 14 14"><defs><style>.cls-1{fill:#444a58;}</style></defs><g id="Spinner"><path class="cls-1" d="M7,0a.875.875,0,0,0-.875.875v1.75a.875.875,0,0,0,1.75,0V.875A.875.875,0,0,0,7,0Z"/><path class="cls-1" d="M7,10.5a.875.875,0,0,0-.875.875v1.75a.875.875,0,0,0,1.75,0v-1.75A.875.875,0,0,0,7,10.5Z"/><path class="cls-1" d="M10.093,4.781a.872.872,0,0,0,.619-.256L11.95,3.288A.875.875,0,0,0,10.713,2.05L9.475,3.287a.875.875,0,0,0,.618,1.494Z"/><path class="cls-1" d="M3.288,9.475,2.05,10.712A.875.875,0,0,0,3.288,11.95l1.237-1.238A.875.875,0,1,0,3.288,9.475Z"/><path class="cls-1" d="M13.125,6.125h-1.75a.875.875,0,0,0,0,1.75h1.75a.875.875,0,0,0,0-1.75Z"/><path class="cls-1" d="M3.5,7a.875.875,0,0,0-.875-.875H.875a.875.875,0,0,0,0,1.75h1.75A.875.875,0,0,0,3.5,7Z"/><path class="cls-1" d="M10.712,9.475a.875.875,0,1,0-1.237,1.238l1.238,1.237a.875.875,0,0,0,1.237-1.238Z"/><path class="cls-1" d="M3.288,2.05A.875.875,0,0,0,2.05,3.288L3.288,4.525A.875.875,0,1,0,4.525,3.288Z"/></g></svg>