<svg id="BeBold" xmlns="http://www.w3.org/2000/svg" viewBox="0 0 14 14"><defs><style>.cls-1{fill:#444a58;}</style></defs><g id="Spinner-fade"><path class="cls-1" d="M7.355.455a.919.919,0,0,0-.919.92V3.214a.92.92,0,0,0,1.839,0V1.375A.92.92,0,0,0,7.355.455Z"/><path class="cls-1" d="M7.355,11.522a.506.506,0,0,0-.505.506v1.011a.506.506,0,1,0,1.011,0V12.028A.507.507,0,0,0,7.355,11.522Z"/><path class="cls-1" d="M10.526,5.479a.838.838,0,0,0,.6-.246L12.31,4.045a.84.84,0,1,0-1.188-1.189L9.932,4.044a.841.841,0,0,0,.594,1.435Z"/><path class="cls-1" d="M3.454,10.411l-1.3,1.3a.919.919,0,1,0,1.3,1.3l1.3-1.3a.92.92,0,0,0-1.3-1.3Z"/><path class="cls-1" d="M13.258,6.891H11.775a.742.742,0,0,0,0,1.484h1.483a.742.742,0,1,0,0-1.484Z"/><path class="cls-1" d="M3.678,7.811a.92.92,0,0,0-.92-.92H.919a.92.92,0,0,0,0,1.839H2.758A.92.92,0,0,0,3.678,7.811Z"/><path class="cls-1" d="M10.685,10.313a.585.585,0,0,0-.828.828l.829.828a.585.585,0,0,0,.827-.828Z"/><path class="cls-1" d="M3.454,2.61a.919.919,0,0,0-1.3,1.3l1.3,1.3a.92.92,0,0,0,1.3-1.3Z"/></g></svg>