<svg id="BeBold" xmlns="http://www.w3.org/2000/svg" viewBox="0 0 14 14"><defs><style>.cls-1{fill:#444a58;fill-rule:evenodd;}</style></defs><path id="inbox" class="cls-1" d="M12.245,12.791H1.756A1.75,1.75,0,0,1,0,11.049V8a.89.89,0,0,1,.044-.276L1.657,2.219a1.528,1.528,0,0,1,1.414-1.01h7.858A1.527,1.527,0,0,1,12.344,2.22l1.612,5.508A.886.886,0,0,1,14,8v3.045a1.75,1.75,0,0,1-1.756,1.742ZM10.438,2.959H3.62a.481.481,0,0,0-.463.352L2.195,6.752a.3.3,0,0,0,.286.377H4.524a.9.9,0,0,1,.309.061.886.886,0,0,1,.087.044.844.844,0,0,1,.175.119.569.569,0,0,1,.075.072.858.858,0,0,1,.122.181c.016.026.03.052.044.08,0,.009.011.018.014.027a1.751,1.751,0,0,0,3.3,0c0-.009.01-.018.015-.027a.781.781,0,0,1,.043-.08.826.826,0,0,1,.123-.181A.551.551,0,0,1,8.9,7.353a.791.791,0,0,1,.175-.118l.088-.044a.871.871,0,0,1,.308-.061h2.043a.3.3,0,0,0,.287-.378l-.977-3.5A.407.407,0,0,0,10.438,2.959Z"/></svg>