<svg id="BeBold" xmlns="http://www.w3.org/2000/svg" viewBox="0 0 14 14"><defs><style>.cls-1{fill:#444a58;}</style></defs><g id="Sticker"><path class="cls-1" d="M6.02.088a7.187,7.187,0,0,0-1.47,13.79.582.582,0,0,0,.759-.691,6.641,6.641,0,0,1-.062-2.457,6.554,6.554,0,0,1,5.5-5.4,6.63,6.63,0,0,1,2.455.108A.583.583,0,0,0,13.9,4.7,7.19,7.19,0,0,0,6.02.088Z"/><path class="cls-1" d="M13.815,7.8a4.433,4.433,0,0,0-3.094-.15,4.735,4.735,0,0,0-3.088,3.088,4.439,4.439,0,0,0,.15,3.1.285.285,0,0,0,.462.081L13.9,8.262A.284.284,0,0,0,13.815,7.8Z"/></g></svg>