<svg id="BeBold" xmlns="http://www.w3.org/2000/svg" viewBox="0 0 14 14"><defs><style>.cls-1{fill:#444a58;fill-rule:evenodd;}</style></defs><path id="Airplane" class="cls-1" d="M10.251,12.454a1.164,1.164,0,0,0,1.823.224h0A1.168,1.168,0,0,0,12.36,11.5L10.481,5.66l2.608-2.45c.681-.681,1.293-2.259.618-2.934s-2.169.018-2.849.7L8.33,3.506,2.5,1.625a1.165,1.165,0,0,0-1.182.286h0a1.168,1.168,0,0,0,.225,1.826l3.679,2.21a.381.381,0,0,1,.073.6L2.953,8.89,1.66,8.314a.838.838,0,0,0-.934.174l-.48.48a.841.841,0,0,0,.16,1.314l2.063,1.246,1.245,2.066a.839.839,0,0,0,1.312.16l.48-.481a.841.841,0,0,0,.173-.935L5.1,11.043,7.448,8.7a.38.38,0,0,1,.595.074Z"/></svg>