<svg id="BeBold" xmlns="http://www.w3.org/2000/svg" viewBox="0 0 14 14"><defs><style>.cls-1{fill:#444a58;}</style></defs><g id="Android"><path class="cls-1" d="M9.33,1.659c.157-.309.309-.6.454-.9a.494.494,0,0,0-.171-.7.481.481,0,0,0-.667.282C8.832.553,8.717.771,8.622,1c-.07.165-.14.178-.322.14A6.693,6.693,0,0,0,6.926.954a8.607,8.607,0,0,0-1.293.192C5.5.88,5.362.613,5.224.348,5.062.037,4.79-.076,4.538.059s-.3.406-.144.716.293.589.442.887A3.75,3.75,0,0,0,3.363,4.621H10.8A3.726,3.726,0,0,0,9.33,1.659Zm-3.817,1.7a.409.409,0,0,1-.4-.408.4.4,0,0,1,.417-.391.4.4,0,0,1,.385.4A.406.406,0,0,1,5.513,3.355Zm3.262,0a.408.408,0,0,1-.4-.408.4.4,0,0,1,.8.013A.407.407,0,0,1,8.775,3.355Z"/><path class="cls-1" d="M.584,6.957c0-.766,0-1.531,0-2.3a.886.886,0,0,1,.538-.853.874.874,0,0,1,.978.128.885.885,0,0,1,.337.712c0,1.547.007,2.228,0,3.775a.918.918,0,0,1-.895.925.9.9,0,0,1-.948-.886c-.02-.79-.005-.715-.005-1.5Z"/><path class="cls-1" d="M13.584,6.968c0,.748,0,.629,0,1.377a.929.929,0,1,1-1.854.015c-.006-1.513-.006-2.159,0-3.672a.927.927,0,1,1,1.853-.015C13.59,5.438,13.584,6.2,13.584,6.968Z"/><path class="cls-1" d="M7.977,11.229H6.161c0,.533.019,1.058-.008,1.581a1.911,1.911,0,0,1-.178.773.853.853,0,0,1-.969.39.875.875,0,0,1-.684-.764c-.035-.653-.031-1.308-.028-1.962a.414.414,0,0,0-.2-.395,1.681,1.681,0,0,1-.73-1.418c-.018-1.565-.006-2.136-.006-3.72h7.446v.275c0,1.4,0,1.8,0,3.191a1.926,1.926,0,0,1-.838,1.754.325.325,0,0,0-.089.238c-.007.595,0,1.191,0,1.786a.938.938,0,1,1-1.869.027C8,12.415,8,11.845,8,11.276,8,11.268,7.992,11.261,7.977,11.229Z"/></g></svg>