<svg id="BeBold" xmlns="http://www.w3.org/2000/svg" viewBox="0 0 14 14"><defs><style>.cls-1{fill:#444a58;}</style></defs><g id="Answer"><path class="cls-1" d="M.057,5.248A3.482,3.482,0,0,0,.334,7.356a3.425,3.425,0,0,0,.774,1.025,4.9,4.9,0,0,0,1.454.889A9.223,9.223,0,0,0,4.9,9.846a16.846,16.846,0,0,0,2.106.122,14.7,14.7,0,0,0,3.16-.3,6.937,6.937,0,0,0,2.044-.762,3.948,3.948,0,0,0,1.164-1.019,3.45,3.45,0,0,0,.59-2.523,1.59,1.59,0,0,0-.417-1,2.075,2.075,0,0,0-1.827-.221,4.313,4.313,0,0,0-.984.253,1.915,1.915,0,0,0-1.1,1.742v.433a.694.694,0,0,1-.395.641,5.847,5.847,0,0,1-2.238.307,6.141,6.141,0,0,1-2.184-.284.717.717,0,0,1-.453-.668V6.135A1.923,1.923,0,0,0,3.1,4.328,5.264,5.264,0,0,0,2.084,4.1a3.372,3.372,0,0,0-.912-.056,1.222,1.222,0,0,0-1.047.917C.1,5.055.075,5.151.057,5.248Z"/></g></svg>