<svg id="BeBold" xmlns="http://www.w3.org/2000/svg" viewBox="0 0 14 14"><defs><style>.cls-1{fill:#444a58;}</style></defs><g id="Apple"><path class="cls-1" d="M12.281,4.743a3.131,3.131,0,0,0,.382,5.539c-.056.158-.108.322-.171.482a8.6,8.6,0,0,1-1.486,2.418,1.856,1.856,0,0,1-2.477.558,2.938,2.938,0,0,0-2.6,0,3.635,3.635,0,0,1-.4.152,1.594,1.594,0,0,1-1.678-.324,7.218,7.218,0,0,1-1.58-2.112,8.117,8.117,0,0,1-.983-4.529A3.787,3.787,0,0,1,3.848,3.546a2.9,2.9,0,0,1,1.959.072c1.4.544,1.122.5,2.489,0a3.33,3.33,0,0,1,3.658.721,2.638,2.638,0,0,1,.229.265C12.219,4.646,12.248,4.7,12.281,4.743Z"/><path class="cls-1" d="M9.731,0A2.91,2.91,0,0,1,6.978,3.2C6.594,1.909,8.216.013,9.731,0Z"/></g></svg>