<svg id="BeBold" xmlns="http://www.w3.org/2000/svg" viewBox="0 0 14 14"><defs><style>.cls-1{fill:#444a58;}</style></defs><g id="Call-end"><path class="cls-1" d="M13.94,8.232a3.482,3.482,0,0,0-.277-2.108A3.421,3.421,0,0,0,12.889,5.1a4.886,4.886,0,0,0-1.454-.89A9.223,9.223,0,0,0,9.1,3.634a16.846,16.846,0,0,0-2.106-.122,14.7,14.7,0,0,0-3.16.3,6.937,6.937,0,0,0-2.044.762A3.948,3.948,0,0,0,.624,5.592a3.451,3.451,0,0,0-.59,2.523,1.588,1.588,0,0,0,.417,1,2.075,2.075,0,0,0,1.827.221,4.313,4.313,0,0,0,.984-.253,1.915,1.915,0,0,0,1.1-1.742V6.912a.694.694,0,0,1,.395-.641,5.847,5.847,0,0,1,2.238-.307,6.141,6.141,0,0,1,2.184.284.717.717,0,0,1,.453.668v.429a1.922,1.922,0,0,0,1.264,1.807,5.192,5.192,0,0,0,1.02.227,3.372,3.372,0,0,0,.912.056,1.222,1.222,0,0,0,1.047-.917C13.9,8.425,13.922,8.329,13.94,8.232Z"/></g></svg>