<svg id="BeBold" xmlns="http://www.w3.org/2000/svg" viewBox="0 0 14 14"><defs><style>.cls-1{fill:#444a58;}</style></defs><g id="Dislike"><path id="Combined-Shape" class="cls-1" d="M.725,2.3A2.218,2.218,0,0,1,2.92.587L6.447.739c2.5.352,2.92,2.632,2.92,4.545V7.709a1.983,1.983,0,0,1-.529,1.348L5.932,12.794c-.434.469-.97,1.087-1.639.078a2.064,2.064,0,0,1-.47-1.129,1.587,1.587,0,0,1,.17-.715L5.15,8.81H1.207a1.029,1.029,0,0,1-.572-.162,1.331,1.331,0,0,1-.6-1.442Z"/><path class="cls-1" d="M12.5,1.58H11.1a.325.325,0,0,0-.323.323l-.323,5.728a.324.324,0,0,0,.323.323h1.4a1.507,1.507,0,0,0,1.5-1.5L14,3.082A1.507,1.507,0,0,0,12.5,1.58Z"/></g></svg>