<svg id="BeBold" xmlns="http://www.w3.org/2000/svg" viewBox="0 0 14 14"><defs><style>.cls-1{fill:#444a58;}</style></defs><path id="Hashtag" class="cls-1" d="M14,4.422V3.514a.627.627,0,0,0-.627-.627h-.885a.627.627,0,0,1-.614-.75L12.151.751A.627.627,0,0,0,11.536,0h-.954a.626.626,0,0,0-.614.5L9.592,2.383a.627.627,0,0,1-.615.5H6.919a.628.628,0,0,1-.615-.75L6.582.751A.627.627,0,0,0,5.967,0H5.013a.627.627,0,0,0-.615.5L4.023,2.383a.627.627,0,0,1-.615.5H1.649a.627.627,0,0,0-.627.627v.908a.626.626,0,0,0,.627.626H2.725a.628.628,0,0,1,.615.75L2.809,8.45a.626.626,0,0,1-.614.5H.627A.627.627,0,0,0,0,9.581v.907a.627.627,0,0,0,.627.627h.885a.627.627,0,0,1,.614.75l-.277,1.386a.627.627,0,0,0,.615.75h.954a.626.626,0,0,0,.614-.5l.376-1.878a.627.627,0,0,1,.615-.5H7.081a.628.628,0,0,1,.615.75l-.278,1.386a.627.627,0,0,0,.615.75h.954a.627.627,0,0,0,.615-.5l.375-1.878a.627.627,0,0,1,.615-.5h1.619a.627.627,0,0,0,.627-.627V9.581a.626.626,0,0,0-.627-.627h-.936a.628.628,0,0,1-.615-.75l.531-2.652a.626.626,0,0,1,.614-.5h1.568A.627.627,0,0,0,14,4.422ZM7.764,8.954H5.706a.627.627,0,0,1-.615-.75l.531-2.652a.626.626,0,0,1,.614-.5H8.294a.627.627,0,0,1,.615.75L8.378,8.45A.626.626,0,0,1,7.764,8.954Z"/></svg>