<svg id="BeBold" xmlns="http://www.w3.org/2000/svg" viewBox="0 0 14 14"><defs><style>.cls-1{fill:#444a58;}</style></defs><g id="Instagram"><path class="cls-1" d="M7,5.113A1.886,1.886,0,1,0,8.881,7,1.888,1.888,0,0,0,7,5.113Z"/><path class="cls-1" d="M13.95,4.122a5.464,5.464,0,0,0-.164-1.207,3.657,3.657,0,0,0-1.14-1.9A3.832,3.832,0,0,0,10.53.1a11.8,11.8,0,0,0-1.2-.082C8.538,0,7.75,0,6.962,0,6.031,0,5.1-.009,4.167.039a6.739,6.739,0,0,0-1.051.12,3.751,3.751,0,0,0-2,1.07A3.877,3.877,0,0,0,.112,3.381,9.81,9.81,0,0,0,.019,4.74Q0,5.853,0,6.968C0,8-.012,9.035.053,10.067a5.279,5.279,0,0,0,.236,1.3,3.546,3.546,0,0,0,1.6,2.011,4.234,4.234,0,0,0,1.88.551c.454.034.911.056,1.367.058,1.484.009,2.969.029,4.454-.019a7.082,7.082,0,0,0,1.392-.154,3.679,3.679,0,0,0,2.9-3.2,10.141,10.141,0,0,0,.093-1.359c.014-.75.016-1.5.027-2.578C13.988,6.041,13.973,5.081,13.95,4.122ZM6.992,10.591A3.592,3.592,0,1,1,10.587,7,3.589,3.589,0,0,1,6.992,10.591Zm4.089-6.4A1.212,1.212,0,1,1,12.289,2.98,1.216,1.216,0,0,1,11.081,4.187Z"/></g></svg>