<svg id="BeBold" xmlns="http://www.w3.org/2000/svg" viewBox="0 0 14 14"><defs><style>.cls-1{fill:#444a58;}</style></defs><g id="Laptop"><path class="cls-1" d="M12.641,2.732a.983.983,0,0,0-.986-.981h-9.3a.983.983,0,0,0-.986.981v6.3H12.641Z"/><path class="cls-1" d="M13.422,10.524H8.727a.834.834,0,0,0-.675.488.525.525,0,0,1-.469.289H6.417a.525.525,0,0,1-.469-.289.834.834,0,0,0-.675-.488H.578A.577.577,0,0,0,0,11.1a1.153,1.153,0,0,0,1.156,1.15H12.844A1.153,1.153,0,0,0,14,11.1.577.577,0,0,0,13.422,10.524Z"/></g></svg>