<svg id="BeBold" xmlns="http://www.w3.org/2000/svg" viewBox="0 0 14 14"><defs><style>.cls-1{fill:#444a58;}</style></defs><g id="Linkedin"><path class="cls-1" d="M7.856,4.834v1.25c.087-.116.16-.218.239-.316a3.045,3.045,0,0,1,2.693-1.15,3.292,3.292,0,0,1,1.546.446A3.213,3.213,0,0,1,13.8,7.122a5.792,5.792,0,0,1,.173,1.429q0,2.574,0,5.149c0,.028,0,.057,0,.09H11V13.7q0-2.4,0-4.8a2.908,2.908,0,0,0-.173-1.041,1.3,1.3,0,0,0-1.225-.88,1.674,1.674,0,0,0-1.74,1.666c.008.65,0,1.3,0,1.948q0,1.553,0,3.105v.094H4.883V4.834Z"/><path class="cls-1" d="M.026,4.832H3V13.79H.026Z"/><circle class="cls-1" cx="1.511" cy="1.743" r="1.533"/></g></svg>