<svg id="BeBold" xmlns="http://www.w3.org/2000/svg" viewBox="0 0 14 14"><defs><style>.cls-1{fill:#444a58;}</style></defs><path id="Mention" class="cls-1" d="M14,7.423c0-.105,0-.208-.005-.313a6.929,6.929,0,0,0-.03-.707A6.706,6.706,0,0,0,9.951.7a6.742,6.742,0,0,0-7.281.833A6.582,6.582,0,0,0,.009,6.676a6.9,6.9,0,0,0,4.543,6.881,6.567,6.567,0,0,0,.636.192c.1.026.19.051.283.079l.174.054L6.586,14c.1,0,.212,0,.318,0a7.23,7.23,0,0,0,.737-.033,9.838,9.838,0,0,0,1.192-.214,1.031,1.031,0,0,0,.659-.475,1.022,1.022,0,0,0-1.184-1.489,4.972,4.972,0,0,1-6.048-3.3A4.958,4.958,0,0,1,6.68,2.079a4.943,4.943,0,0,1,5.11,6.174.972.972,0,0,1-.209.424.691.691,0,0,1-.782.1,1.286,1.286,0,0,1-.553-.613c-.457-.94-.121-2.346-.068-3.364a.942.942,0,0,0-.892-.988.925.925,0,0,0-.822.423,3.393,3.393,0,0,0-2.527-.413A3.343,3.343,0,0,0,3.8,8.778a3.277,3.277,0,0,0,2.786,1.651,3.475,3.475,0,0,0,2.146-.681,3.149,3.149,0,0,0,2.745,1.086A2.755,2.755,0,0,0,13.719,8.94c.045-.123.078-.25.111-.378l.051-.2ZM8.01,7.15A1.316,1.316,0,1,1,7.673,6.2,1.306,1.306,0,0,1,8.01,7.15Z"/></svg>