<svg id="BeBold" xmlns="http://www.w3.org/2000/svg" viewBox="0 0 14 14"><defs><style>.cls-1{fill:#444a58;}</style></defs><path id="Snapchat" class="cls-1" d="M3.225,4.754a13.5,13.5,0,0,1,.089-1.535A3.2,3.2,0,0,1,4.934.952,4.159,4.159,0,0,1,9.806,1.5a3.087,3.087,0,0,1,.967,2.259c-.008.64-.026,1.28-.06,1.919-.011.211.074.325.258.31a3.176,3.176,0,0,0,.755-.148.707.707,0,0,1,.691.092.3.3,0,0,1,.037.511,3.265,3.265,0,0,1-.632.351c-.212.1-.446.158-.651.27a.6.6,0,0,0-.294.835,4.218,4.218,0,0,0,2.908,2.616c.081.02.215.082.215.125a.405.405,0,0,1-.115.279,1.167,1.167,0,0,1-.391.222,3.513,3.513,0,0,1-.874.233c-.424.025-.571.24-.633.619-.066.4-.126.426-.53.34a2.814,2.814,0,0,0-2.518.541,2.893,2.893,0,0,1-2,.718,2.709,2.709,0,0,1-1.3-.355,4.809,4.809,0,0,1-.61-.4,2.7,2.7,0,0,0-2.405-.507c-.09.019-.182.03-.274.043-.151.02-.265-.046-.27-.194-.018-.6-.357-.81-.911-.849a2.673,2.673,0,0,1-.766-.241.946.946,0,0,1-.325-.232c-.139-.151-.095-.28.105-.323A4.182,4.182,0,0,0,3.062,8.117c.306-.6.166-.932-.46-1.184-.257-.1-.525-.183-.773-.3-.321-.157-.432-.368-.337-.562a.631.631,0,0,1,.731-.227,3.834,3.834,0,0,0,.806.152c.214.016.329-.1.291-.353-.044-.291-.041-.588-.058-.882Z"/></svg>