<svg id="BeBold" xmlns="http://www.w3.org/2000/svg" viewBox="0 0 14 14"><defs><style>.cls-1{fill:#444a58;}</style></defs><path id="Tiktok" class="cls-1" d="M9.869,0H7.4s-.032,9.472-.054,9.7a1.97,1.97,0,0,1-.729,1.277,2.142,2.142,0,0,1-1.306.5A2.213,2.213,0,0,1,3.123,9.339,2.189,2.189,0,0,1,5,7.232c.112-.009.271-.013.424-.016V4.706a6.839,6.839,0,0,0-1.107.073A4.68,4.68,0,0,0,.644,8.726,4.466,4.466,0,0,0,2.1,12.741a4.59,4.59,0,0,0,5.549.582A4.457,4.457,0,0,0,9.893,9.415c.03-1.647.024-4.375.031-4.5a6.246,6.246,0,0,0,3.469,1.117V3.581C11.348,3.237,10.063,2.17,9.869,0Z"/></svg>