<svg id="BeBold" xmlns="http://www.w3.org/2000/svg" viewBox="0 0 14 14"><defs><style>.cls-1{fill:#444a58;fill-rule:evenodd;}</style></defs><path id="Twitter" class="cls-1" d="M13.613,1.671a5.816,5.816,0,0,1-1.824.678,2.9,2.9,0,0,0-2.1-.881A2.832,2.832,0,0,0,6.821,4.26,2.729,2.729,0,0,0,6.9,4.9,8.233,8.233,0,0,1,.975,1.979a2.724,2.724,0,0,0-.389,1.4A2.769,2.769,0,0,0,1.864,5.707a2.914,2.914,0,0,1-1.3-.349c0,.011,0,.023,0,.035a2.815,2.815,0,0,0,2.3,2.739,2.942,2.942,0,0,1-.757.1,2.825,2.825,0,0,1-.54-.051,2.867,2.867,0,0,0,2.683,1.94,5.861,5.861,0,0,1-3.567,1.2A5.946,5.946,0,0,1,0,11.276a8.294,8.294,0,0,0,4.4,1.256,8,8,0,0,0,8.172-7.948c0-.121,0-.241-.008-.361A5.745,5.745,0,0,0,14,2.776a5.818,5.818,0,0,1-1.65.441A2.811,2.811,0,0,0,13.613,1.671Z"/></svg>