<svg id="BeBold" xmlns="http://www.w3.org/2000/svg" viewBox="0 0 14 14"><defs><style>.cls-1{fill:#444a58;}</style></defs><path id="Youtube" class="cls-1" d="M13.707,3.608A1.758,1.758,0,0,0,12.47,2.363,41.5,41.5,0,0,0,7,2.068a41.5,41.5,0,0,0-5.47.295A1.758,1.758,0,0,0,.293,3.608,18.43,18.43,0,0,0,0,7a18.43,18.43,0,0,0,.293,3.392A1.758,1.758,0,0,0,1.53,11.637,41.5,41.5,0,0,0,7,11.932a41.5,41.5,0,0,0,5.47-.295,1.758,1.758,0,0,0,1.237-1.245A18.43,18.43,0,0,0,14,7,18.43,18.43,0,0,0,13.707,3.608ZM5.568,9.082V4.918L9.227,7Z"/></svg>