<svg id="BeBold" xmlns="http://www.w3.org/2000/svg" viewBox="0 0 14 14"><defs><style>.cls-1{fill:#444a58;}</style></defs><g id="Align-left-1"><path class="cls-1" d="M9.995,1.209H1.011A1.015,1.015,0,0,0,0,2.212v.407A1.011,1.011,0,0,0,1.011,3.628H9.995a1.011,1.011,0,0,0,1.011-1.009V2.211A1.015,1.015,0,0,0,9.995,1.209Z"/><path class="cls-1" d="M12.99,5.79H1.011A1.016,1.016,0,0,0,0,6.793V7.2A1.011,1.011,0,0,0,1.011,8.21H12.99A1.01,1.01,0,0,0,14,7.2V6.792A1.014,1.014,0,0,0,12.99,5.79Z"/><path class="cls-1" d="M6.5,10.372H1.011a1.015,1.015,0,0,0-1.011,1v.406a1.011,1.011,0,0,0,1.011,1.01H6.5a1.011,1.011,0,0,0,1.011-1.01v-.407A1.015,1.015,0,0,0,6.5,10.372Z"/></g></svg>