<svg id="BeBold" xmlns="http://www.w3.org/2000/svg" viewBox="0 0 14 14"><defs><style>.cls-1{fill:#444a58;}</style></defs><g id="Align-left-2"><path class="cls-1" d="M12.99,1.209H1.01a1.015,1.015,0,0,0-1.01,1v.407A1.011,1.011,0,0,0,1.01,3.628H12.99A1.011,1.011,0,0,0,14,2.619V2.211A1.015,1.015,0,0,0,12.99,1.209Z"/><path class="cls-1" d="M12.99,5.79H1.01a1.015,1.015,0,0,0-1.01,1V7.2A1.011,1.011,0,0,0,1.01,8.21H12.99A1.011,1.011,0,0,0,14,7.2V6.792A1.015,1.015,0,0,0,12.99,5.79Z"/><path class="cls-1" d="M1.01,10.372H6.495a1.01,1.01,0,0,1,1.01,1.01v.4A1.009,1.009,0,0,1,6.5,12.791H1.009A1.009,1.009,0,0,1,0,11.781v-.4a1.01,1.01,0,0,1,1.01-1.01Z"/></g></svg>