<svg id="BeBold" xmlns="http://www.w3.org/2000/svg" viewBox="0 0 14 14"><defs><style>.cls-1{fill:#444a58;}</style></defs><g id="Align-right-2"><path class="cls-1" d="M1.012,1.209H12.991a1.015,1.015,0,0,1,1.01,1v.407a1.011,1.011,0,0,1-1.01,1.009H1.012A1.011,1.011,0,0,1,0,2.619V2.211A1.015,1.015,0,0,1,1.012,1.209Z"/><path class="cls-1" d="M1.012,5.79H12.991a1.015,1.015,0,0,1,1.01,1V7.2a1.011,1.011,0,0,1-1.01,1.01H1.012A1.011,1.011,0,0,1,0,7.2V6.792A1.015,1.015,0,0,1,1.012,5.79Z"/><path class="cls-1" d="M7.506,10.372h5.485a1.015,1.015,0,0,1,1.01,1v.406a1.011,1.011,0,0,1-1.01,1.01H7.506a1.011,1.011,0,0,1-1.01-1.01v-.407A1.015,1.015,0,0,1,7.506,10.372Z"/></g></svg>