<svg id="BeBold" xmlns="http://www.w3.org/2000/svg" viewBox="0 0 14 14"><defs><style>.cls-1{fill:#444a58;}</style></defs><g id="Align-center-2"><path class="cls-1" d="M12.99,1.209H1.01a1.015,1.015,0,0,0-1.01,1v.407A1.011,1.011,0,0,0,1.01,3.628H12.99A1.011,1.011,0,0,0,14,2.619V2.211A1.015,1.015,0,0,0,12.99,1.209Z"/><path class="cls-1" d="M12.99,5.79H1.01a1.015,1.015,0,0,0-1.01,1V7.2A1.011,1.011,0,0,0,1.01,8.21H12.99A1.011,1.011,0,0,0,14,7.2V6.792A1.015,1.015,0,0,0,12.99,5.79Z"/><path class="cls-1" d="M9.742,10.372H4.258a1.015,1.015,0,0,0-1.011,1v.406a1.011,1.011,0,0,0,1.011,1.01H9.742a1.011,1.011,0,0,0,1.011-1.01v-.407A1.015,1.015,0,0,0,9.742,10.372Z"/></g></svg>