<svg id="BeBold" xmlns="http://www.w3.org/2000/svg" viewBox="0 0 14 14"><defs><style>.cls-1{fill:#444a58;}</style></defs><g id="Align-right-1"><path class="cls-1" d="M4.005,1.209H12.99A1.01,1.01,0,0,1,14,2.22v.4a1.009,1.009,0,0,1-1.009,1.009H4.005a1.01,1.01,0,0,1-1.01-1.01v-.4a1.01,1.01,0,0,1,1.01-1.01Z"/><path class="cls-1" d="M1.01,5.79H12.99a1.015,1.015,0,0,1,1.01,1V7.2a1.011,1.011,0,0,1-1.01,1.01H1.01A1.011,1.011,0,0,1,0,7.2V6.792A1.015,1.015,0,0,1,1.01,5.79Z"/><path class="cls-1" d="M7.505,10.372H12.99A1.01,1.01,0,0,1,14,11.382v.4a1.009,1.009,0,0,1-1.009,1.009H7.5a1.009,1.009,0,0,1-1.009-1.009v-.4A1.01,1.01,0,0,1,7.505,10.372Z"/></g></svg>