<svg id="BeBold" xmlns="http://www.w3.org/2000/svg" viewBox="0 0 14 14"><defs><style>.cls-1{fill:#444a58;}</style></defs><path id="Backspace" class="cls-1" d="M12.383,1.822H4.451a1.618,1.618,0,0,0-1.295.647L.2,6.417a.972.972,0,0,0,0,1.166l2.961,3.948a1.618,1.618,0,0,0,1.295.647h7.932A1.619,1.619,0,0,0,14,10.56V3.44A1.619,1.619,0,0,0,12.383,1.822Zm-2.572,4.1L8.734,7,9.811,8.077A.762.762,0,1,1,8.734,9.154L7.657,8.077,6.58,9.154A.761.761,0,1,1,5.5,8.077L6.58,7,5.5,5.923A.762.762,0,0,1,6.581,4.846L7.657,5.923,8.734,4.846A.762.762,0,1,1,9.811,5.923Z"/></svg>