<svg id="BeBold" xmlns="http://www.w3.org/2000/svg" viewBox="0 0 14 14"><defs><style>.cls-1{fill:#444a58;}</style></defs><g id="Bulleted_list" data-name="Bulleted list"><path class="cls-1" d="M12.991,1.21H5.315a1.015,1.015,0,0,0-1.01,1v.407a1.011,1.011,0,0,0,1.01,1.01h7.676A1.011,1.011,0,0,0,14,2.619V2.212A1.014,1.014,0,0,0,12.991,1.21Z"/><path class="cls-1" d="M12.991,5.791H5.315a1.015,1.015,0,0,0-1.01,1V7.2a1.01,1.01,0,0,0,1.01,1.009h7.676A1.01,1.01,0,0,0,14,7.2V6.792A1.014,1.014,0,0,0,12.991,5.791Z"/><path class="cls-1" d="M8.141,10.371H5.315a1.015,1.015,0,0,0-1.01,1v.407a1.011,1.011,0,0,0,1.01,1.009H8.141a1.011,1.011,0,0,0,1.011-1.009v-.408A1.015,1.015,0,0,0,8.141,10.371Z"/><circle class="cls-1" cx="1.211" cy="2.419" r="1.209"/><circle class="cls-1" cx="1.211" cy="7" r="1.209"/><circle class="cls-1" cx="1.211" cy="11.581" r="1.209"/></g></svg>