<svg id="BeBold" xmlns="http://www.w3.org/2000/svg" viewBox="0 0 14 14"><defs><style>.cls-1{fill:#444a58;fill-rule:evenodd;}</style></defs><g id="Code"><path class="cls-1" d="M13.786,6.5,10.179,2.848A.9.9,0,0,0,8.9,4.118l1.617,1.644c.014.013.708.737.708.737a.652.652,0,0,1,0,1.047l-.714.706h0l-.567.56L8.85,9.881a.9.9,0,0,0,1.274,1.277l3.657-3.612A.741.741,0,0,0,13.786,6.5Z"/><path class="cls-1" d="M3.5,5.748h0l.567-.561L5.15,4.119A.9.9,0,0,0,3.876,2.842L.219,6.454A.741.741,0,0,0,.214,7.5l3.607,3.651A.9.9,0,1,0,5.1,9.881L3.486,8.238,2.778,7.5a.652.652,0,0,1,0-1.047Z"/></g></svg>