<svg id="BeBold" xmlns="http://www.w3.org/2000/svg" viewBox="0 0 14 14"><defs><style>.cls-1{fill:#444a58;}</style></defs><g id="Compress"><path class="cls-1" d="M9.347,0h.981a.537.537,0,0,1,.537.537V2.942a.186.186,0,0,0,.186.186h2.413A.536.536,0,0,1,14,3.664v.988a.536.536,0,0,1-.536.537H9.212a.4.4,0,0,1-.4-.4V.537A.536.536,0,0,1,9.347,0Z"/><path class="cls-1" d="M0,4.653V3.672a.537.537,0,0,1,.536-.537H2.942a.186.186,0,0,0,.186-.186V.536A.536.536,0,0,1,3.664,0h.988a.537.537,0,0,1,.537.536V4.788a.4.4,0,0,1-.4.4H.536A.536.536,0,0,1,0,4.653Z"/><path class="cls-1" d="M4.653,14H3.672a.537.537,0,0,1-.537-.537v-2.4a.186.186,0,0,0-.186-.186H.536A.536.536,0,0,1,0,10.336V9.348a.536.536,0,0,1,.536-.537H4.788a.4.4,0,0,1,.4.4v4.251A.536.536,0,0,1,4.653,14Z"/><path class="cls-1" d="M14,9.347v.981a.537.537,0,0,1-.536.537H11.058a.186.186,0,0,0-.186.186v2.413a.536.536,0,0,1-.536.536H9.348a.537.537,0,0,1-.537-.536V9.212a.4.4,0,0,1,.4-.4h4.252A.536.536,0,0,1,14,9.347Z"/></g></svg>