<svg id="BeBold" xmlns="http://www.w3.org/2000/svg" viewBox="0 0 14 14"><defs><style>.cls-1{fill:#444a58;}</style></defs><g id="Crop"><path class="cls-1" d="M9.142,8.329h2.165V3.686a1.136,1.136,0,0,0-.316-.827,1.147,1.147,0,0,0-.832-.316h-5.3V1a1,1,0,0,0-1-1H3.67a1,1,0,0,0-1,1V2.543H2.262c-.354,0-.7,0-1.056,0A1.071,1.071,0,0,0,.42,2.9a1.086,1.086,0,0,0,.842,1.815h7.88Z"/><path class="cls-1" d="M12.863,9.294l-8.025,0V5.681H2.671V10.3a1.082,1.082,0,0,0,1.163,1.17H9.116V13a1,1,0,0,0,1,1h.192a1,1,0,0,0,1-1V11.486h0l1.555,0a1,1,0,0,0,1-1v-.192A1,1,0,0,0,12.863,9.294Z"/></g></svg>