<svg id="BeBold" xmlns="http://www.w3.org/2000/svg" viewBox="0 0 14 14"><defs><style>.cls-1{fill:#444a58;}</style></defs><g id="Eyedropper"><g id="picker"><path id="Combined-Shape" class="cls-1" d="M9.15,8.916,4.681,13.357a2.123,2.123,0,0,1-1.51.622l-2.444-.01a.72.72,0,0,1-.717-.717L0,10.808A2.123,2.123,0,0,1,.622,9.3L5.091,4.857,4.077,3.842a.716.716,0,0,1,0-1.015l.166-.167a1.8,1.8,0,0,1,1.431-.518l1.285.117A1.432,1.432,0,0,0,8.1,1.845L9.037.911a2.929,2.929,0,0,1,3.8-.343,2.872,2.872,0,0,1,.322,4.338l-1,1a1.432,1.432,0,0,0-.414,1.144l.116,1.285a1.787,1.787,0,0,1-.518,1.43l-.166.167a.716.716,0,0,1-1.015,0ZM5.4,10.9,8.3,8.016,6.045,5.757,1.931,9.843Z"/></g></g></svg>