<svg id="BeBold" xmlns="http://www.w3.org/2000/svg" viewBox="0 0 14 14"><defs><style>.cls-1{fill:#444a58;fill-rule:evenodd;}</style></defs><g id="Heading"><path class="cls-1" d="M13,4.87H10.938a1,1,0,0,0-1,1v.386a1,1,0,0,0,1,1h.675v4.592a1,1,0,0,0,1,1H13a1,1,0,0,0,1-1V5.869A1,1,0,0,0,13,4.87Z"/><path class="cls-1" d="M7.2.987H6.812a1,1,0,0,0-1,1V6.02l-.013,0H2.387V1.987a1,1,0,0,0-1-1H1a1,1,0,0,0-1,1V12.013a1,1,0,0,0,1,1h.388a1,1,0,0,0,1-1V8.432H5.8l.013,0v3.583a1,1,0,0,0,1,1H7.2a1,1,0,0,0,1-1V1.987A1,1,0,0,0,7.2.987Z"/></g></svg>