<svg id="BeBold" xmlns="http://www.w3.org/2000/svg" viewBox="0 0 14 14"><defs><style>.cls-1{fill:#444a58;}</style></defs><g id="Pen-tool"><path class="cls-1" d="M9.637,7.793l-3.43-3.43a1.006,1.006,0,0,0-.96-.263l-3.133.82a.993.993,0,0,0-.747.977A19.436,19.436,0,0,1,.044,13.1a.663.663,0,0,0,.853.853A19.436,19.436,0,0,1,8.1,12.633a.993.993,0,0,0,.977-.747L9.9,8.753A1.006,1.006,0,0,0,9.637,7.793ZM6.53,9.843a1.678,1.678,0,1,1,0-2.373A1.68,1.68,0,0,1,6.53,9.843Z"/><rect class="cls-1" x="6.451" y="1.708" width="7.667" height="4.016" rx="1" transform="translate(5.64 -6.183) rotate(45)"/></g></svg>