<svg id="BeBold" xmlns="http://www.w3.org/2000/svg" viewBox="0 0 14 14"><defs><style>.cls-1{fill:#444a58;}</style></defs><g id="Quote"><path class="cls-1" d="M3.231,2.154a3.231,3.231,0,1,0,0,6.461c.073,0,.142-.016.214-.021a2.8,2.8,0,0,1-2.368,1.1,1.077,1.077,0,0,0,0,2.154c3.569,0,5.385-2.893,5.385-6.461A3.231,3.231,0,0,0,3.231,2.154Z"/><path class="cls-1" d="M10.769,2.154a3.231,3.231,0,1,0,0,6.461c.074,0,.143-.016.215-.021a2.8,2.8,0,0,1-2.369,1.1,1.077,1.077,0,0,0,0,2.154C12.184,11.846,14,8.953,14,5.385A3.23,3.23,0,0,0,10.769,2.154Z"/></g></svg>