<svg id="BeBold" xmlns="http://www.w3.org/2000/svg" viewBox="0 0 14 14"><defs><style>.cls-1{fill:#444a58;}</style></defs><g id="Remove-style"><path class="cls-1" d="M.992,4.405h.456a.99.99,0,0,0,.982-.991v-.99H5.791V4.556L10.347,0H.992A.989.989,0,0,0,0,.99V3.414A.99.99,0,0,0,.992,4.405Z"/><path class="cls-1" d="M13.987.916a.849.849,0,0,0-.24-.665.855.855,0,0,0-.672-.239c-.022,0-.041-.012-.063-.012h-.231L12.53.251h0L.253,12.531A.861.861,0,0,0,1.47,13.749L5.791,9.426v2.148H5.022a.99.99,0,0,0-.991.981v.455a.99.99,0,0,0,.991.99h3.96a.99.99,0,0,0,.99-.99v-.455a.99.99,0,0,0-.99-.981H8.213V7l3.4-3.4a.978.978,0,0,0,.942.805h.454A.99.99,0,0,0,14,3.414V.99C14,.964,13.989.942,13.987.916Z"/></g></svg>