<svg id="BeBold" xmlns="http://www.w3.org/2000/svg" viewBox="0 0 14 14"><defs><style>.cls-1{fill:#444a58;}</style></defs><path id="Strikethrough" class="cls-1" d="M12.88,5.88H7A2.006,2.006,0,0,1,4.854,4.06,2,2,0,0,1,7,2.24,2.227,2.227,0,0,1,8.872,3.2a1.11,1.11,0,0,0,.7.489,1.12,1.12,0,0,0,1.182-1.7A4.424,4.424,0,0,0,7,0,4.238,4.238,0,0,0,2.613,4.06a3.7,3.7,0,0,0,.478,1.82H1.12a1.12,1.12,0,0,0,0,2.24H7A2.006,2.006,0,0,1,9.146,9.94,2,2,0,0,1,7,11.76,2.227,2.227,0,0,1,5.127,10.8a1.12,1.12,0,1,0-1.881,1.216A4.424,4.424,0,0,0,7,14a4.238,4.238,0,0,0,4.387-4.06,3.7,3.7,0,0,0-.478-1.82H12.88a1.12,1.12,0,0,0,0-2.24Z"/></svg>