<svg id="BeBold" xmlns="http://www.w3.org/2000/svg" viewBox="0 0 14 14"><defs><style>.cls-1{fill:#444a58;}</style></defs><g id="Repeat-2"><path class="cls-1" d="M13.15.584a.391.391,0,0,0-.665-.23L11.118,1.721a6.333,6.333,0,0,0-8.674-.006A6.177,6.177,0,0,0,.683,4.628a.492.492,0,0,0,.428.6l1.649.192a.505.505,0,0,0,.532-.359A3.28,3.28,0,0,1,4.316,3.582a3.4,3.4,0,0,1,4.751.189L7.824,5.015a.391.391,0,0,0,.228.664l5.1.636a.536.536,0,0,0,.6-.6Z"/><path class="cls-1" d="M.69,13.416a.391.391,0,0,0,.665.23l1.368-1.367a6.332,6.332,0,0,0,8.673.006,6.169,6.169,0,0,0,1.761-2.913.492.492,0,0,0-.427-.6l-1.65-.192a.505.505,0,0,0-.532.359,3.272,3.272,0,0,1-1.024,1.483,3.4,3.4,0,0,1-4.751-.189L6.016,8.985a.391.391,0,0,0-.228-.664l-5.1-.636a.536.536,0,0,0-.6.595Z"/></g></svg>