<svg id="BeBold" xmlns="http://www.w3.org/2000/svg" viewBox="0 0 14 14"><defs><style>.cls-1{fill:#444a58;}</style></defs><g id="Repeat-1"><path class="cls-1" d="M10.63,9.149l-.017.088a.7.7,0,0,1-.687.563H3.85V8.063a.365.365,0,0,0-.1-.25.352.352,0,0,0-.5-.013L.516,10.455.5,10.474a.553.553,0,0,0,.018.771L3.248,13.9a.35.35,0,0,0,.246.1.36.36,0,0,0,.356-.364V11.9H10.5a2.1,2.1,0,0,0,2.1-2.1V9.344a.994.994,0,0,0-.995-.994h0A.994.994,0,0,0,10.63,9.149Z"/><path class="cls-1" d="M3.37,4.85l.017-.088A.7.7,0,0,1,4.074,4.2H10.15V5.936a.368.368,0,0,0,.1.251.351.351,0,0,0,.5.012l2.732-2.654.018-.019a.553.553,0,0,0-.018-.771L10.752.1a.353.353,0,0,0-.246-.1.359.359,0,0,0-.356.363V2.1H3.5A2.1,2.1,0,0,0,1.4,4.2v.455a1,1,0,0,0,1,1h0A1,1,0,0,0,3.37,4.85Z"/></g></svg>