<svg width="64" height="64" viewBox="0 0 64 64" fill="none" xmlns="http://www.w3.org/2000/svg">
<rect x="1" y="1" width="62" height="62" rx="14" stroke="black" stroke-width="2"/>
<path d="M19.7997 45.358C17.8906 45.358 16.1903 45.0298 14.6989 44.3736C13.2159 43.7088 12.044 42.7969 11.1832 41.6378C10.331 40.4702 9.89205 39.1236 9.86648 37.598H15.4403C15.4744 38.2372 15.6832 38.7997 16.0668 39.2855C16.4588 39.7628 16.9787 40.1335 17.6264 40.3977C18.2741 40.6619 19.0028 40.794 19.8125 40.794C20.6562 40.794 21.402 40.6449 22.0497 40.3466C22.6974 40.0483 23.2045 39.6349 23.571 39.1065C23.9375 38.5781 24.1207 37.9687 24.1207 37.2784C24.1207 36.5795 23.9247 35.9616 23.5327 35.4247C23.1491 34.8793 22.5952 34.4531 21.8707 34.1463C21.1548 33.8395 20.3026 33.6861 19.3139 33.6861H16.8722V29.6207H19.3139C20.1491 29.6207 20.8864 29.4759 21.5256 29.1861C22.1733 28.8963 22.6761 28.4957 23.0341 27.9844C23.392 27.4645 23.571 26.8594 23.571 26.169C23.571 25.5128 23.4134 24.9375 23.098 24.4432C22.7912 23.9403 22.3565 23.5483 21.794 23.267C21.2401 22.9858 20.5923 22.8452 19.8509 22.8452C19.1009 22.8452 18.4148 22.9815 17.7926 23.2543C17.1705 23.5185 16.6719 23.8977 16.2969 24.392C15.9219 24.8864 15.7216 25.4659 15.696 26.1307H10.3906C10.4162 24.6222 10.8466 23.2926 11.6818 22.142C12.517 20.9915 13.642 20.0923 15.0568 19.4446C16.4801 18.7884 18.0866 18.4602 19.8764 18.4602C21.6832 18.4602 23.2642 18.7884 24.6193 19.4446C25.9744 20.1009 27.027 20.9872 27.777 22.1037C28.5355 23.2116 28.9105 24.456 28.902 25.8366C28.9105 27.3026 28.4545 28.5256 27.5341 29.5057C26.6222 30.4858 25.4332 31.108 23.9673 31.3722V31.5767C25.8935 31.8239 27.3594 32.4929 28.3651 33.5838C29.3793 34.6662 29.8821 36.0213 29.8736 37.6491C29.8821 39.1406 29.4517 40.4659 28.5824 41.625C27.7216 42.7841 26.5327 43.696 25.0156 44.3608C23.4986 45.0256 21.7599 45.358 19.7997 45.358ZM43.2873 45H34.006V18.8182H43.364C45.9975 18.8182 48.2646 19.3423 50.1651 20.3906C52.0657 21.4304 53.5273 22.9261 54.5501 24.8778C55.5813 26.8295 56.0969 29.1648 56.0969 31.8835C56.0969 34.6108 55.5813 36.9545 54.5501 38.9148C53.5273 40.875 52.0572 42.3793 50.1396 43.4276C48.2305 44.4759 45.9464 45 43.2873 45ZM39.5415 40.2571H43.0572C44.6935 40.2571 46.07 39.9673 47.1864 39.3878C48.3114 38.7997 49.1552 37.892 49.7177 36.6648C50.2887 35.429 50.5742 33.8352 50.5742 31.8835C50.5742 29.9489 50.2887 28.3679 49.7177 27.1406C49.1552 25.9134 48.3157 25.0099 47.1992 24.4304C46.0827 23.8509 44.7063 23.5611 43.07 23.5611H39.5415V40.2571Z" fill="black"/>
</svg>
