<?xml version="1.0" encoding="UTF-8"?><svg xmlns="http://www.w3.org/2000/svg" viewBox="0 0 24 24"><g id="a"/><g id="b"/><g id="c"><path d="M19.5,10.25c-.78,0-1.46,.4-1.87,1h-2.09c-.54-1.73-2.14-3-4.04-3-.55,0-1.08,.11-1.56,.31l-1.05-1.57c.53-.5,.86-1.2,.86-1.99,0-1.52-1.23-2.75-2.75-2.75s-2.75,1.23-2.75,2.75,1.23,2.75,2.75,2.75c.19,0,.38-.02,.56-.06l1.11,1.66c-.86,.78-1.42,1.89-1.42,3.15,0,.9,.29,1.73,.77,2.42l-.82,.82c-.5-.31-1.07-.49-1.7-.49-1.79,0-3.25,1.46-3.25,3.25s1.46,3.25,3.25,3.25,3.25-1.46,3.25-3.25c0-.62-.19-1.2-.49-1.7l.82-.82c.69,.48,1.52,.77,2.42,.77,2.26,0,4.09-1.77,4.22-4h1.55c.13,1.12,1.07,2,2.22,2,1.24,0,2.25-1.01,2.25-2.25s-1.01-2.25-2.25-2.25Z"/></g><g id="d"/><g id="e"/><g id="f"/><g id="g"/><g id="h"/><g id="i"/><g id="j"/><g id="k"/><g id="l"/><g id="m"/><g id="n"/><g id="o"/><g id="p"/><g id="q"/><g id="r"/><g id="s"/><g id="t"/><g id="u"/></svg>